<?xml version="1.0" encoding="utf-8"?>
<svg xmlns="http://www.w3.org/2000/svg" xmlns:xlink="http://www.w3.org/1999/xlink" width="480" height="480" viewBox="0 0 1920 1920">
<defs>
  <clipPath id="clip600">
    <rect x="0" y="0" width="1920" height="1920"/>
  </clipPath>
</defs>
<path clip-path="url(#clip600)" d="
M0 1920 L1920 1920 L1920 0 L0 0  Z
  " fill="#ffffff" fill-rule="evenodd" fill-opacity="1"/>
<defs>
  <clipPath id="clip601">
    <rect x="384" y="192" width="1345" height="1345"/>
  </clipPath>
</defs>
<path clip-path="url(#clip600)" d="
M47.2441 1872.76 L1872.76 1872.76 L1872.76 47.2441 L47.2441 47.2441  Z
  " fill="#ffffff" fill-rule="evenodd" fill-opacity="1"/>
<defs>
  <clipPath id="clip602">
    <rect x="47" y="47" width="1827" height="1827"/>
  </clipPath>
</defs>
<polyline clip-path="url(#clip600)" style="stroke:#000000; stroke-linecap:butt; stroke-linejoin:round; stroke-width:4; stroke-opacity:1; fill:none" points="
  47.2441,1872.76 1872.76,1872.76 
  "/>
<polyline clip-path="url(#clip600)" style="stroke:#000000; stroke-linecap:butt; stroke-linejoin:round; stroke-width:4; stroke-opacity:1; fill:none" points="
  47.2441,47.2441 1872.76,47.2441 
  "/>
<polyline clip-path="url(#clip600)" style="stroke:#000000; stroke-linecap:butt; stroke-linejoin:round; stroke-width:4; stroke-opacity:1; fill:none" points="
  47.2441,1872.76 47.2441,47.2441 
  "/>
<polyline clip-path="url(#clip600)" style="stroke:#000000; stroke-linecap:butt; stroke-linejoin:round; stroke-width:4; stroke-opacity:1; fill:none" points="
  1872.76,1872.76 1872.76,47.2441 
  "/>
<polyline clip-path="url(#clip602)" style="stroke:#000000; stroke-linecap:butt; stroke-linejoin:round; stroke-width:4; stroke-opacity:1; fill:none" points="
  7.3422,-13259.8 17.3177,-4574.37 27.2931,-2244.42 37.2686,-1165.17 47.2441,-544.207 57.2196,-141.783 67.195,139.453 77.1705,346.508 87.146,504.868 97.1215,629.543 
  107.097,729.953 117.072,812.307 127.048,880.863 137.023,938.64 146.999,987.837 156.974,1030.1 166.95,1066.66 176.925,1098.51 186.901,1126.39 196.876,1150.91 
  206.852,1172.57 216.827,1191.76 226.803,1208.82 236.778,1224.01 246.754,1237.57 256.729,1249.69 266.705,1260.54 276.68,1270.26 286.655,1278.98 296.631,1286.79 
  306.606,1293.79 316.582,1300.07 326.557,1305.69 336.533,1310.71 346.508,1315.2 356.484,1319.2 366.459,1322.76 376.435,1325.92 386.41,1328.71 396.386,1331.17 
  406.361,1333.32 416.337,1335.2 426.312,1336.83 436.288,1338.24 446.263,1339.44 456.239,1340.45 466.214,1341.3 476.189,1342 486.165,1342.57 496.14,1343.01 
  506.116,1343.36 516.091,1343.62 526.067,1343.8 536.042,1343.93 546.018,1344 555.993,1344.04 565.969,1344.05 575.944,1344.06 585.92,1344.06 595.895,1344.07 
  605.871,1344.11 615.846,1344.18 625.822,1344.31 635.797,1344.49 645.773,1344.75 655.748,1345.1 665.724,1345.55 675.699,1346.11 685.674,1346.81 695.65,1347.66 
  705.625,1348.67 715.601,1349.87 725.576,1351.28 735.552,1352.91 745.527,1354.79 755.503,1356.94 765.478,1359.4 775.454,1362.19 785.429,1365.35 795.405,1368.91 
  805.38,1372.91 815.356,1377.4 825.331,1382.42 835.307,1388.04 845.282,1394.32 855.258,1401.32 865.233,1409.13 875.208,1417.85 885.184,1427.57 895.159,1438.42 
  905.135,1450.54 915.11,1464.1 925.086,1479.3 935.061,1496.35 945.037,1515.54 955.012,1537.2 964.988,1561.73 974.963,1589.61 984.939,1621.45 994.914,1658.02 
  1004.89,1700.27 1014.87,1749.47 1024.84,1807.25 1034.82,1875.8 1044.79,1958.16 1054.77,2058.57 1064.74,2183.24 1074.72,2341.6 1084.69,2548.66 1094.67,2829.89 
  1104.64,3232.32 1114.62,3853.29 1124.6,4932.53 1134.57,7262.48 1144.55,15947.9 
  "/>
<polyline clip-path="url(#clip602)" style="stroke:#000000; stroke-linecap:butt; stroke-linejoin:round; stroke-width:4; stroke-opacity:1; fill:none" points="
  1154.52,-40967.6 1164.5,-7905.39 1174.47,-4042.7 1184.45,-2549.74 1194.42,-1759.65 1204.4,-1271.92 1214.37,-941.793 1224.35,-704.179 1234.33,-525.507 1244.3,-386.693 
  1254.28,-276.093 1264.25,-186.196 1274.23,-111.939 1284.2,-49.7885 1294.18,2.80005 1304.15,47.704 1314.13,86.339 1324.1,119.793 1334.08,148.916 1344.06,174.38 
  1354.03,196.726 1364.01,216.394 1373.98,233.742 1383.96,249.069 1393.93,262.625 1403.91,274.618 1413.88,285.226 1423.86,294.602 1433.84,302.874 1443.81,310.156 
  1453.79,316.546 1463.76,322.127 1473.74,326.976 1483.71,331.157 1493.69,334.729 1503.66,337.742 1513.64,340.243 1523.61,342.273 1533.59,343.867 1543.57,345.06 
  1553.54,345.88 1563.52,346.355 1573.49,346.508 1583.47,346.362 1593.44,345.936 1603.42,345.25 1613.39,344.318 1623.37,343.158 1633.34,341.782 1643.32,340.204 
  1653.3,338.436 1663.27,336.488 1673.25,334.371 1683.22,332.094 1693.2,329.665 1703.17,327.093 1713.15,324.385 1723.12,321.549 1733.1,318.59 1743.07,315.514 
  1753.05,312.328 1763.03,309.037 1773,305.645 1782.98,302.157 1792.95,298.578 1802.93,294.912 1812.9,291.162 1822.88,287.332 1832.85,283.425 1842.83,279.446 
  1852.8,275.396 1862.78,271.279 1872.76,267.097 
  "/>
<polyline clip-path="url(#clip602)" style="stroke:#000000; stroke-linecap:butt; stroke-linejoin:round; stroke-width:4; stroke-opacity:1; fill:none" points="
  -421.603,2341.6 2571.04,-651.039 
  "/>
<polyline clip-path="url(#clip602)" style="stroke:#000000; stroke-linecap:butt; stroke-linejoin:round; stroke-width:4; stroke-opacity:1; fill:none" points="
  575.944,2341.6 575.944,-651.039 
  "/>
<polyline clip-path="url(#clip602)" style="stroke:#000000; stroke-linecap:butt; stroke-linejoin:round; stroke-width:4; stroke-opacity:1; fill:none" points="
  -421.603,1344.06 2571.04,1344.06 
  "/>
<polyline clip-path="url(#clip602)" style="stroke:#ff0000; stroke-linecap:butt; stroke-linejoin:round; stroke-width:4; stroke-opacity:1; fill:none" points="
  269.298,1344.06 882.591,1344.06 
  "/>
<polyline clip-path="url(#clip602)" style="stroke:#ff0000; stroke-linecap:butt; stroke-linejoin:round; stroke-width:4; stroke-opacity:1; fill:none" points="
  1413.83,1344.06 2571.04,1344.06 
  "/>
<circle clip-path="url(#clip602)" cx="882.591" cy="1344.06" r="14" fill="#c68125" fill-rule="evenodd" fill-opacity="1" stroke="#000000" stroke-opacity="1" stroke-width="3.84"/>
<polyline clip-path="url(#clip602)" style="stroke:#000000; stroke-linecap:butt; stroke-linejoin:round; stroke-width:4; stroke-opacity:1; fill:none" points="
  882.591,1344.06 882.591,1424.94 
  "/>
<polyline clip-path="url(#clip602)" style="stroke:#000000; stroke-linecap:butt; stroke-linejoin:round; stroke-width:4; stroke-opacity:1; fill:none" points="
  896.991,1396.14 882.591,1424.94 868.191,1396.14 
  "/>
<polyline clip-path="url(#clip602)" style="stroke:#000000; stroke-linecap:butt; stroke-linejoin:round; stroke-width:4; stroke-opacity:1; fill:none" points="
  882.591,1424.94 882.591,1344.06 
  "/>
<polyline clip-path="url(#clip602)" style="stroke:#000000; stroke-linecap:butt; stroke-linejoin:round; stroke-width:4; stroke-opacity:1; fill:none" points="
  882.591,1424.94 495.062,1424.94 
  "/>
<polyline clip-path="url(#clip602)" style="stroke:#000000; stroke-linecap:butt; stroke-linejoin:round; stroke-width:4; stroke-opacity:1; fill:none" points="
  523.862,1439.34 495.062,1424.94 523.862,1410.54 
  "/>
<polyline clip-path="url(#clip602)" style="stroke:#000000; stroke-linecap:butt; stroke-linejoin:round; stroke-width:4; stroke-opacity:1; fill:none" points="
  495.062,1424.94 882.591,1424.94 
  "/>
<polyline clip-path="url(#clip602)" style="stroke:#000000; stroke-linecap:butt; stroke-linejoin:round; stroke-width:4; stroke-opacity:1; fill:none" points="
  495.062,1424.94 495.062,1342.97 
  "/>
<polyline clip-path="url(#clip602)" style="stroke:#000000; stroke-linecap:butt; stroke-linejoin:round; stroke-width:4; stroke-opacity:1; fill:none" points="
  480.662,1371.77 495.062,1342.97 509.462,1371.77 
  "/>
<polyline clip-path="url(#clip602)" style="stroke:#000000; stroke-linecap:butt; stroke-linejoin:round; stroke-width:4; stroke-opacity:1; fill:none" points="
  495.062,1342.97 495.062,1424.94 
  "/>
<polyline clip-path="url(#clip602)" style="stroke:#000000; stroke-linecap:butt; stroke-linejoin:round; stroke-width:4; stroke-opacity:1; fill:none" points="
  495.062,1342.97 577.029,1342.97 
  "/>
<polyline clip-path="url(#clip602)" style="stroke:#000000; stroke-linecap:butt; stroke-linejoin:round; stroke-width:4; stroke-opacity:1; fill:none" points="
  548.229,1328.57 577.029,1342.97 548.229,1357.37 
  "/>
<polyline clip-path="url(#clip602)" style="stroke:#000000; stroke-linecap:butt; stroke-linejoin:round; stroke-width:4; stroke-opacity:1; fill:none" points="
  577.029,1342.97 495.062,1342.97 
  "/>
<path clip-path="url(#clip600)" d="M614.474 201.111 Q614.474 201.151 614.228 202.627 L604.883 239.886 Q604.391 241.854 602.997 243.821 Q601.645 245.83 599.472 247.551 Q597.341 249.314 594.061 250.38 Q590.823 251.486 587.093 251.486 Q581.15 251.486 578.527 250.216 Q575.944 248.986 575.944 246.363 Q575.944 244.067 577.379 242.756 Q578.813 241.485 580.453 241.485 Q582.011 241.485 582.83 242.387 Q583.65 243.288 583.65 244.436 Q583.65 245.707 582.789 246.978 Q581.929 248.289 580.207 248.781 Q582.953 249.642 586.929 249.642 Q595.332 249.642 598.939 240.747 Q599.021 240.624 599.021 240.583 L601.808 229.475 L601.686 229.393 Q600.989 230.213 599.882 231.156 Q598.816 232.057 596.521 233.164 Q594.225 234.271 591.971 234.271 Q587.257 234.271 584.019 230.664 Q580.822 227.016 580.822 220.99 Q580.822 216.604 582.584 212.219 Q584.388 207.792 587.175 204.554 Q590.004 201.274 593.611 199.225 Q597.259 197.176 600.784 197.176 Q603.243 197.176 605.334 198.651 Q607.424 200.086 608.572 202.463 Q608.777 200.496 609.883 199.676 Q611.031 198.856 612.015 198.856 Q613.122 198.856 613.777 199.471 Q614.474 200.045 614.474 201.111 M607.588 206.234 Q607.588 205.988 607.424 205.332 Q607.26 204.636 606.768 203.529 Q606.317 202.422 605.62 201.438 Q604.924 200.455 603.653 199.758 Q602.423 199.02 600.866 199.02 Q598.324 199.02 595.783 201.151 Q593.242 203.242 591.479 206.48 Q589.84 209.595 588.282 215.621 Q586.765 221.646 586.765 224.72 Q586.765 227.754 588.077 230.09 Q589.389 232.426 592.217 232.426 Q595.496 232.426 599.021 229.393 Q602.669 226.237 603.284 223.532 L607.342 207.505 Q607.588 206.521 607.588 206.234 Z" fill="#000000" fill-rule="evenodd" fill-opacity="1" /><path clip-path="url(#clip600)" d="M625.98 213.284 Q625.98 199.102 631.268 187.666 Q633.522 182.87 636.679 178.853 Q639.835 174.836 641.925 173.074 Q644.016 171.311 644.59 171.311 Q645.409 171.311 645.45 172.131 Q645.45 172.541 644.344 173.566 Q630.817 187.338 630.858 213.284 Q630.858 239.313 644.016 252.552 Q645.45 253.987 645.45 254.438 Q645.45 255.257 644.59 255.257 Q644.016 255.257 642.007 253.577 Q639.999 251.896 636.884 248.043 Q633.768 244.19 631.514 239.476 Q625.98 228.04 625.98 213.284 Z" fill="#000000" fill-rule="evenodd" fill-opacity="1" /><path clip-path="url(#clip600)" d="M693.638 202.709 Q693.638 205.004 692.203 206.316 Q690.768 207.587 689.129 207.587 Q687.571 207.587 686.751 206.685 Q685.932 205.783 685.932 204.636 Q685.932 203.078 687.079 201.725 Q688.227 200.373 689.948 200.086 Q688.268 199.02 685.768 199.02 Q684.128 199.02 682.693 199.881 Q681.3 200.742 680.439 201.848 Q679.619 202.955 678.881 204.554 Q678.185 206.111 677.898 207.054 Q677.652 207.956 677.447 208.939 L674.578 220.416 Q673.184 225.868 673.184 227.795 Q673.184 230.172 674.332 231.77 Q675.479 233.328 677.775 233.328 Q678.676 233.328 679.701 233.082 Q680.726 232.795 682.038 232.057 Q683.39 231.279 684.579 230.131 Q685.809 228.942 686.997 226.934 Q688.186 224.925 688.965 222.343 Q689.211 221.441 690.03 221.441 Q691.055 221.441 691.055 222.261 Q691.055 222.958 690.481 224.433 Q689.948 225.868 688.76 227.754 Q687.612 229.598 686.096 231.279 Q684.579 232.918 682.324 234.066 Q680.07 235.214 677.611 235.214 Q674.086 235.214 671.749 233.328 Q669.413 231.443 668.552 228.819 Q668.347 229.188 668.06 229.68 Q667.773 230.172 666.913 231.279 Q666.093 232.344 665.15 233.164 Q664.207 233.943 662.732 234.558 Q661.297 235.214 659.739 235.214 Q657.772 235.214 656.009 234.64 Q654.288 234.066 653.058 232.754 Q651.828 231.443 651.828 229.639 Q651.828 227.631 653.181 226.237 Q654.575 224.802 656.46 224.802 Q657.649 224.802 658.592 225.499 Q659.575 226.196 659.575 227.713 Q659.575 229.393 658.428 230.664 Q657.28 231.934 655.64 232.262 Q657.321 233.328 659.821 233.328 Q662.527 233.328 664.658 230.951 Q666.79 228.573 667.814 224.597 Q670.356 215.047 671.339 210.784 Q672.323 206.48 672.323 204.636 Q672.323 202.914 671.872 201.725 Q671.421 200.537 670.643 200.004 Q669.905 199.43 669.208 199.225 Q668.552 199.02 667.814 199.02 Q666.585 199.02 665.191 199.512 Q663.838 200.004 662.199 201.151 Q660.6 202.258 659.084 204.554 Q657.567 206.849 656.542 210.005 Q656.337 210.948 655.436 210.948 Q654.452 210.907 654.452 210.087 Q654.452 209.39 654.985 207.956 Q655.558 206.48 656.706 204.636 Q657.895 202.791 659.411 201.151 Q660.969 199.471 663.223 198.323 Q665.519 197.176 667.978 197.176 Q669.085 197.176 670.151 197.421 Q671.257 197.626 672.569 198.241 Q673.922 198.856 675.11 200.209 Q676.299 201.561 677.037 203.529 Q677.529 202.586 678.185 201.684 Q678.881 200.783 679.947 199.676 Q681.054 198.528 682.57 197.872 Q684.128 197.176 685.85 197.176 Q687.53 197.176 689.17 197.626 Q690.809 198.036 692.203 199.389 Q693.638 200.701 693.638 202.709 Z" fill="#000000" fill-rule="evenodd" fill-opacity="1" /><path clip-path="url(#clip600)" d="M701.717 254.438 Q701.717 254.028 702.782 253.003 Q716.309 239.231 716.309 213.284 Q716.309 187.256 703.315 174.099 Q701.717 172.582 701.717 172.131 Q701.717 171.311 702.536 171.311 Q703.11 171.311 705.119 172.992 Q707.168 174.672 710.242 178.525 Q713.358 182.378 715.653 187.092 Q721.187 198.528 721.187 213.284 Q721.187 227.467 715.899 238.903 Q713.644 243.698 710.488 247.715 Q707.332 251.732 705.242 253.495 Q703.151 255.257 702.536 255.257 Q701.717 255.257 701.717 254.438 Z" fill="#000000" fill-rule="evenodd" fill-opacity="1" /></svg>
