<?xml version="1.0" encoding="utf-8"?>
<svg xmlns="http://www.w3.org/2000/svg" xmlns:xlink="http://www.w3.org/1999/xlink" width="480" height="480" viewBox="0 0 1920 1920">
<defs>
  <clipPath id="clip710">
    <rect x="0" y="0" width="1920" height="1920"/>
  </clipPath>
</defs>
<path clip-path="url(#clip710)" d="
M0 1920 L1920 1920 L1920 0 L0 0  Z
  " fill="#ffffff" fill-rule="evenodd" fill-opacity="1"/>
<defs>
  <clipPath id="clip711">
    <rect x="384" y="192" width="1345" height="1345"/>
  </clipPath>
</defs>
<path clip-path="url(#clip710)" d="
M47.2441 1872.76 L1872.76 1872.76 L1872.76 47.2441 L47.2441 47.2441  Z
  " fill="#ffffff" fill-rule="evenodd" fill-opacity="1"/>
<defs>
  <clipPath id="clip712">
    <rect x="47" y="47" width="1827" height="1827"/>
  </clipPath>
</defs>
<polyline clip-path="url(#clip710)" style="stroke:#000000; stroke-linecap:butt; stroke-linejoin:round; stroke-width:4; stroke-opacity:1; fill:none" points="
  47.2441,1872.76 1872.76,1872.76 
  "/>
<polyline clip-path="url(#clip710)" style="stroke:#000000; stroke-linecap:butt; stroke-linejoin:round; stroke-width:4; stroke-opacity:1; fill:none" points="
  47.2441,47.2441 1872.76,47.2441 
  "/>
<polyline clip-path="url(#clip710)" style="stroke:#000000; stroke-linecap:butt; stroke-linejoin:round; stroke-width:4; stroke-opacity:1; fill:none" points="
  47.2441,1872.76 47.2441,47.2441 
  "/>
<polyline clip-path="url(#clip710)" style="stroke:#000000; stroke-linecap:butt; stroke-linejoin:round; stroke-width:4; stroke-opacity:1; fill:none" points="
  1872.76,1872.76 1872.76,47.2441 
  "/>
<polyline clip-path="url(#clip712)" style="stroke:#000000; stroke-linecap:butt; stroke-linejoin:round; stroke-width:4; stroke-opacity:1; fill:none" points="
  47.2441,5980.16 48.7297,6055.05 50.2154,6132.75 51.701,6213.42 53.1866,6297.23 54.6723,6384.37 56.1579,6475.03 57.6435,6569.43 59.1292,6667.81 65.9976,7182.26 
  72.866,7820.73 79.7344,8633.86 86.6029,9704.14 90.0371,10376.9 93.4713,11175.8 96.9055,12139.7 100.34,13325.5 103.774,14819.7 107.208,16760.4 108.925,17965.7 
  110.642,19382.5 112.359,21071.8 114.077,23120.7 115.794,25657.5 117.511,28879.9 119.228,33109.1 120.945,38904.2 121.804,42688.4 122.662,47332.3 123.521,53166.1 
  124.379,60714.6 125.238,70863.8 126.096,85237.3 126.955,107165 127.813,144727 128.672,223900 129.53,499694 130.389,-2.05817e+006 131.248,-333859 132.106,-180920 
  132.965,-123729 133.823,-93806.1 134.682,-75404.1 135.54,-62943.5 136.399,-53946.9 137.257,-47146.1 138.116,-41824.7 138.975,-37547.4 139.833,-34034.3 140.692,-31097.4 
  141.55,-28605.8 143.267,-24606.6 144.984,-21537.9 146.702,-19108.9 148.419,-17138.4 151.853,-14136.5 155.287,-11957.6 158.721,-10304.2 162.155,-9006.88 165.59,-7961.79 
  169.024,-7102 173.152,-6251 177.279,-5549.64 181.407,-4961.74 185.534,-4461.89 193.79,-3657.73 202.045,-3039.38 210.3,-2549.38 218.555,-2151.73 226.811,-1822.76 
  235.066,-1546.24 249.025,-1167.4 262.985,-869.689 276.944,-629.958 290.904,-433.093 306.068,-255.916 321.232,-108.075 336.395,16.9045 351.559,123.72 379.519,284.183 
  407.478,409.462 437.454,515.622 467.429,600.243 502.159,678.207 536.889,739.889 598.616,820.589 652.745,869.664 711.76,907.017 771.126,932.17 836.763,949.252 
  899.215,957.598 964.15,959.99 1018.81,958.054 1085.55,951.75 1146.68,942.857 1203.14,932.45 1260.34,920.091 1324.44,904.393 1382.52,888.722 1449.02,869.333 
  1510.6,850.19 1571.3,830.343 1630.24,810.26 1690.66,788.936 1756.86,764.815 1853.03,728.547 1872.76,720.945 
  "/>
<polyline clip-path="url(#clip712)" style="stroke:#000000; stroke-linecap:butt; stroke-linejoin:round; stroke-width:4; stroke-opacity:1; fill:none" points="
  130.222,1789.78 9892.32,-7972.32 
  "/>
<polyline clip-path="url(#clip712)" style="stroke:#000000; stroke-linecap:butt; stroke-linejoin:round; stroke-width:4; stroke-opacity:1; fill:none" points="
  130.222,2765.99 130.222,-162.641 
  "/>
<polyline clip-path="url(#clip712)" style="stroke:#000000; stroke-linecap:butt; stroke-linejoin:round; stroke-width:4; stroke-opacity:1; fill:none" points="
  -845.988,1789.78 2082.64,1789.78 
  "/>
<polyline clip-path="url(#clip712)" style="stroke:#ff0000; stroke-linecap:butt; stroke-linejoin:round; stroke-width:4; stroke-opacity:1; fill:none" points="
  609.295,1789.78 2082.64,1789.78 
  "/>
<circle clip-path="url(#clip712)" cx="545.111" cy="1789.78" r="14" fill="#00a9ad" fill-rule="evenodd" fill-opacity="1" stroke="#000000" stroke-opacity="1" stroke-width="3.84"/>
<polyline clip-path="url(#clip712)" style="stroke:#000000; stroke-linecap:butt; stroke-linejoin:round; stroke-width:4; stroke-opacity:1; fill:none" points="
  545.111,1789.78 545.111,752.555 
  "/>
<polyline clip-path="url(#clip712)" style="stroke:#000000; stroke-linecap:butt; stroke-linejoin:round; stroke-width:4; stroke-opacity:1; fill:none" points="
  530.711,781.355 545.111,752.555 559.511,781.355 
  "/>
<polyline clip-path="url(#clip712)" style="stroke:#000000; stroke-linecap:butt; stroke-linejoin:round; stroke-width:4; stroke-opacity:1; fill:none" points="
  545.111,752.555 545.111,1789.78 
  "/>
<polyline clip-path="url(#clip712)" style="stroke:#000000; stroke-linecap:butt; stroke-linejoin:round; stroke-width:4; stroke-opacity:1; fill:none" points="
  545.111,752.555 1167.44,752.555 
  "/>
<polyline clip-path="url(#clip712)" style="stroke:#000000; stroke-linecap:butt; stroke-linejoin:round; stroke-width:4; stroke-opacity:1; fill:none" points="
  1138.64,738.155 1167.44,752.555 1138.64,766.955 
  "/>
<polyline clip-path="url(#clip712)" style="stroke:#000000; stroke-linecap:butt; stroke-linejoin:round; stroke-width:4; stroke-opacity:1; fill:none" points="
  1167.44,752.555 545.111,752.555 
  "/>
<polyline clip-path="url(#clip712)" style="stroke:#000000; stroke-linecap:butt; stroke-linejoin:round; stroke-width:4; stroke-opacity:1; fill:none" points="
  1167.44,752.555 1167.44,939.256 
  "/>
<polyline clip-path="url(#clip712)" style="stroke:#000000; stroke-linecap:butt; stroke-linejoin:round; stroke-width:4; stroke-opacity:1; fill:none" points="
  1181.84,910.456 1167.44,939.256 1153.04,910.456 
  "/>
<polyline clip-path="url(#clip712)" style="stroke:#000000; stroke-linecap:butt; stroke-linejoin:round; stroke-width:4; stroke-opacity:1; fill:none" points="
  1167.44,939.256 1167.44,752.555 
  "/>
<polyline clip-path="url(#clip712)" style="stroke:#000000; stroke-linecap:butt; stroke-linejoin:round; stroke-width:4; stroke-opacity:1; fill:none" points="
  1167.44,939.256 980.744,939.256 
  "/>
<polyline clip-path="url(#clip712)" style="stroke:#000000; stroke-linecap:butt; stroke-linejoin:round; stroke-width:4; stroke-opacity:1; fill:none" points="
  1009.54,953.656 980.744,939.256 1009.54,924.856 
  "/>
<polyline clip-path="url(#clip712)" style="stroke:#000000; stroke-linecap:butt; stroke-linejoin:round; stroke-width:4; stroke-opacity:1; fill:none" points="
  980.744,939.256 1167.44,939.256 
  "/>
<path clip-path="url(#clip710)" d="M417.685 236.705 Q417.685 236.746 417.439 238.221 L408.094 275.481 Q407.602 277.448 406.208 279.416 Q404.856 281.424 402.683 283.146 Q400.552 284.908 397.273 285.974 Q394.034 287.081 390.304 287.081 Q384.361 287.081 381.738 285.81 Q379.155 284.58 379.155 281.957 Q379.155 279.662 380.59 278.35 Q382.025 277.079 383.664 277.079 Q385.222 277.079 386.042 277.981 Q386.861 278.883 386.861 280.03 Q386.861 281.301 386.001 282.572 Q385.14 283.883 383.418 284.375 Q386.164 285.236 390.14 285.236 Q398.543 285.236 402.15 276.341 Q402.232 276.218 402.232 276.177 L405.02 265.069 L404.897 264.987 Q404.2 265.807 403.093 266.75 Q402.027 267.652 399.732 268.758 Q397.437 269.865 395.182 269.865 Q390.468 269.865 387.23 266.258 Q384.033 262.61 384.033 256.585 Q384.033 252.199 385.796 247.813 Q387.599 243.386 390.386 240.148 Q393.215 236.869 396.822 234.819 Q400.47 232.77 403.995 232.77 Q406.454 232.77 408.545 234.245 Q410.635 235.68 411.783 238.057 Q411.988 236.09 413.094 235.27 Q414.242 234.45 415.226 234.45 Q416.333 234.45 416.988 235.065 Q417.685 235.639 417.685 236.705 M410.799 241.828 Q410.799 241.583 410.635 240.927 Q410.471 240.23 409.979 239.123 Q409.528 238.016 408.832 237.033 Q408.135 236.049 406.864 235.352 Q405.634 234.614 404.077 234.614 Q401.535 234.614 398.994 236.746 Q396.453 238.836 394.69 242.074 Q393.051 245.19 391.493 251.215 Q389.977 257.24 389.977 260.315 Q389.977 263.348 391.288 265.684 Q392.6 268.021 395.428 268.021 Q398.707 268.021 402.232 264.987 Q405.88 261.831 406.495 259.126 L410.553 243.099 Q410.799 242.115 410.799 241.828 Z" fill="#000000" fill-rule="evenodd" fill-opacity="1" /><path clip-path="url(#clip710)" d="M429.192 248.879 Q429.192 234.696 434.479 223.26 Q436.734 218.465 439.89 214.448 Q443.046 210.431 445.136 208.668 Q447.227 206.906 447.801 206.906 Q448.62 206.906 448.661 207.725 Q448.661 208.135 447.555 209.16 Q434.028 222.932 434.069 248.879 Q434.069 274.907 447.227 288.146 Q448.661 289.581 448.661 290.032 Q448.661 290.852 447.801 290.852 Q447.227 290.852 445.218 289.171 Q443.21 287.491 440.095 283.638 Q436.98 279.785 434.725 275.071 Q429.192 263.635 429.192 248.879 Z" fill="#000000" fill-rule="evenodd" fill-opacity="1" /><path clip-path="url(#clip710)" d="M496.849 238.303 Q496.849 240.599 495.414 241.91 Q493.979 243.181 492.34 243.181 Q490.782 243.181 489.962 242.279 Q489.143 241.378 489.143 240.23 Q489.143 238.672 490.29 237.32 Q491.438 235.967 493.16 235.68 Q491.479 234.614 488.979 234.614 Q487.339 234.614 485.904 235.475 Q484.511 236.336 483.65 237.443 Q482.83 238.549 482.092 240.148 Q481.396 241.706 481.109 242.648 Q480.863 243.55 480.658 244.534 L477.789 256.011 Q476.395 261.462 476.395 263.389 Q476.395 265.766 477.543 267.365 Q478.69 268.922 480.986 268.922 Q481.888 268.922 482.912 268.676 Q483.937 268.39 485.249 267.652 Q486.601 266.873 487.79 265.725 Q489.02 264.537 490.208 262.528 Q491.397 260.52 492.176 257.937 Q492.422 257.035 493.242 257.035 Q494.266 257.035 494.266 257.855 Q494.266 258.552 493.692 260.028 Q493.16 261.462 491.971 263.348 Q490.823 265.192 489.307 266.873 Q487.79 268.512 485.536 269.66 Q483.281 270.808 480.822 270.808 Q477.297 270.808 474.96 268.922 Q472.624 267.037 471.763 264.414 Q471.558 264.782 471.271 265.274 Q470.984 265.766 470.124 266.873 Q469.304 267.939 468.361 268.758 Q467.418 269.537 465.943 270.152 Q464.508 270.808 462.95 270.808 Q460.983 270.808 459.22 270.234 Q457.499 269.66 456.269 268.349 Q455.04 267.037 455.04 265.233 Q455.04 263.225 456.392 261.831 Q457.786 260.397 459.671 260.397 Q460.86 260.397 461.803 261.093 Q462.787 261.79 462.787 263.307 Q462.787 264.987 461.639 266.258 Q460.491 267.529 458.852 267.857 Q460.532 268.922 463.032 268.922 Q465.738 268.922 467.869 266.545 Q470.001 264.168 471.025 260.192 Q473.567 250.641 474.55 246.378 Q475.534 242.074 475.534 240.23 Q475.534 238.508 475.083 237.32 Q474.632 236.131 473.854 235.598 Q473.116 235.024 472.419 234.819 Q471.763 234.614 471.025 234.614 Q469.796 234.614 468.402 235.106 Q467.049 235.598 465.41 236.746 Q463.811 237.853 462.295 240.148 Q460.778 242.443 459.753 245.599 Q459.548 246.542 458.647 246.542 Q457.663 246.501 457.663 245.681 Q457.663 244.985 458.196 243.55 Q458.77 242.074 459.917 240.23 Q461.106 238.385 462.623 236.746 Q464.18 235.065 466.435 233.918 Q468.73 232.77 471.189 232.77 Q472.296 232.77 473.362 233.016 Q474.468 233.221 475.78 233.836 Q477.133 234.45 478.321 235.803 Q479.51 237.156 480.248 239.123 Q480.74 238.18 481.396 237.279 Q482.092 236.377 483.158 235.27 Q484.265 234.122 485.782 233.467 Q487.339 232.77 489.061 232.77 Q490.741 232.77 492.381 233.221 Q494.02 233.631 495.414 234.983 Q496.849 236.295 496.849 238.303 Z" fill="#000000" fill-rule="evenodd" fill-opacity="1" /><path clip-path="url(#clip710)" d="M504.928 290.032 Q504.928 289.622 505.993 288.597 Q519.52 274.825 519.52 248.879 Q519.52 222.85 506.526 209.693 Q504.928 208.176 504.928 207.725 Q504.928 206.906 505.747 206.906 Q506.321 206.906 508.33 208.586 Q510.379 210.267 513.453 214.12 Q516.569 217.973 518.864 222.686 Q524.398 234.122 524.398 248.879 Q524.398 263.061 519.11 274.497 Q516.856 279.293 513.699 283.31 Q510.543 287.327 508.453 289.089 Q506.362 290.852 505.747 290.852 Q504.928 290.852 504.928 290.032 Z" fill="#000000" fill-rule="evenodd" fill-opacity="1" /></svg>
