<?xml version="1.0" encoding="utf-8"?>
<svg xmlns="http://www.w3.org/2000/svg" xmlns:xlink="http://www.w3.org/1999/xlink" width="480" height="480" viewBox="0 0 1920 1920">
<defs>
  <clipPath id="clip650">
    <rect x="0" y="0" width="1920" height="1920"/>
  </clipPath>
</defs>
<path clip-path="url(#clip650)" d="
M0 1920 L1920 1920 L1920 0 L0 0  Z
  " fill="#ffffff" fill-rule="evenodd" fill-opacity="1"/>
<defs>
  <clipPath id="clip651">
    <rect x="384" y="192" width="1345" height="1345"/>
  </clipPath>
</defs>
<path clip-path="url(#clip650)" d="
M47.2441 1872.76 L1872.76 1872.76 L1872.76 47.2441 L47.2441 47.2441  Z
  " fill="#ffffff" fill-rule="evenodd" fill-opacity="1"/>
<defs>
  <clipPath id="clip652">
    <rect x="47" y="47" width="1827" height="1827"/>
  </clipPath>
</defs>
<polyline clip-path="url(#clip650)" style="stroke:#000000; stroke-linecap:butt; stroke-linejoin:round; stroke-width:4; stroke-opacity:1; fill:none" points="
  47.2441,1872.76 1872.76,1872.76 
  "/>
<polyline clip-path="url(#clip650)" style="stroke:#000000; stroke-linecap:butt; stroke-linejoin:round; stroke-width:4; stroke-opacity:1; fill:none" points="
  47.2441,47.2441 1872.76,47.2441 
  "/>
<polyline clip-path="url(#clip650)" style="stroke:#000000; stroke-linecap:butt; stroke-linejoin:round; stroke-width:4; stroke-opacity:1; fill:none" points="
  47.2441,1872.76 47.2441,47.2441 
  "/>
<polyline clip-path="url(#clip650)" style="stroke:#000000; stroke-linecap:butt; stroke-linejoin:round; stroke-width:4; stroke-opacity:1; fill:none" points="
  1872.76,1872.76 1872.76,47.2441 
  "/>
<polyline clip-path="url(#clip652)" style="stroke:#000000; stroke-linecap:butt; stroke-linejoin:round; stroke-width:4; stroke-opacity:1; fill:none" points="
  47.2441,1658.26 53.1866,1659.23 59.1292,1660.13 114.077,1665.04 169.024,1663.77 202.045,1660.03 235.066,1654.05 262.985,1647.26 290.904,1638.86 351.559,1615.13 
  407.478,1586.57 437.454,1568.62 467.429,1548.83 502.159,1523.6 536.889,1495.9 598.616,1440.57 652.745,1385.63 711.76,1318.88 771.126,1244.54 803.945,1200.35 
  836.763,1153.95 867.989,1107.75 899.215,1059.55 964.15,952.927 1018.81,856.477 1052.18,794.591 1085.55,730.423 1116.11,669.64 1146.68,606.942 1203.14,486.096 
  1260.34,357.024 1324.44,204.407 1382.52,58.8406 1415.77,-27.6019 1449.02,-116.31 1479.81,-200.465 1510.6,-286.562 1571.3,-462.014 1630.24,-639.588 1660.45,-733.365 
  1690.66,-829.012 1723.76,-935.951 1756.86,-1045.13 1804.95,-1207.74 1853.03,-1375.08 1862.89,-1410 1872.76,-1445.11 
  "/>
<polyline clip-path="url(#clip652)" style="stroke:#000000; stroke-linecap:butt; stroke-linejoin:round; stroke-width:4; stroke-opacity:1; fill:none" points="
  130.222,1936.21 130.222,-992.419 
  "/>
<polyline clip-path="url(#clip652)" style="stroke:#000000; stroke-linecap:butt; stroke-linejoin:round; stroke-width:4; stroke-opacity:1; fill:none" points="
  -845.988,960 2082.64,960 
  "/>
<polyline clip-path="url(#clip652)" style="stroke:#ff0000; stroke-linecap:butt; stroke-linejoin:round; stroke-width:4; stroke-opacity:1; fill:none" points="
  609.295,960 2082.64,960 
  "/>
<circle clip-path="url(#clip652)" cx="545.111" cy="960" r="14" fill="#ac8d18" fill-rule="evenodd" fill-opacity="1" stroke="#000000" stroke-opacity="1" stroke-width="3.84"/>
<polyline clip-path="url(#clip652)" style="stroke:#000000; stroke-linecap:butt; stroke-linejoin:round; stroke-width:4; stroke-opacity:1; fill:none" points="
  545.111,960 545.111,1488.98 
  "/>
<polyline clip-path="url(#clip652)" style="stroke:#000000; stroke-linecap:butt; stroke-linejoin:round; stroke-width:4; stroke-opacity:1; fill:none" points="
  559.511,1460.18 545.111,1488.98 530.711,1460.18 
  "/>
<polyline clip-path="url(#clip652)" style="stroke:#000000; stroke-linecap:butt; stroke-linejoin:round; stroke-width:4; stroke-opacity:1; fill:none" points="
  545.111,1488.98 545.111,960 
  "/>
<polyline clip-path="url(#clip652)" style="stroke:#000000; stroke-linecap:butt; stroke-linejoin:round; stroke-width:4; stroke-opacity:1; fill:none" points="
  545.111,1488.98 1167.44,960 
  "/>
<polyline clip-path="url(#clip652)" style="stroke:#000000; stroke-linecap:butt; stroke-linejoin:round; stroke-width:4; stroke-opacity:1; fill:none" points="
  1136.17,967.68 1167.44,960 1154.83,989.624 
  "/>
<polyline clip-path="url(#clip652)" style="stroke:#000000; stroke-linecap:butt; stroke-linejoin:round; stroke-width:4; stroke-opacity:1; fill:none" points="
  1167.44,960 545.111,1488.98 
  "/>
<polyline clip-path="url(#clip652)" style="stroke:#000000; stroke-linecap:butt; stroke-linejoin:round; stroke-width:4; stroke-opacity:1; fill:none" points="
  1167.44,960 1167.44,563.262 
  "/>
<polyline clip-path="url(#clip652)" style="stroke:#000000; stroke-linecap:butt; stroke-linejoin:round; stroke-width:4; stroke-opacity:1; fill:none" points="
  1153.04,592.062 1167.44,563.262 1181.84,592.062 
  "/>
<polyline clip-path="url(#clip652)" style="stroke:#000000; stroke-linecap:butt; stroke-linejoin:round; stroke-width:4; stroke-opacity:1; fill:none" points="
  1167.44,563.262 1167.44,960 
  "/>
<polyline clip-path="url(#clip652)" style="stroke:#000000; stroke-linecap:butt; stroke-linejoin:round; stroke-width:4; stroke-opacity:1; fill:none" points="
  1167.44,563.262 980.744,960 
  "/>
<polyline clip-path="url(#clip652)" style="stroke:#000000; stroke-linecap:butt; stroke-linejoin:round; stroke-width:4; stroke-opacity:1; fill:none" points="
  1006.04,940.073 980.744,960 979.978,927.81 
  "/>
<polyline clip-path="url(#clip652)" style="stroke:#000000; stroke-linecap:butt; stroke-linejoin:round; stroke-width:4; stroke-opacity:1; fill:none" points="
  980.744,960 1167.44,563.262 
  "/>
<path clip-path="url(#clip650)" d="M1089.67 407.443 Q1089.67 409.698 1088.23 411.091 Q1086.84 412.485 1085.08 412.485 Q1083.81 412.485 1082.86 411.706 Q1081.96 410.927 1081.96 409.575 Q1081.96 408.181 1083.03 406.706 Q1084.09 405.23 1086.51 405.025 Q1084.91 403.508 1082.37 403.508 Q1081.1 403.508 1080.03 404.328 Q1079.01 405.107 1078.44 406.378 Q1077.82 407.689 1076.43 415.108 Q1075.98 417.527 1075.57 419.863 Q1075.16 422.2 1074.66 424.659 L1081.63 424.659 Q1082.53 424.659 1082.9 424.7 Q1083.27 424.741 1083.56 424.946 Q1083.89 425.151 1083.89 425.602 Q1083.89 426.749 1083.35 427.036 Q1082.86 427.282 1081.39 427.282 L1074.17 427.282 L1069.13 453.884 Q1069.01 454.663 1068.48 457.122 Q1067.98 459.541 1066.8 463.517 Q1065.61 467.534 1064.42 469.911 Q1063.76 471.264 1062.9 472.534 Q1062.08 473.846 1060.89 475.158 Q1059.7 476.469 1058.15 477.248 Q1056.59 478.068 1054.95 478.068 Q1052.16 478.068 1049.99 476.51 Q1047.82 474.953 1047.82 472.288 Q1047.82 470.034 1049.21 468.64 Q1050.65 467.247 1052.41 467.247 Q1053.68 467.247 1054.58 468.026 Q1055.52 468.804 1055.52 470.157 Q1055.52 470.731 1055.32 471.387 Q1055.11 472.042 1054.66 472.78 Q1054.21 473.559 1053.23 474.092 Q1052.24 474.625 1050.89 474.707 Q1052.49 476.223 1054.95 476.223 Q1055.73 476.223 1056.42 475.895 Q1057.12 475.609 1057.7 474.871 Q1058.31 474.133 1058.76 473.395 Q1059.21 472.698 1059.66 471.346 Q1060.11 470.034 1060.4 469.05 Q1060.69 468.067 1061.06 466.304 Q1061.47 464.541 1061.67 463.476 Q1061.88 462.451 1062.25 460.443 L1068.52 427.282 L1062.98 427.282 Q1062 427.282 1061.59 427.241 Q1061.22 427.2 1060.93 426.995 Q1060.65 426.749 1060.65 426.257 Q1060.65 425.479 1060.97 425.151 Q1061.34 424.782 1061.75 424.741 Q1062.16 424.659 1063.15 424.659 L1068.97 424.659 Q1070.93 414.289 1071.71 411.501 Q1072.62 408.55 1074.01 406.501 Q1075.4 404.41 1076.96 403.426 Q1078.52 402.443 1079.79 402.074 Q1081.1 401.664 1082.37 401.664 Q1085.24 401.664 1087.45 403.221 Q1089.67 404.738 1089.67 407.443 Z" fill="#000000" fill-rule="evenodd" fill-opacity="1" /><path clip-path="url(#clip650)" d="M1100.97 439.866 Q1100.97 425.684 1106.25 414.248 Q1108.51 409.452 1111.66 405.435 Q1114.82 401.418 1116.91 399.655 Q1119 397.893 1119.57 397.893 Q1120.39 397.893 1120.44 398.713 Q1120.44 399.123 1119.33 400.147 Q1105.8 413.92 1105.84 439.866 Q1105.84 465.894 1119 479.134 Q1120.44 480.568 1120.44 481.019 Q1120.44 481.839 1119.57 481.839 Q1119 481.839 1116.99 480.158 Q1114.98 478.478 1111.87 474.625 Q1108.75 470.772 1106.5 466.058 Q1100.97 454.622 1100.97 439.866 Z" fill="#000000" fill-rule="evenodd" fill-opacity="1" /><path clip-path="url(#clip650)" d="M1168.62 429.291 Q1168.62 431.586 1167.19 432.898 Q1165.75 434.168 1164.11 434.168 Q1162.56 434.168 1161.74 433.267 Q1160.92 432.365 1160.92 431.217 Q1160.92 429.66 1162.06 428.307 Q1163.21 426.954 1164.93 426.667 Q1163.25 425.602 1160.75 425.602 Q1159.11 425.602 1157.68 426.462 Q1156.28 427.323 1155.42 428.43 Q1154.6 429.537 1153.87 431.135 Q1153.17 432.693 1152.88 433.636 Q1152.64 434.537 1152.43 435.521 L1149.56 446.998 Q1148.17 452.45 1148.17 454.376 Q1148.17 456.753 1149.32 458.352 Q1150.46 459.91 1152.76 459.91 Q1153.66 459.91 1154.69 459.664 Q1155.71 459.377 1157.02 458.639 Q1158.38 457.86 1159.56 456.712 Q1160.79 455.524 1161.98 453.515 Q1163.17 451.507 1163.95 448.925 Q1164.2 448.023 1165.02 448.023 Q1166.04 448.023 1166.04 448.843 Q1166.04 449.539 1165.47 451.015 Q1164.93 452.45 1163.74 454.335 Q1162.6 456.18 1161.08 457.86 Q1159.56 459.5 1157.31 460.647 Q1155.05 461.795 1152.6 461.795 Q1149.07 461.795 1146.73 459.91 Q1144.4 458.024 1143.54 455.401 Q1143.33 455.77 1143.05 456.262 Q1142.76 456.753 1141.9 457.86 Q1141.08 458.926 1140.13 459.746 Q1139.19 460.524 1137.72 461.139 Q1136.28 461.795 1134.72 461.795 Q1132.76 461.795 1130.99 461.221 Q1129.27 460.647 1128.04 459.336 Q1126.81 458.024 1126.81 456.221 Q1126.81 454.212 1128.17 452.818 Q1129.56 451.384 1131.45 451.384 Q1132.63 451.384 1133.58 452.081 Q1134.56 452.778 1134.56 454.294 Q1134.56 455.975 1133.41 457.245 Q1132.26 458.516 1130.63 458.844 Q1132.31 459.91 1134.81 459.91 Q1137.51 459.91 1139.64 457.532 Q1141.77 455.155 1142.8 451.179 Q1145.34 441.628 1146.32 437.366 Q1147.31 433.062 1147.31 431.217 Q1147.31 429.496 1146.86 428.307 Q1146.41 427.118 1145.63 426.585 Q1144.89 426.012 1144.19 425.807 Q1143.54 425.602 1142.8 425.602 Q1141.57 425.602 1140.18 426.093 Q1138.82 426.585 1137.18 427.733 Q1135.58 428.84 1134.07 431.135 Q1132.55 433.431 1131.53 436.587 Q1131.32 437.529 1130.42 437.529 Q1129.44 437.489 1129.44 436.669 Q1129.44 435.972 1129.97 434.537 Q1130.54 433.062 1131.69 431.217 Q1132.88 429.373 1134.4 427.733 Q1135.95 426.052 1138.21 424.905 Q1140.5 423.757 1142.96 423.757 Q1144.07 423.757 1145.14 424.003 Q1146.24 424.208 1147.55 424.823 Q1148.91 425.438 1150.1 426.79 Q1151.28 428.143 1152.02 430.11 Q1152.51 429.168 1153.17 428.266 Q1153.87 427.364 1154.93 426.257 Q1156.04 425.11 1157.56 424.454 Q1159.11 423.757 1160.83 423.757 Q1162.51 423.757 1164.15 424.208 Q1165.79 424.618 1167.19 425.971 Q1168.62 427.282 1168.62 429.291 Z" fill="#000000" fill-rule="evenodd" fill-opacity="1" /><path clip-path="url(#clip650)" d="M1176.7 481.019 Q1176.7 480.609 1177.77 479.584 Q1191.29 465.812 1191.29 439.866 Q1191.29 413.838 1178.3 400.68 Q1176.7 399.164 1176.7 398.713 Q1176.7 397.893 1177.52 397.893 Q1178.1 397.893 1180.1 399.573 Q1182.15 401.254 1185.23 405.107 Q1188.34 408.96 1190.64 413.674 Q1196.17 425.11 1196.17 439.866 Q1196.17 454.048 1190.88 465.484 Q1188.63 470.28 1185.47 474.297 Q1182.32 478.314 1180.23 480.076 Q1178.14 481.839 1177.52 481.839 Q1176.7 481.839 1176.7 481.019 Z" fill="#000000" fill-rule="evenodd" fill-opacity="1" /></svg>
