<?xml version="1.0" encoding="utf-8"?>
<svg xmlns="http://www.w3.org/2000/svg" xmlns:xlink="http://www.w3.org/1999/xlink" width="800" height="800" viewBox="0 0 3200 3200">
<defs>
  <clipPath id="clip880">
    <rect x="0" y="0" width="3200" height="3200"/>
  </clipPath>
</defs>
<path clip-path="url(#clip880)" d="
M0 3200 L3200 3200 L3200 0 L0 0  Z
  " fill="#ffffff" fill-rule="evenodd" fill-opacity="1"/>
<defs>
  <clipPath id="clip881">
    <rect x="640" y="320" width="2241" height="2241"/>
  </clipPath>
</defs>
<path clip-path="url(#clip880)" d="
M47.2441 3152.76 L3152.76 3152.76 L3152.76 47.2441 L47.2441 47.2441  Z
  " fill="#ffffff" fill-rule="evenodd" fill-opacity="1"/>
<defs>
  <clipPath id="clip882">
    <rect x="47" y="47" width="3107" height="3107"/>
  </clipPath>
</defs>
<polyline clip-path="url(#clip880)" style="stroke:#000000; stroke-linecap:butt; stroke-linejoin:round; stroke-width:4; stroke-opacity:1; fill:none" points="
  47.2441,3152.76 3152.76,3152.76 
  "/>
<polyline clip-path="url(#clip880)" style="stroke:#000000; stroke-linecap:butt; stroke-linejoin:round; stroke-width:4; stroke-opacity:1; fill:none" points="
  47.2441,47.2441 3152.76,47.2441 
  "/>
<polyline clip-path="url(#clip880)" style="stroke:#000000; stroke-linecap:butt; stroke-linejoin:round; stroke-width:4; stroke-opacity:1; fill:none" points="
  47.2441,3152.76 47.2441,47.2441 
  "/>
<polyline clip-path="url(#clip880)" style="stroke:#000000; stroke-linecap:butt; stroke-linejoin:round; stroke-width:4; stroke-opacity:1; fill:none" points="
  3152.76,3152.76 3152.76,47.2441 
  "/>
<polyline clip-path="url(#clip882)" style="stroke:#000000; stroke-linecap:butt; stroke-linejoin:round; stroke-width:4; stroke-opacity:1; fill:none" points="
  2726.82,1600 2724.59,1529.25 2717.93,1458.77 2706.86,1388.86 2691.42,1319.77 2671.67,1251.79 2647.69,1185.19 2619.58,1120.22 2587.44,1057.15 2551.4,996.22 
  2511.62,937.673 2468.23,881.739 2421.42,828.64 2371.36,778.585 2318.26,731.771 2262.33,688.385 2203.78,648.596 2142.85,612.561 2079.78,580.424 2014.81,552.311 
  1948.21,528.332 1880.23,508.583 1811.14,493.141 1741.23,482.067 1670.75,475.405 1600,473.181 1529.25,475.405 1458.77,482.067 1388.86,493.141 1319.77,508.583 
  1251.79,528.332 1185.19,552.311 1120.22,580.424 1057.15,612.561 996.22,648.596 937.673,688.385 881.739,731.771 828.64,778.585 778.585,828.64 731.771,881.739 
  688.385,937.673 648.596,996.22 612.561,1057.15 580.424,1120.22 552.311,1185.19 528.332,1251.79 508.583,1319.77 493.141,1388.86 482.067,1458.77 475.405,1529.25 
  473.181,1600 475.405,1670.75 482.067,1741.23 493.141,1811.14 508.583,1880.23 528.332,1948.21 552.311,2014.81 580.424,2079.78 612.561,2142.85 648.596,2203.78 
  688.385,2262.33 731.771,2318.26 778.585,2371.36 828.64,2421.42 881.739,2468.23 937.673,2511.62 996.22,2551.4 1057.15,2587.44 1120.22,2619.58 1185.19,2647.69 
  1251.79,2671.67 1319.77,2691.42 1388.86,2706.86 1458.77,2717.93 1529.25,2724.59 1600,2726.82 1670.75,2724.59 1741.23,2717.93 1811.14,2706.86 1880.23,2691.42 
  1948.21,2671.67 2014.81,2647.69 2079.78,2619.58 2142.85,2587.44 2203.78,2551.4 2262.33,2511.62 2318.26,2468.23 2371.36,2421.42 2421.42,2371.36 2468.23,2318.26 
  2511.62,2262.33 2551.4,2203.78 2587.44,2142.85 2619.58,2079.78 2647.69,2014.81 2671.67,1948.21 2691.42,1880.23 2706.86,1811.14 2717.93,1741.23 2724.59,1670.75 
  2726.82,1600 
  "/>
<polyline clip-path="url(#clip882)" style="stroke:#000000; stroke-linecap:butt; stroke-linejoin:round; stroke-width:4; stroke-opacity:1; fill:none" points="
  1461.34,4529.73 1461.34,-1329.73 
  "/>
<polyline clip-path="url(#clip882)" style="stroke:#000000; stroke-linecap:butt; stroke-linejoin:round; stroke-width:4; stroke-opacity:1; fill:none" points="
  -1468.38,1600 4391.07,1600 
  "/>
<polyline clip-path="url(#clip882)" style="stroke:#000000; stroke-linecap:butt; stroke-linejoin:round; stroke-width:4; stroke-opacity:1; fill:none" points="
  2671.67,1251.79 2376.63,1272.26 2139.22,1287.69 1894.33,1296.22 1517.96,1589.95 1798.04,1545.93 1811.55,1600.27 1807.98,1599.98 1807.98,1600 1807.98,1600 
  
  "/>
<polyline clip-path="url(#clip882)" style="stroke:#000000; stroke-linecap:butt; stroke-linejoin:round; stroke-width:4; stroke-opacity:1; fill:none" points="
  1600,473.181 1650.82,684.701 1715.94,878.96 1849.22,1049.93 2209.25,906.922 2018.47,951.408 1977.48,906.304 1981.3,906.74 1981.3,906.72 1981.3,906.72 
  
  "/>
<polyline clip-path="url(#clip882)" style="stroke:#000000; stroke-linecap:butt; stroke-linejoin:round; stroke-width:4; stroke-opacity:1; fill:none" points="
  528.332,1251.79 753.99,1314.32 928.035,1352.1 1068.71,1348.96 1150.33,1278.99 1097.91,1261.05 1114.89,1253 1114.7,1253.36 1114.7,1253.36 1114.7,1253.36 
  
  "/>
<polyline clip-path="url(#clip882)" style="stroke:#000000; stroke-linecap:butt; stroke-linejoin:round; stroke-width:4; stroke-opacity:1; fill:none" points="
  937.673,2511.62 1079.8,2318.11 1163.74,2147.83 1185.69,2006.84 1138.89,1931.33 1104.05,1948.68 1114.75,1947.16 1114.7,1946.64 1114.7,1946.64 1114.7,1946.64 
  
  "/>
<polyline clip-path="url(#clip882)" style="stroke:#000000; stroke-linecap:butt; stroke-linejoin:round; stroke-width:4; stroke-opacity:1; fill:none" points="
  2262.33,2511.62 2138.76,2410.6 2053.06,2333.42 2002.05,2298.05 1983.57,2292.81 1981.54,2292.94 1981.32,2293.26 1981.3,2293.28 1981.3,2293.28 1981.3,2293.28 
  
  "/>
<circle clip-path="url(#clip882)" cx="2671.67" cy="1251.79" r="14" fill="#00a98d" fill-rule="evenodd" fill-opacity="1" stroke="#000000" stroke-opacity="1" stroke-width="6.4"/>
<circle clip-path="url(#clip882)" cx="1600" cy="473.181" r="14" fill="#00a98d" fill-rule="evenodd" fill-opacity="1" stroke="#000000" stroke-opacity="1" stroke-width="6.4"/>
<circle clip-path="url(#clip882)" cx="528.332" cy="1251.79" r="14" fill="#00a98d" fill-rule="evenodd" fill-opacity="1" stroke="#000000" stroke-opacity="1" stroke-width="6.4"/>
<circle clip-path="url(#clip882)" cx="937.673" cy="2511.62" r="14" fill="#00a98d" fill-rule="evenodd" fill-opacity="1" stroke="#000000" stroke-opacity="1" stroke-width="6.4"/>
<circle clip-path="url(#clip882)" cx="2262.33" cy="2511.62" r="14" fill="#00a98d" fill-rule="evenodd" fill-opacity="1" stroke="#000000" stroke-opacity="1" stroke-width="6.4"/>
<circle clip-path="url(#clip882)" cx="1807.98" cy="1600" r="14" fill="#8e971d" fill-rule="evenodd" fill-opacity="1" stroke="#000000" stroke-opacity="1" stroke-width="6.4"/>
<circle clip-path="url(#clip882)" cx="1981.3" cy="906.72" r="14" fill="#8e971d" fill-rule="evenodd" fill-opacity="1" stroke="#000000" stroke-opacity="1" stroke-width="6.4"/>
<circle clip-path="url(#clip882)" cx="1114.7" cy="1253.36" r="14" fill="#8e971d" fill-rule="evenodd" fill-opacity="1" stroke="#000000" stroke-opacity="1" stroke-width="6.4"/>
<circle clip-path="url(#clip882)" cx="1114.7" cy="1946.64" r="14" fill="#8e971d" fill-rule="evenodd" fill-opacity="1" stroke="#000000" stroke-opacity="1" stroke-width="6.4"/>
<circle clip-path="url(#clip882)" cx="1981.3" cy="2293.28" r="14" fill="#8e971d" fill-rule="evenodd" fill-opacity="1" stroke="#000000" stroke-opacity="1" stroke-width="6.4"/>
<path clip-path="url(#clip880)" d="M1487.72 213.373 L1487.72 210.791 L1489.93 210.791 Q1494.64 210.791 1495.71 210.053 Q1496.82 209.274 1496.82 206.815 L1496.82 162.587 Q1496.82 160.169 1495.71 159.431 Q1494.6 158.653 1489.93 158.653 L1487.72 158.653 L1487.72 156.029 Q1490.67 156.275 1500.59 156.275 Q1510.42 156.275 1513.33 156.029 L1513.33 158.653 L1511.16 158.653 Q1506.45 158.653 1505.34 159.431 Q1504.28 160.169 1504.28 162.587 L1504.28 206.815 Q1504.28 209.233 1505.34 210.012 Q1506.45 210.791 1511.16 210.791 L1513.33 210.791 L1513.33 213.373 Q1510.38 213.127 1500.5 213.127 Q1490.67 213.127 1487.72 213.373 Z" fill="#000000" fill-rule="evenodd" fill-opacity="1" /><path clip-path="url(#clip880)" d="M1524.44 213.373 L1524.44 210.791 Q1528.91 210.791 1529.93 210.258 Q1530.96 209.684 1530.96 206.979 L1530.96 184.476 Q1530.96 181.361 1529.85 180.582 Q1528.78 179.803 1524.44 179.803 L1524.44 177.18 L1536.24 176.278 L1536.24 185.091 Q1540.18 176.278 1548.66 176.278 Q1558.5 176.278 1559.85 184.476 Q1561.29 181.279 1564.28 178.778 Q1567.31 176.278 1572.03 176.278 Q1578.34 176.278 1580.84 179.393 Q1582.68 181.484 1583.05 183.82 Q1583.42 186.156 1583.42 192.223 L1583.42 208.25 Q1583.5 210.012 1584.86 210.422 Q1586.21 210.791 1589.98 210.791 L1589.98 213.373 Q1581.41 213.127 1580.59 213.127 Q1579.94 213.127 1571.08 213.373 L1571.08 210.791 Q1575.55 210.791 1576.58 210.258 Q1577.64 209.684 1577.64 206.979 L1577.64 187.427 Q1577.64 183.164 1576.33 180.664 Q1575.02 178.122 1571.41 178.122 Q1567.07 178.122 1563.58 181.77 Q1560.1 185.419 1560.1 191.567 L1560.1 206.979 Q1560.1 209.684 1561.12 210.258 Q1562.19 210.791 1566.66 210.791 L1566.66 213.373 Q1558.09 213.127 1557.23 213.127 Q1556.57 213.127 1547.76 213.373 L1547.76 210.791 Q1552.23 210.791 1553.25 210.258 Q1554.32 209.684 1554.32 206.979 L1554.32 187.427 Q1554.32 183.164 1553.01 180.664 Q1551.7 178.122 1548.09 178.122 Q1543.74 178.122 1540.26 181.77 Q1536.78 185.419 1536.78 191.567 L1536.78 206.979 Q1536.78 209.684 1537.8 210.258 Q1538.87 210.791 1543.29 210.791 L1543.29 213.373 Q1534.73 213.127 1533.91 213.127 Q1533.25 213.127 1524.44 213.373 Z" fill="#000000" fill-rule="evenodd" fill-opacity="1" /><path clip-path="url(#clip880)" d="M1593.66 192.387 Q1593.66 178.204 1598.95 166.768 Q1601.2 161.973 1604.36 157.956 Q1607.51 153.939 1609.6 152.176 Q1611.69 150.414 1612.27 150.414 Q1613.09 150.414 1613.13 151.233 Q1613.13 151.643 1612.02 152.668 Q1598.5 166.44 1598.54 192.387 Q1598.54 218.415 1611.69 231.654 Q1613.13 233.089 1613.13 233.54 Q1613.13 234.36 1612.27 234.36 Q1611.69 234.36 1609.69 232.679 Q1607.68 230.999 1604.56 227.146 Q1601.45 223.293 1599.19 218.579 Q1593.66 207.143 1593.66 192.387 Z" fill="#000000" fill-rule="evenodd" fill-opacity="1" /><path clip-path="url(#clip880)" d="M1656.77 177.098 Q1656.77 177.385 1656.07 178.614 Q1655.42 179.803 1653 182.795 Q1650.58 185.787 1646.97 189.271 Q1645.62 190.624 1643.57 192.51 Q1641.52 194.395 1640.13 195.625 L1638.73 196.855 Q1633.4 201.363 1628.73 206.405 Q1629.06 206.282 1629.63 206.241 Q1630.21 206.159 1630.62 206.159 L1631.03 206.159 Q1633.16 206.159 1636.89 207.594 Q1640.17 208.659 1641.85 208.659 Q1643.49 208.659 1645.29 208.086 Q1647.09 207.512 1649.06 205.831 Q1651.03 204.151 1651.93 201.609 Q1652.1 201.199 1652.18 201.076 Q1652.26 200.912 1652.51 200.748 Q1652.75 200.544 1653.08 200.544 Q1653.53 200.544 1653.82 200.789 Q1654.1 201.035 1654.1 201.363 Q1654.1 202.101 1653.53 203.577 Q1653 205.052 1651.81 206.897 Q1650.66 208.741 1649.14 210.422 Q1647.67 212.062 1645.46 213.209 Q1643.24 214.316 1640.91 214.316 Q1639.22 214.316 1638 213.496 Q1636.77 212.717 1635.54 211.201 Q1633.86 209.274 1632.95 208.659 Q1632.05 208.004 1630.66 208.004 Q1626.93 208.004 1623.53 213.209 Q1623.16 213.947 1622.91 214.111 Q1622.71 214.316 1622.21 214.316 Q1621.19 214.275 1621.19 213.455 Q1621.19 213.127 1622.09 211.693 Q1623.03 210.217 1625.12 207.635 Q1627.26 205.052 1629.84 202.47 L1637.38 195.42 Q1645.74 188.37 1649.06 184.394 Q1647.67 184.394 1647.05 184.353 Q1646.48 184.312 1645.33 184.066 Q1644.18 183.779 1642.59 183.164 Q1638.86 181.893 1637.3 181.893 Q1636.89 181.893 1636.44 181.934 Q1635.99 181.975 1634.96 182.18 Q1633.98 182.385 1633.16 182.795 Q1632.34 183.164 1631.48 183.984 Q1630.62 184.763 1630.17 185.828 Q1630.04 186.156 1629.96 186.32 Q1629.88 186.484 1629.63 186.648 Q1629.43 186.771 1629.1 186.771 Q1628.61 186.771 1628.32 186.484 Q1628.08 186.197 1628.08 185.828 Q1628.08 185.091 1628.81 183.574 Q1629.55 182.057 1630.78 180.418 Q1632.01 178.737 1634.02 177.508 Q1636.03 176.278 1638.24 176.278 Q1639.55 176.278 1640.66 176.852 Q1641.81 177.426 1642.38 178.04 Q1643 178.614 1644.02 179.885 Q1644.88 180.869 1645.29 181.279 Q1645.7 181.688 1646.52 182.139 Q1647.38 182.549 1648.32 182.549 Q1649.88 182.549 1651.32 181.361 Q1652.75 180.131 1654.6 177.18 Q1655.09 176.278 1655.87 176.278 Q1656.77 176.278 1656.77 177.098 Z" fill="#000000" fill-rule="evenodd" fill-opacity="1" /><path clip-path="url(#clip880)" d="M1664.88 233.54 Q1664.88 233.13 1665.95 232.105 Q1679.47 218.333 1679.47 192.387 Q1679.47 166.358 1666.48 153.201 Q1664.88 151.684 1664.88 151.233 Q1664.88 150.414 1665.7 150.414 Q1666.27 150.414 1668.28 152.094 Q1670.33 153.775 1673.41 157.628 Q1676.52 161.481 1678.82 166.195 Q1684.35 177.631 1684.35 192.387 Q1684.35 206.569 1679.06 218.005 Q1676.81 222.801 1673.65 226.818 Q1670.49 230.835 1668.4 232.597 Q1666.31 234.36 1665.7 234.36 Q1664.88 234.36 1664.88 233.54 Z" fill="#000000" fill-rule="evenodd" fill-opacity="1" /><path clip-path="url(#clip880)" d="M2862.98 1587.52 L2862.98 1584.93 L2864.99 1584.93 Q2869.54 1584.93 2870.56 1584.2 Q2871.63 1583.42 2871.63 1580.96 L2871.63 1536.73 Q2871.63 1534.31 2870.56 1533.58 Q2869.49 1532.8 2864.99 1532.8 L2862.98 1532.8 L2862.98 1530.17 L2889.33 1530.17 Q2898.47 1530.17 2904.83 1534.68 Q2911.22 1539.15 2911.22 1545.3 Q2911.22 1550.01 2907.08 1553.7 Q2902.94 1557.39 2896.55 1558.99 Q2904.87 1561.86 2906.8 1568.7 L2907.86 1575.43 Q2908.19 1577.84 2908.39 1579.07 Q2908.64 1580.3 2909.01 1581.98 Q2909.38 1583.66 2909.75 1584.48 Q2910.16 1585.26 2910.73 1586.12 Q2911.3 1586.94 2912.04 1587.23 Q2912.82 1587.52 2913.85 1587.52 Q2915.77 1587.52 2917.41 1585.8 Q2919.05 1584.07 2919.38 1580.06 Q2919.54 1578.7 2920.4 1578.7 Q2921.47 1578.7 2921.47 1580.06 Q2921.47 1581.25 2921.14 1582.64 Q2920.81 1583.99 2919.99 1585.59 Q2919.21 1587.19 2917.49 1588.26 Q2915.77 1589.36 2913.52 1589.36 Q2906.96 1589.36 2902.94 1585.84 Q2901.26 1584.32 2900.48 1582.35 Q2899.75 1580.39 2899.62 1578.83 Q2899.5 1577.27 2899.5 1573.83 Q2899.5 1568.95 2898.97 1566.82 Q2898.47 1564.69 2896.3 1562.6 Q2893.35 1559.73 2888.47 1559.73 L2878.84 1559.73 L2878.84 1580.96 Q2878.84 1583.38 2879.87 1584.16 Q2880.93 1584.93 2885.48 1584.93 L2887.49 1584.93 L2887.49 1587.52 Q2884.46 1587.27 2875.23 1587.27 Q2866.01 1587.27 2862.98 1587.52 M2878.84 1557.88 L2888.15 1557.88 Q2892.61 1557.88 2895.61 1556.82 Q2898.64 1555.71 2900.07 1553.74 Q2901.51 1551.77 2902.04 1549.81 Q2902.57 1547.8 2902.57 1545.3 Q2902.57 1542.35 2901.92 1540.13 Q2901.26 1537.92 2899.83 1536.61 Q2898.39 1535.3 2896.96 1534.48 Q2895.52 1533.62 2893.31 1533.29 Q2891.1 1532.96 2889.58 1532.88 Q2888.06 1532.8 2885.64 1532.8 Q2881.55 1532.8 2880.69 1532.96 Q2879.74 1533.04 2879.37 1533.49 Q2879 1533.94 2878.92 1534.48 Q2878.84 1534.97 2878.84 1536.16 L2878.84 1557.88 Z" fill="#000000" fill-rule="evenodd" fill-opacity="1" /><path clip-path="url(#clip880)" d="M2924.5 1569.03 Q2924.5 1561.12 2929.59 1555.5 Q2934.67 1549.89 2941.97 1549.89 Q2949.34 1549.89 2953.16 1554.68 Q2957.01 1559.48 2957.01 1566.37 Q2957.01 1567.64 2956.68 1567.88 Q2956.35 1568.13 2954.92 1568.13 L2931.47 1568.13 Q2931.47 1576.7 2934.01 1580.71 Q2937.54 1586.33 2943.48 1586.33 Q2944.3 1586.33 2945.29 1586.16 Q2946.27 1586 2948.28 1585.3 Q2950.29 1584.57 2952.05 1582.64 Q2953.81 1580.71 2954.84 1577.68 Q2955.08 1576.49 2955.9 1576.53 Q2957.01 1576.53 2957.01 1577.52 Q2957.01 1578.25 2956.19 1579.93 Q2955.41 1581.57 2953.89 1583.54 Q2952.38 1585.51 2949.43 1586.98 Q2946.51 1588.46 2942.99 1588.46 Q2935.61 1588.46 2930.04 1582.89 Q2924.5 1577.27 2924.5 1569.03 M2931.55 1566.37 L2951.47 1566.37 Q2951.47 1564.6 2951.15 1562.64 Q2950.86 1560.67 2949.96 1557.96 Q2949.1 1555.22 2947.05 1553.5 Q2945 1551.77 2941.97 1551.77 Q2940.61 1551.77 2939.14 1552.35 Q2937.7 1552.92 2935.94 1554.32 Q2934.18 1555.71 2932.95 1558.87 Q2931.72 1562.02 2931.55 1566.37 Z" fill="#000000" fill-rule="evenodd" fill-opacity="1" /><path clip-path="url(#clip880)" d="M2961.41 1566.53 Q2961.41 1552.35 2966.7 1540.91 Q2968.95 1536.12 2972.11 1532.1 Q2975.26 1528.08 2977.35 1526.32 Q2979.44 1524.56 2980.02 1524.56 Q2980.84 1524.56 2980.88 1525.38 Q2980.88 1525.79 2979.77 1526.81 Q2966.24 1540.58 2966.29 1566.53 Q2966.29 1592.56 2979.44 1605.8 Q2980.88 1607.23 2980.88 1607.68 Q2980.88 1608.5 2980.02 1608.5 Q2979.44 1608.5 2977.43 1606.82 Q2975.43 1605.14 2972.31 1601.29 Q2969.2 1597.44 2966.94 1592.72 Q2961.41 1581.29 2961.41 1566.53 Z" fill="#000000" fill-rule="evenodd" fill-opacity="1" /><path clip-path="url(#clip880)" d="M3024.52 1551.24 Q3024.52 1551.53 3023.82 1552.76 Q3023.17 1553.95 3020.75 1556.94 Q3018.33 1559.93 3014.72 1563.42 Q3013.37 1564.77 3011.32 1566.65 Q3009.27 1568.54 3007.88 1569.77 L3006.48 1571 Q3001.15 1575.51 2996.48 1580.55 Q2996.81 1580.43 2997.38 1580.39 Q2997.96 1580.3 2998.37 1580.3 L2998.78 1580.3 Q3000.91 1580.3 3004.64 1581.74 Q3007.92 1582.8 3009.6 1582.8 Q3011.24 1582.8 3013.04 1582.23 Q3014.84 1581.66 3016.81 1579.98 Q3018.78 1578.29 3019.68 1575.75 Q3019.84 1575.34 3019.93 1575.22 Q3020.01 1575.06 3020.25 1574.89 Q3020.5 1574.69 3020.83 1574.69 Q3021.28 1574.69 3021.57 1574.93 Q3021.85 1575.18 3021.85 1575.51 Q3021.85 1576.25 3021.28 1577.72 Q3020.75 1579.2 3019.56 1581.04 Q3018.41 1582.89 3016.89 1584.57 Q3015.42 1586.21 3013.2 1587.35 Q3010.99 1588.46 3008.65 1588.46 Q3006.97 1588.46 3005.74 1587.64 Q3004.51 1586.86 3003.29 1585.34 Q3001.6 1583.42 3000.7 1582.8 Q2999.8 1582.15 2998.41 1582.15 Q2994.68 1582.15 2991.28 1587.35 Q2990.91 1588.09 2990.66 1588.26 Q2990.46 1588.46 2989.96 1588.46 Q2988.94 1588.42 2988.94 1587.6 Q2988.94 1587.27 2989.84 1585.84 Q2990.78 1584.36 2992.87 1581.78 Q2995.01 1579.2 2997.59 1576.61 L3005.13 1569.56 Q3013.49 1562.51 3016.81 1558.54 Q3015.42 1558.54 3014.8 1558.5 Q3014.23 1558.46 3013.08 1558.21 Q3011.93 1557.92 3010.34 1557.31 Q3006.61 1556.04 3005.05 1556.04 Q3004.64 1556.04 3004.19 1556.08 Q3003.74 1556.12 3002.71 1556.32 Q3001.73 1556.53 3000.91 1556.94 Q3000.09 1557.31 2999.23 1558.13 Q2998.37 1558.91 2997.92 1559.97 Q2997.79 1560.3 2997.71 1560.46 Q2997.63 1560.63 2997.38 1560.79 Q2997.18 1560.92 2996.85 1560.92 Q2996.36 1560.92 2996.07 1560.63 Q2995.83 1560.34 2995.83 1559.97 Q2995.83 1559.23 2996.56 1557.72 Q2997.3 1556.2 2998.53 1554.56 Q2999.76 1552.88 3001.77 1551.65 Q3003.78 1550.42 3005.99 1550.42 Q3007.3 1550.42 3008.41 1551 Q3009.56 1551.57 3010.13 1552.18 Q3010.75 1552.76 3011.77 1554.03 Q3012.63 1555.01 3013.04 1555.42 Q3013.45 1555.83 3014.27 1556.28 Q3015.13 1556.69 3016.07 1556.69 Q3017.63 1556.69 3019.07 1555.5 Q3020.5 1554.27 3022.35 1551.32 Q3022.84 1550.42 3023.62 1550.42 Q3024.52 1550.42 3024.52 1551.24 Z" fill="#000000" fill-rule="evenodd" fill-opacity="1" /><path clip-path="url(#clip880)" d="M3032.63 1607.68 Q3032.63 1607.27 3033.69 1606.25 Q3047.22 1592.48 3047.22 1566.53 Q3047.22 1540.5 3034.23 1527.34 Q3032.63 1525.83 3032.63 1525.38 Q3032.63 1524.56 3033.45 1524.56 Q3034.02 1524.56 3036.03 1526.24 Q3038.08 1527.92 3041.15 1531.77 Q3044.27 1535.62 3046.57 1540.34 Q3052.1 1551.77 3052.1 1566.53 Q3052.1 1580.71 3046.81 1592.15 Q3044.56 1596.94 3041.4 1600.96 Q3038.24 1604.98 3036.15 1606.74 Q3034.06 1608.5 3033.45 1608.5 Q3032.63 1608.5 3032.63 1607.68 Z" fill="#000000" fill-rule="evenodd" fill-opacity="1" /></svg>
