<?xml version="1.0" encoding="utf-8"?>
<svg xmlns="http://www.w3.org/2000/svg" xmlns:xlink="http://www.w3.org/1999/xlink" width="480" height="480" viewBox="0 0 1920 1920">
<defs>
  <clipPath id="clip470">
    <rect x="0" y="0" width="1920" height="1920"/>
  </clipPath>
</defs>
<path clip-path="url(#clip470)" d="
M0 1920 L1920 1920 L1920 0 L0 0  Z
  " fill="#ffffff" fill-rule="evenodd" fill-opacity="1"/>
<defs>
  <clipPath id="clip471">
    <rect x="384" y="192" width="1345" height="1345"/>
  </clipPath>
</defs>
<path clip-path="url(#clip470)" d="
M47.2441 1872.76 L1872.76 1872.76 L1872.76 47.2441 L47.2441 47.2441  Z
  " fill="#ffffff" fill-rule="evenodd" fill-opacity="1"/>
<defs>
  <clipPath id="clip472">
    <rect x="47" y="47" width="1827" height="1827"/>
  </clipPath>
</defs>
<polyline clip-path="url(#clip470)" style="stroke:#000000; stroke-linecap:butt; stroke-linejoin:round; stroke-width:4; stroke-opacity:1; fill:none" points="
  47.2441,1872.76 1872.76,1872.76 
  "/>
<polyline clip-path="url(#clip470)" style="stroke:#000000; stroke-linecap:butt; stroke-linejoin:round; stroke-width:4; stroke-opacity:1; fill:none" points="
  47.2441,47.2441 1872.76,47.2441 
  "/>
<polyline clip-path="url(#clip470)" style="stroke:#000000; stroke-linecap:butt; stroke-linejoin:round; stroke-width:4; stroke-opacity:1; fill:none" points="
  47.2441,1872.76 47.2441,47.2441 
  "/>
<polyline clip-path="url(#clip470)" style="stroke:#000000; stroke-linecap:butt; stroke-linejoin:round; stroke-width:4; stroke-opacity:1; fill:none" points="
  1872.76,1872.76 1872.76,47.2441 
  "/>
<polyline clip-path="url(#clip472)" style="stroke:#000000; stroke-linecap:butt; stroke-linejoin:round; stroke-width:4; stroke-opacity:1; fill:none" points="
  199.37,1796.69 199.37,123.307 
  "/>
<polyline clip-path="url(#clip472)" style="stroke:#000000; stroke-linecap:butt; stroke-linejoin:round; stroke-width:4; stroke-opacity:1; fill:none" points="
  123.307,1720.63 1796.69,1720.63 
  "/>
<polyline clip-path="url(#clip472)" style="stroke:#000000; stroke-linecap:butt; stroke-linejoin:round; stroke-width:4; stroke-opacity:1; fill:none" points="
  199.37,1720.63 1720.63,199.37 
  "/>
<polyline clip-path="url(#clip472)" style="stroke:#000000; stroke-linecap:butt; stroke-linejoin:round; stroke-width:4; stroke-opacity:1; fill:none" points="
  452.913,1720.63 1720.63,-180.945 
  "/>
<circle clip-path="url(#clip472)" cx="807.874" cy="1720.63" r="14" fill="#ac8d18" fill-rule="evenodd" fill-opacity="1" stroke="#000000" stroke-opacity="1" stroke-width="3.84"/>
<polyline clip-path="url(#clip472)" style="stroke:#000000; stroke-linecap:butt; stroke-linejoin:round; stroke-width:4; stroke-opacity:1; fill:none" points="
  807.874,1720.63 807.874,1188.19 
  "/>
<polyline clip-path="url(#clip472)" style="stroke:#000000; stroke-linecap:butt; stroke-linejoin:round; stroke-width:4; stroke-opacity:1; fill:none" points="
  793.474,1216.99 807.874,1188.19 822.274,1216.99 
  "/>
<polyline clip-path="url(#clip472)" style="stroke:#000000; stroke-linecap:butt; stroke-linejoin:round; stroke-width:4; stroke-opacity:1; fill:none" points="
  807.874,1188.19 807.874,1720.63 
  "/>
<polyline clip-path="url(#clip472)" style="stroke:#000000; stroke-linecap:butt; stroke-linejoin:round; stroke-width:4; stroke-opacity:1; fill:none" points="
  807.874,1188.19 731.811,1188.19 
  "/>
<polyline clip-path="url(#clip472)" style="stroke:#000000; stroke-linecap:butt; stroke-linejoin:round; stroke-width:4; stroke-opacity:1; fill:none" points="
  760.611,1202.59 731.811,1188.19 760.611,1173.79 
  "/>
<polyline clip-path="url(#clip472)" style="stroke:#000000; stroke-linecap:butt; stroke-linejoin:round; stroke-width:4; stroke-opacity:1; fill:none" points="
  731.811,1188.19 807.874,1188.19 
  "/>
<polyline clip-path="url(#clip472)" style="stroke:#000000; stroke-linecap:butt; stroke-linejoin:round; stroke-width:4; stroke-opacity:1; fill:none" points="
  731.811,1188.19 731.811,1302.28 
  "/>
<polyline clip-path="url(#clip472)" style="stroke:#000000; stroke-linecap:butt; stroke-linejoin:round; stroke-width:4; stroke-opacity:1; fill:none" points="
  746.211,1273.48 731.811,1302.28 717.411,1273.48 
  "/>
<polyline clip-path="url(#clip472)" style="stroke:#000000; stroke-linecap:butt; stroke-linejoin:round; stroke-width:4; stroke-opacity:1; fill:none" points="
  731.811,1302.28 731.811,1188.19 
  "/>
<polyline clip-path="url(#clip472)" style="stroke:#000000; stroke-linecap:butt; stroke-linejoin:round; stroke-width:4; stroke-opacity:1; fill:none" points="
  731.811,1302.28 617.717,1302.28 
  "/>
<polyline clip-path="url(#clip472)" style="stroke:#000000; stroke-linecap:butt; stroke-linejoin:round; stroke-width:4; stroke-opacity:1; fill:none" points="
  646.517,1316.68 617.717,1302.28 646.517,1287.88 
  "/>
<polyline clip-path="url(#clip472)" style="stroke:#000000; stroke-linecap:butt; stroke-linejoin:round; stroke-width:4; stroke-opacity:1; fill:none" points="
  617.717,1302.28 731.811,1302.28 
  "/>
<polyline clip-path="url(#clip472)" style="stroke:#000000; stroke-linecap:butt; stroke-linejoin:round; stroke-width:4; stroke-opacity:1; fill:none" points="
  617.717,1302.28 617.717,1473.43 
  "/>
<polyline clip-path="url(#clip472)" style="stroke:#000000; stroke-linecap:butt; stroke-linejoin:round; stroke-width:4; stroke-opacity:1; fill:none" points="
  632.117,1444.63 617.717,1473.43 603.317,1444.63 
  "/>
<polyline clip-path="url(#clip472)" style="stroke:#000000; stroke-linecap:butt; stroke-linejoin:round; stroke-width:4; stroke-opacity:1; fill:none" points="
  617.717,1473.43 617.717,1302.28 
  "/>
<polyline clip-path="url(#clip472)" style="stroke:#000000; stroke-linecap:butt; stroke-linejoin:round; stroke-width:4; stroke-opacity:1; fill:none" points="
  617.717,1473.43 446.575,1473.43 
  "/>
<polyline clip-path="url(#clip472)" style="stroke:#000000; stroke-linecap:butt; stroke-linejoin:round; stroke-width:4; stroke-opacity:1; fill:none" points="
  475.375,1487.83 446.575,1473.43 475.375,1459.03 
  "/>
<polyline clip-path="url(#clip472)" style="stroke:#000000; stroke-linecap:butt; stroke-linejoin:round; stroke-width:4; stroke-opacity:1; fill:none" points="
  446.575,1473.43 617.717,1473.43 
  "/>
<circle clip-path="url(#clip472)" cx="1112.13" cy="1720.63" r="14" fill="#9b7fe8" fill-rule="evenodd" fill-opacity="1" stroke="#000000" stroke-opacity="1" stroke-width="3.84"/>
<polyline clip-path="url(#clip472)" style="stroke:#000000; stroke-linecap:butt; stroke-linejoin:round; stroke-width:4; stroke-opacity:1; fill:none" points="
  1112.13,1720.63 1112.13,731.811 
  "/>
<polyline clip-path="url(#clip472)" style="stroke:#000000; stroke-linecap:butt; stroke-linejoin:round; stroke-width:4; stroke-opacity:1; fill:none" points="
  1097.73,760.611 1112.13,731.811 1126.53,760.611 
  "/>
<polyline clip-path="url(#clip472)" style="stroke:#000000; stroke-linecap:butt; stroke-linejoin:round; stroke-width:4; stroke-opacity:1; fill:none" points="
  1112.13,731.811 1112.13,1720.63 
  "/>
<polyline clip-path="url(#clip472)" style="stroke:#000000; stroke-linecap:butt; stroke-linejoin:round; stroke-width:4; stroke-opacity:1; fill:none" points="
  1112.13,731.811 1188.19,731.811 
  "/>
<polyline clip-path="url(#clip472)" style="stroke:#000000; stroke-linecap:butt; stroke-linejoin:round; stroke-width:4; stroke-opacity:1; fill:none" points="
  1159.39,717.411 1188.19,731.811 1159.39,746.211 
  "/>
<polyline clip-path="url(#clip472)" style="stroke:#000000; stroke-linecap:butt; stroke-linejoin:round; stroke-width:4; stroke-opacity:1; fill:none" points="
  1188.19,731.811 1112.13,731.811 
  "/>
<polyline clip-path="url(#clip472)" style="stroke:#000000; stroke-linecap:butt; stroke-linejoin:round; stroke-width:4; stroke-opacity:1; fill:none" points="
  1188.19,731.811 1188.19,617.717 
  "/>
<polyline clip-path="url(#clip472)" style="stroke:#000000; stroke-linecap:butt; stroke-linejoin:round; stroke-width:4; stroke-opacity:1; fill:none" points="
  1173.79,646.517 1188.19,617.717 1202.59,646.517 
  "/>
<polyline clip-path="url(#clip472)" style="stroke:#000000; stroke-linecap:butt; stroke-linejoin:round; stroke-width:4; stroke-opacity:1; fill:none" points="
  1188.19,617.717 1188.19,731.811 
  "/>
<polyline clip-path="url(#clip472)" style="stroke:#000000; stroke-linecap:butt; stroke-linejoin:round; stroke-width:4; stroke-opacity:1; fill:none" points="
  1188.19,617.717 1302.28,617.717 
  "/>
<polyline clip-path="url(#clip472)" style="stroke:#000000; stroke-linecap:butt; stroke-linejoin:round; stroke-width:4; stroke-opacity:1; fill:none" points="
  1273.48,603.317 1302.28,617.717 1273.48,632.117 
  "/>
<polyline clip-path="url(#clip472)" style="stroke:#000000; stroke-linecap:butt; stroke-linejoin:round; stroke-width:4; stroke-opacity:1; fill:none" points="
  1302.28,617.717 1188.19,617.717 
  "/>
<polyline clip-path="url(#clip472)" style="stroke:#000000; stroke-linecap:butt; stroke-linejoin:round; stroke-width:4; stroke-opacity:1; fill:none" points="
  1302.28,617.717 1302.28,446.575 
  "/>
<polyline clip-path="url(#clip472)" style="stroke:#000000; stroke-linecap:butt; stroke-linejoin:round; stroke-width:4; stroke-opacity:1; fill:none" points="
  1287.88,475.375 1302.28,446.575 1316.68,475.375 
  "/>
<polyline clip-path="url(#clip472)" style="stroke:#000000; stroke-linecap:butt; stroke-linejoin:round; stroke-width:4; stroke-opacity:1; fill:none" points="
  1302.28,446.575 1302.28,617.717 
  "/>
<polyline clip-path="url(#clip472)" style="stroke:#000000; stroke-linecap:butt; stroke-linejoin:round; stroke-width:4; stroke-opacity:1; fill:none" points="
  1302.28,446.575 1473.43,446.575 
  "/>
<polyline clip-path="url(#clip472)" style="stroke:#000000; stroke-linecap:butt; stroke-linejoin:round; stroke-width:4; stroke-opacity:1; fill:none" points="
  1444.63,432.175 1473.43,446.575 1444.63,460.975 
  "/>
<polyline clip-path="url(#clip472)" style="stroke:#000000; stroke-linecap:butt; stroke-linejoin:round; stroke-width:4; stroke-opacity:1; fill:none" points="
  1473.43,446.575 1302.28,446.575 
  "/>
<path clip-path="url(#clip470)" d="M1659.62 142.052 Q1659.62 142.626 1659.25 143.978 L1651.21 176.032 Q1649.45 183.164 1643.71 188.165 Q1638.02 193.165 1631.54 193.165 Q1627.64 193.165 1625.14 191.075 Q1622.64 189.025 1622.64 185.869 Q1622.64 183.082 1624.12 181.729 Q1625.6 180.418 1627.36 180.418 Q1627.93 180.418 1628.55 180.582 Q1629.16 180.746 1629.82 181.442 Q1630.47 182.139 1630.47 183.328 Q1630.47 185.254 1628.79 186.771 Q1627.97 187.468 1627.19 187.632 Q1626.46 187.796 1625.19 187.796 Q1625.68 188.943 1626.58 189.722 Q1627.48 190.501 1628.51 190.788 Q1629.53 191.116 1630.19 191.198 Q1630.88 191.321 1631.54 191.321 Q1636.79 191.321 1640.8 186.033 Q1641.99 184.435 1642.85 182.836 Q1643.75 181.278 1644.41 179.352 Q1645.07 177.466 1645.35 176.442 Q1645.68 175.417 1646.25 173.081 Q1642.44 176.893 1637.77 176.893 Q1635.8 176.893 1634.04 176.36 Q1632.32 175.827 1630.8 174.72 Q1629.28 173.572 1628.38 171.564 Q1627.52 169.556 1627.52 166.891 Q1627.52 164.063 1628.63 160.21 Q1629.74 156.357 1632.4 149.266 Q1633.83 145.29 1633.83 143.363 Q1633.83 142.421 1633.63 141.847 Q1633.42 141.232 1633.01 141.027 Q1632.6 140.781 1632.36 140.74 Q1632.15 140.699 1631.74 140.699 Q1629.33 140.699 1627.07 143.158 Q1624.82 145.618 1623.26 151.11 Q1622.93 152.135 1622.73 152.381 Q1622.52 152.627 1621.91 152.627 Q1620.88 152.586 1620.88 151.766 Q1620.88 151.438 1621.25 150.168 Q1621.62 148.856 1622.48 146.929 Q1623.38 144.962 1624.61 143.199 Q1625.84 141.396 1627.77 140.125 Q1629.74 138.855 1631.99 138.855 Q1635.06 138.855 1636.95 140.863 Q1638.88 142.83 1638.88 145.741 Q1638.88 146.929 1638.55 147.995 Q1638.26 149.02 1637.2 151.766 Q1632.89 162.833 1632.89 168.244 Q1632.89 169.556 1633.1 170.662 Q1633.34 171.728 1633.88 172.794 Q1634.41 173.818 1635.47 174.433 Q1636.58 175.007 1638.1 175.007 Q1640.02 175.007 1641.83 174.105 Q1643.67 173.163 1644.82 171.892 Q1646.01 170.621 1646.7 169.556 Q1647.44 168.449 1647.61 167.875 L1651.38 152.791 L1653.06 146.069 Q1653.84 142.421 1654.21 141.519 Q1654.7 140.658 1655.56 140.207 Q1656.42 139.756 1657.16 139.756 Q1658.18 139.756 1658.88 140.371 Q1659.62 140.986 1659.62 142.052 Z" fill="#000000" fill-rule="evenodd" fill-opacity="1" /><path clip-path="url(#clip470)" d="M1684.89 163.202 Q1684.97 162.177 1686.57 162.177 L1738.01 162.177 Q1740.43 162.177 1740.47 163.12 Q1740.47 164.145 1738.17 164.104 L1687.14 164.104 Q1684.89 164.145 1684.89 163.202 M1684.89 146.806 Q1684.89 145.782 1686.65 145.823 L1737.93 145.823 Q1740.43 145.823 1740.47 146.806 Q1740.47 147.749 1738.34 147.749 L1686.57 147.749 Q1684.89 147.749 1684.89 146.806 Z" fill="#000000" fill-rule="evenodd" fill-opacity="1" /><path clip-path="url(#clip470)" d="M1814.65 144.388 Q1814.65 146.683 1813.22 147.995 Q1811.78 149.266 1810.14 149.266 Q1808.58 149.266 1807.76 148.364 Q1806.95 147.462 1806.95 146.315 Q1806.95 144.757 1808.09 143.404 Q1809.24 142.052 1810.96 141.765 Q1809.28 140.699 1806.78 140.699 Q1805.14 140.699 1803.71 141.56 Q1802.31 142.421 1801.45 143.527 Q1800.63 144.634 1799.89 146.233 Q1799.2 147.79 1798.91 148.733 Q1798.67 149.635 1798.46 150.618 L1795.59 162.095 Q1794.2 167.547 1794.2 169.474 Q1794.2 171.851 1795.35 173.449 Q1796.49 175.007 1798.79 175.007 Q1799.69 175.007 1800.71 174.761 Q1801.74 174.474 1803.05 173.736 Q1804.4 172.958 1805.59 171.81 Q1806.82 170.621 1808.01 168.613 Q1809.2 166.604 1809.98 164.022 Q1810.22 163.12 1811.04 163.12 Q1812.07 163.12 1812.07 163.94 Q1812.07 164.637 1811.49 166.112 Q1810.96 167.547 1809.77 169.433 Q1808.63 171.277 1807.11 172.958 Q1805.59 174.597 1803.34 175.745 Q1801.08 176.893 1798.62 176.893 Q1795.1 176.893 1792.76 175.007 Q1790.43 173.122 1789.57 170.498 Q1789.36 170.867 1789.07 171.359 Q1788.79 171.851 1787.93 172.958 Q1787.11 174.023 1786.16 174.843 Q1785.22 175.622 1783.75 176.237 Q1782.31 176.893 1780.75 176.893 Q1778.79 176.893 1777.02 176.319 Q1775.3 175.745 1774.07 174.433 Q1772.84 173.122 1772.84 171.318 Q1772.84 169.31 1774.19 167.916 Q1775.59 166.481 1777.47 166.481 Q1778.66 166.481 1779.61 167.178 Q1780.59 167.875 1780.59 169.392 Q1780.59 171.072 1779.44 172.343 Q1778.29 173.613 1776.65 173.941 Q1778.33 175.007 1780.83 175.007 Q1783.54 175.007 1785.67 172.63 Q1787.8 170.252 1788.83 166.276 Q1791.37 156.726 1792.35 152.463 Q1793.34 148.159 1793.34 146.315 Q1793.34 144.593 1792.89 143.404 Q1792.43 142.216 1791.66 141.683 Q1790.92 141.109 1790.22 140.904 Q1789.57 140.699 1788.83 140.699 Q1787.6 140.699 1786.2 141.191 Q1784.85 141.683 1783.21 142.83 Q1781.61 143.937 1780.1 146.233 Q1778.58 148.528 1777.56 151.684 Q1777.35 152.627 1776.45 152.627 Q1775.47 152.586 1775.47 151.766 Q1775.47 151.069 1776 149.635 Q1776.57 148.159 1777.72 146.315 Q1778.91 144.47 1780.43 142.83 Q1781.98 141.15 1784.24 140.002 Q1786.53 138.855 1788.99 138.855 Q1790.1 138.855 1791.16 139.1 Q1792.27 139.305 1793.58 139.92 Q1794.94 140.535 1796.12 141.888 Q1797.31 143.24 1798.05 145.208 Q1798.54 144.265 1799.2 143.363 Q1799.89 142.462 1800.96 141.355 Q1802.07 140.207 1803.58 139.551 Q1805.14 138.855 1806.86 138.855 Q1808.54 138.855 1810.18 139.305 Q1811.82 139.715 1813.22 141.068 Q1814.65 142.38 1814.65 144.388 Z" fill="#000000" fill-rule="evenodd" fill-opacity="1" /><path clip-path="url(#clip470)" d="M1195.86 152.989 Q1195.86 153.563 1195.49 154.916 L1187.45 186.969 Q1185.69 194.101 1179.95 199.102 Q1174.26 204.103 1167.78 204.103 Q1163.89 204.103 1161.38 202.012 Q1158.88 199.963 1158.88 196.807 Q1158.88 194.019 1160.36 192.667 Q1161.84 191.355 1163.6 191.355 Q1164.17 191.355 1164.79 191.519 Q1165.4 191.683 1166.06 192.38 Q1166.71 193.077 1166.71 194.265 Q1166.71 196.192 1165.03 197.708 Q1164.21 198.405 1163.43 198.569 Q1162.7 198.733 1161.43 198.733 Q1161.92 199.881 1162.82 200.66 Q1163.72 201.439 1164.75 201.725 Q1165.77 202.053 1166.43 202.135 Q1167.12 202.258 1167.78 202.258 Q1173.03 202.258 1177.04 196.971 Q1178.23 195.372 1179.09 193.774 Q1179.99 192.216 1180.65 190.289 Q1181.31 188.404 1181.59 187.379 Q1181.92 186.354 1182.49 184.018 Q1178.68 187.83 1174.01 187.83 Q1172.04 187.83 1170.28 187.297 Q1168.56 186.764 1167.04 185.658 Q1165.52 184.51 1164.62 182.501 Q1163.76 180.493 1163.76 177.829 Q1163.76 175 1164.87 171.147 Q1165.98 167.294 1168.64 160.203 Q1170.07 156.227 1170.07 154.301 Q1170.07 153.358 1169.87 152.784 Q1169.66 152.169 1169.25 151.964 Q1168.84 151.719 1168.6 151.678 Q1168.39 151.637 1167.98 151.637 Q1165.57 151.637 1163.31 154.096 Q1161.06 156.555 1159.5 162.048 Q1159.17 163.073 1158.97 163.318 Q1158.76 163.564 1158.15 163.564 Q1157.12 163.523 1157.12 162.704 Q1157.12 162.376 1157.49 161.105 Q1157.86 159.793 1158.72 157.867 Q1159.62 155.899 1160.85 154.137 Q1162.08 152.333 1164.01 151.063 Q1165.98 149.792 1168.23 149.792 Q1171.3 149.792 1173.19 151.801 Q1175.12 153.768 1175.12 156.678 Q1175.12 157.867 1174.79 158.933 Q1174.5 159.957 1173.44 162.704 Q1169.13 173.771 1169.13 179.181 Q1169.13 180.493 1169.34 181.6 Q1169.58 182.665 1170.12 183.731 Q1170.65 184.756 1171.71 185.371 Q1172.82 185.945 1174.34 185.945 Q1176.26 185.945 1178.07 185.043 Q1179.91 184.1 1181.06 182.829 Q1182.25 181.559 1182.95 180.493 Q1183.68 179.386 1183.85 178.812 L1187.62 163.728 L1189.3 157.006 Q1190.08 153.358 1190.45 152.456 Q1190.94 151.596 1191.8 151.145 Q1192.66 150.694 1193.4 150.694 Q1194.42 150.694 1195.12 151.309 Q1195.86 151.923 1195.86 152.989 Z" fill="#000000" fill-rule="evenodd" fill-opacity="1" /><path clip-path="url(#clip470)" d="M1221.13 174.14 Q1221.21 173.115 1222.81 173.115 L1274.25 173.115 Q1276.67 173.115 1276.71 174.058 Q1276.71 175.082 1274.41 175.041 L1223.38 175.041 Q1221.13 175.082 1221.13 174.14 M1221.13 157.744 Q1221.13 156.719 1222.89 156.76 L1274.17 156.76 Q1276.67 156.76 1276.71 157.744 Q1276.71 158.687 1274.58 158.687 L1222.81 158.687 Q1221.13 158.687 1221.13 157.744 Z" fill="#000000" fill-rule="evenodd" fill-opacity="1" /><path clip-path="url(#clip470)" d="M1347.61 153.727 Q1347.61 153.768 1347.37 155.244 L1338.02 192.503 Q1337.53 194.47 1336.14 196.438 Q1334.78 198.446 1332.61 200.168 Q1330.48 201.93 1327.2 202.996 Q1323.96 204.103 1320.23 204.103 Q1314.29 204.103 1311.66 202.832 Q1309.08 201.602 1309.08 198.979 Q1309.08 196.684 1310.52 195.372 Q1311.95 194.101 1313.59 194.101 Q1315.15 194.101 1315.97 195.003 Q1316.79 195.905 1316.79 197.053 Q1316.79 198.323 1315.93 199.594 Q1315.07 200.906 1313.35 201.398 Q1316.09 202.258 1320.07 202.258 Q1328.47 202.258 1332.08 193.364 Q1332.16 193.241 1332.16 193.2 L1334.95 182.092 L1334.82 182.01 Q1334.13 182.829 1333.02 183.772 Q1331.95 184.674 1329.66 185.781 Q1327.36 186.887 1325.11 186.887 Q1320.4 186.887 1317.16 183.28 Q1313.96 179.632 1313.96 173.607 Q1313.96 169.221 1315.72 164.835 Q1317.53 160.408 1320.31 157.17 Q1323.14 153.891 1326.75 151.841 Q1330.4 149.792 1333.92 149.792 Q1336.38 149.792 1338.47 151.268 Q1340.56 152.702 1341.71 155.08 Q1341.91 153.112 1343.02 152.292 Q1344.17 151.473 1345.15 151.473 Q1346.26 151.473 1346.92 152.087 Q1347.61 152.661 1347.61 153.727 M1340.73 158.851 Q1340.73 158.605 1340.56 157.949 Q1340.4 157.252 1339.91 156.145 Q1339.46 155.039 1338.76 154.055 Q1338.06 153.071 1336.79 152.374 Q1335.56 151.637 1334 151.637 Q1331.46 151.637 1328.92 153.768 Q1326.38 155.858 1324.62 159.097 Q1322.98 162.212 1321.42 168.237 Q1319.9 174.263 1319.9 177.337 Q1319.9 180.37 1321.22 182.706 Q1322.53 185.043 1325.35 185.043 Q1328.63 185.043 1332.16 182.01 Q1335.81 178.853 1336.42 176.148 L1340.48 160.121 Q1340.73 159.138 1340.73 158.851 Z" fill="#000000" fill-rule="evenodd" fill-opacity="1" /><path clip-path="url(#clip470)" d="M1359.12 165.901 Q1359.12 151.719 1364.41 140.283 Q1366.66 135.487 1369.82 131.47 Q1372.97 127.453 1375.06 125.69 Q1377.15 123.928 1377.73 123.928 Q1378.55 123.928 1378.59 124.748 Q1378.59 125.157 1377.48 126.182 Q1363.96 139.955 1364 165.901 Q1364 191.929 1377.15 205.169 Q1378.59 206.603 1378.59 207.054 Q1378.59 207.874 1377.73 207.874 Q1377.15 207.874 1375.15 206.193 Q1373.14 204.513 1370.02 200.66 Q1366.91 196.807 1364.65 192.093 Q1359.12 180.657 1359.12 165.901 Z" fill="#000000" fill-rule="evenodd" fill-opacity="1" /><path clip-path="url(#clip470)" d="M1426.78 155.326 Q1426.78 157.621 1425.34 158.933 Q1423.91 160.203 1422.27 160.203 Q1420.71 160.203 1419.89 159.302 Q1419.07 158.4 1419.07 157.252 Q1419.07 155.694 1420.22 154.342 Q1421.36 152.989 1423.09 152.702 Q1421.41 151.637 1418.91 151.637 Q1417.27 151.637 1415.83 152.497 Q1414.44 153.358 1413.58 154.465 Q1412.76 155.572 1412.02 157.17 Q1411.32 158.728 1411.04 159.67 Q1410.79 160.572 1410.58 161.556 L1407.72 173.033 Q1406.32 178.485 1406.32 180.411 Q1406.32 182.788 1407.47 184.387 Q1408.62 185.945 1410.91 185.945 Q1411.81 185.945 1412.84 185.699 Q1413.86 185.412 1415.18 184.674 Q1416.53 183.895 1417.72 182.747 Q1418.95 181.559 1420.14 179.55 Q1421.32 177.542 1422.1 174.959 Q1422.35 174.058 1423.17 174.058 Q1424.19 174.058 1424.19 174.877 Q1424.19 175.574 1423.62 177.05 Q1423.09 178.485 1421.9 180.37 Q1420.75 182.215 1419.23 183.895 Q1417.72 185.535 1415.46 186.682 Q1413.21 187.83 1410.75 187.83 Q1407.22 187.83 1404.89 185.945 Q1402.55 184.059 1401.69 181.436 Q1401.49 181.805 1401.2 182.297 Q1400.91 182.788 1400.05 183.895 Q1399.23 184.961 1398.29 185.781 Q1397.35 186.559 1395.87 187.174 Q1394.43 187.83 1392.88 187.83 Q1390.91 187.83 1389.15 187.256 Q1387.43 186.682 1386.2 185.371 Q1384.97 184.059 1384.97 182.256 Q1384.97 180.247 1386.32 178.853 Q1387.71 177.419 1389.6 177.419 Q1390.79 177.419 1391.73 178.116 Q1392.71 178.812 1392.71 180.329 Q1392.71 182.01 1391.57 183.28 Q1390.42 184.551 1388.78 184.879 Q1390.46 185.945 1392.96 185.945 Q1395.66 185.945 1397.8 183.567 Q1399.93 181.19 1400.95 177.214 Q1403.49 167.663 1404.48 163.4 Q1405.46 159.097 1405.46 157.252 Q1405.46 155.531 1405.01 154.342 Q1404.56 153.153 1403.78 152.62 Q1403.04 152.046 1402.35 151.841 Q1401.69 151.637 1400.95 151.637 Q1399.72 151.637 1398.33 152.128 Q1396.98 152.62 1395.34 153.768 Q1393.74 154.875 1392.22 157.17 Q1390.7 159.466 1389.68 162.622 Q1389.48 163.564 1388.57 163.564 Q1387.59 163.523 1387.59 162.704 Q1387.59 162.007 1388.12 160.572 Q1388.7 159.097 1389.84 157.252 Q1391.03 155.408 1392.55 153.768 Q1394.11 152.087 1396.36 150.94 Q1398.66 149.792 1401.12 149.792 Q1402.22 149.792 1403.29 150.038 Q1404.4 150.243 1405.71 150.858 Q1407.06 151.473 1408.25 152.825 Q1409.44 154.178 1410.17 156.145 Q1410.67 155.203 1411.32 154.301 Q1412.02 153.399 1413.09 152.292 Q1414.19 151.145 1415.71 150.489 Q1417.27 149.792 1418.99 149.792 Q1420.67 149.792 1422.31 150.243 Q1423.95 150.653 1425.34 152.005 Q1426.78 153.317 1426.78 155.326 Z" fill="#000000" fill-rule="evenodd" fill-opacity="1" /><path clip-path="url(#clip470)" d="M1434.85 207.054 Q1434.85 206.644 1435.92 205.619 Q1449.45 191.847 1449.45 165.901 Q1449.45 139.873 1436.45 126.715 Q1434.85 125.198 1434.85 124.748 Q1434.85 123.928 1435.67 123.928 Q1436.25 123.928 1438.26 125.608 Q1440.31 127.289 1443.38 131.142 Q1446.5 134.995 1448.79 139.709 Q1454.32 151.145 1454.32 165.901 Q1454.32 180.083 1449.04 191.519 Q1446.78 196.315 1443.63 200.332 Q1440.47 204.349 1438.38 206.111 Q1436.29 207.874 1435.67 207.874 Q1434.85 207.874 1434.85 207.054 Z" fill="#000000" fill-rule="evenodd" fill-opacity="1" /></svg>
