<?xml version="1.0" encoding="utf-8"?>
<svg xmlns="http://www.w3.org/2000/svg" xmlns:xlink="http://www.w3.org/1999/xlink" width="480" height="480" viewBox="0 0 1920 1920">
<defs>
  <clipPath id="clip420">
    <rect x="0" y="0" width="1920" height="1920"/>
  </clipPath>
</defs>
<path clip-path="url(#clip420)" d="
M0 1920 L1920 1920 L1920 0 L0 0  Z
  " fill="#ffffff" fill-rule="evenodd" fill-opacity="1"/>
<defs>
  <clipPath id="clip421">
    <rect x="384" y="192" width="1345" height="1345"/>
  </clipPath>
</defs>
<path clip-path="url(#clip420)" d="
M47.2441 1872.76 L1872.76 1872.76 L1872.76 47.2441 L47.2441 47.2441  Z
  " fill="#ffffff" fill-rule="evenodd" fill-opacity="1"/>
<defs>
  <clipPath id="clip422">
    <rect x="47" y="47" width="1827" height="1827"/>
  </clipPath>
</defs>
<polyline clip-path="url(#clip420)" style="stroke:#000000; stroke-linecap:butt; stroke-linejoin:round; stroke-width:4; stroke-opacity:1; fill:none" points="
  47.2441,1872.76 1872.76,1872.76 
  "/>
<polyline clip-path="url(#clip420)" style="stroke:#000000; stroke-linecap:butt; stroke-linejoin:round; stroke-width:4; stroke-opacity:1; fill:none" points="
  47.2441,47.2441 1872.76,47.2441 
  "/>
<polyline clip-path="url(#clip420)" style="stroke:#000000; stroke-linecap:butt; stroke-linejoin:round; stroke-width:4; stroke-opacity:1; fill:none" points="
  47.2441,1872.76 47.2441,47.2441 
  "/>
<polyline clip-path="url(#clip420)" style="stroke:#000000; stroke-linecap:butt; stroke-linejoin:round; stroke-width:4; stroke-opacity:1; fill:none" points="
  1872.76,1872.76 1872.76,47.2441 
  "/>
<polyline clip-path="url(#clip422)" style="stroke:#000000; stroke-linecap:butt; stroke-linejoin:round; stroke-width:4; stroke-opacity:1; fill:none" points="
  47.2441,963.867 50.2154,964.349 53.1866,964.858 56.1579,965.396 59.1292,965.96 86.6029,972.466 114.077,981.2 141.55,992.035 169.024,1004.85 202.045,1022.69 
  235.066,1042.98 262.985,1061.9 290.904,1082.29 321.232,1105.95 351.559,1131.02 379.519,1155.25 407.478,1180.39 467.429,1236.83 536.889,1305.06 598.616,1366.72 
  652.745,1420.4 711.76,1477.35 771.126,1531.77 803.945,1560.15 836.763,1587.04 867.989,1611.07 899.215,1633.38 931.682,1654.55 964.15,1673.47 991.481,1687.49 
  1018.81,1699.64 1052.18,1711.75 1085.55,1720.67 1116.11,1725.84 1146.68,1727.97 1174.91,1727.08 1203.14,1723.31 1217.44,1720.27 1231.74,1716.43 1246.04,1711.78 
  1260.34,1706.3 1276.36,1699.17 1292.39,1690.94 1308.41,1681.61 1324.44,1671.15 1338.96,1660.66 1353.48,1649.21 1368,1636.77 1382.52,1623.32 1399.15,1606.66 
  1415.77,1588.63 1432.4,1569.2 1449.02,1548.34 1464.42,1527.73 1479.81,1505.85 1495.2,1482.68 1510.6,1458.2 1525.77,1432.75 1540.95,1405.99 1556.13,1377.88 
  1571.3,1348.42 1586.04,1318.49 1600.77,1287.23 1615.51,1254.64 1630.24,1220.68 1645.35,1184.44 1660.45,1146.73 1675.56,1107.52 1690.66,1066.8 1707.21,1020.43 
  1723.76,972.189 1740.31,922.052 1756.86,869.993 1768.88,830.959 1780.9,790.886 1792.92,749.763 1804.95,707.58 1816.97,664.327 1828.99,619.992 1841.01,574.565 
  1853.03,528.036 1857.96,508.624 1862.89,489.023 1867.82,469.234 1872.76,449.256 
  "/>
<polyline clip-path="url(#clip422)" style="stroke:#000000; stroke-linecap:butt; stroke-linejoin:round; stroke-width:4; stroke-opacity:1; fill:none" points="
  575.944,2341.6 575.944,-651.039 
  "/>
<polyline clip-path="url(#clip422)" style="stroke:#000000; stroke-linecap:butt; stroke-linejoin:round; stroke-width:4; stroke-opacity:1; fill:none" points="
  -421.603,1344.06 2571.04,1344.06 
  "/>
<polyline clip-path="url(#clip422)" style="stroke:#ff0000; stroke-linecap:butt; stroke-linejoin:round; stroke-width:4; stroke-opacity:1; fill:none" points="
  269.298,1344.06 882.591,1344.06 
  "/>
<polyline clip-path="url(#clip422)" style="stroke:#ff0000; stroke-linecap:butt; stroke-linejoin:round; stroke-width:4; stroke-opacity:1; fill:none" points="
  1413.83,1344.06 2571.04,1344.06 
  "/>
<circle clip-path="url(#clip422)" cx="1022.06" cy="1344.06" r="14" fill="#00a9ad" fill-rule="evenodd" fill-opacity="1" stroke="#000000" stroke-opacity="1" stroke-width="3.84"/>
<polyline clip-path="url(#clip422)" style="stroke:#000000; stroke-linecap:butt; stroke-linejoin:round; stroke-width:4; stroke-opacity:1; fill:none" points="
  1022.06,1344.06 1022.06,1700.95 
  "/>
<polyline clip-path="url(#clip422)" style="stroke:#000000; stroke-linecap:butt; stroke-linejoin:round; stroke-width:4; stroke-opacity:1; fill:none" points="
  1036.46,1672.15 1022.06,1700.95 1007.66,1672.15 
  "/>
<polyline clip-path="url(#clip422)" style="stroke:#000000; stroke-linecap:butt; stroke-linejoin:round; stroke-width:4; stroke-opacity:1; fill:none" points="
  1022.06,1700.95 1022.06,1344.06 
  "/>
<polyline clip-path="url(#clip422)" style="stroke:#000000; stroke-linecap:butt; stroke-linejoin:round; stroke-width:4; stroke-opacity:1; fill:none" points="
  1022.06,1700.95 129.827,1344.06 
  "/>
<polyline clip-path="url(#clip422)" style="stroke:#000000; stroke-linecap:butt; stroke-linejoin:round; stroke-width:4; stroke-opacity:1; fill:none" points="
  151.22,1368.12 129.827,1344.06 161.916,1341.38 
  "/>
<polyline clip-path="url(#clip422)" style="stroke:#000000; stroke-linecap:butt; stroke-linejoin:round; stroke-width:4; stroke-opacity:1; fill:none" points="
  129.827,1344.06 1022.06,1700.95 
  "/>
<polyline clip-path="url(#clip422)" style="stroke:#000000; stroke-linecap:butt; stroke-linejoin:round; stroke-width:4; stroke-opacity:1; fill:none" points="
  129.827,1344.06 129.827,987.162 
  "/>
<polyline clip-path="url(#clip422)" style="stroke:#000000; stroke-linecap:butt; stroke-linejoin:round; stroke-width:4; stroke-opacity:1; fill:none" points="
  115.427,1015.96 129.827,987.162 144.227,1015.96 
  "/>
<polyline clip-path="url(#clip422)" style="stroke:#000000; stroke-linecap:butt; stroke-linejoin:round; stroke-width:4; stroke-opacity:1; fill:none" points="
  129.827,987.162 129.827,1344.06 
  "/>
<polyline clip-path="url(#clip422)" style="stroke:#000000; stroke-linecap:butt; stroke-linejoin:round; stroke-width:4; stroke-opacity:1; fill:none" points="
  129.827,987.162 1022.06,1344.06 
  "/>
<polyline clip-path="url(#clip422)" style="stroke:#000000; stroke-linecap:butt; stroke-linejoin:round; stroke-width:4; stroke-opacity:1; fill:none" points="
  1000.67,1319.99 1022.06,1344.06 989.973,1346.73 
  "/>
<polyline clip-path="url(#clip422)" style="stroke:#000000; stroke-linecap:butt; stroke-linejoin:round; stroke-width:4; stroke-opacity:1; fill:none" points="
  1022.06,1344.06 129.827,987.162 
  "/>
<path clip-path="url(#clip420)" d="M617.794 72.0723 Q617.794 74.3267 616.36 75.7204 Q614.966 77.114 613.203 77.114 Q611.933 77.114 610.99 76.3352 Q610.088 75.5564 610.088 74.2038 Q610.088 72.8101 611.154 71.3345 Q612.22 69.8589 614.638 69.6539 Q613.04 68.1373 610.498 68.1373 Q609.228 68.1373 608.162 68.9571 Q607.137 69.7359 606.563 71.0066 Q605.948 72.3183 604.555 79.7373 Q604.104 82.1557 603.694 84.4921 Q603.284 86.8285 602.792 89.2878 L609.76 89.2878 Q610.662 89.2878 611.031 89.3288 Q611.4 89.3698 611.687 89.5747 Q612.015 89.7797 612.015 90.2306 Q612.015 91.3783 611.482 91.6652 Q610.99 91.9111 609.514 91.9111 L602.3 91.9111 L597.259 118.513 Q597.136 119.292 596.603 121.751 Q596.111 124.17 594.922 128.146 Q593.734 132.163 592.545 134.54 Q591.889 135.893 591.028 137.163 Q590.209 138.475 589.02 139.787 Q587.831 141.098 586.274 141.877 Q584.716 142.697 583.076 142.697 Q580.289 142.697 578.117 141.139 Q575.944 139.582 575.944 136.917 Q575.944 134.663 577.338 133.269 Q578.772 131.876 580.535 131.876 Q581.806 131.876 582.707 132.654 Q583.65 133.433 583.65 134.786 Q583.65 135.36 583.445 136.016 Q583.24 136.671 582.789 137.409 Q582.339 138.188 581.355 138.721 Q580.371 139.254 579.018 139.336 Q580.617 140.852 583.076 140.852 Q583.855 140.852 584.552 140.524 Q585.249 140.237 585.823 139.5 Q586.437 138.762 586.888 138.024 Q587.339 137.327 587.79 135.975 Q588.241 134.663 588.528 133.679 Q588.815 132.695 589.184 130.933 Q589.594 129.17 589.799 128.105 Q590.004 127.08 590.372 125.071 L596.644 91.9111 L591.11 91.9111 Q590.127 91.9111 589.717 91.8701 Q589.348 91.8291 589.061 91.6242 Q588.774 91.3783 588.774 90.8864 Q588.774 90.1076 589.102 89.7797 Q589.471 89.4108 589.881 89.3698 Q590.29 89.2878 591.274 89.2878 L597.095 89.2878 Q599.062 78.9175 599.841 76.1303 Q600.743 73.179 602.136 71.1296 Q603.53 69.0391 605.088 68.0554 Q606.645 67.0716 607.916 66.7027 Q609.228 66.2928 610.498 66.2928 Q613.367 66.2928 615.581 67.8504 Q617.794 69.367 617.794 72.0723 Z" fill="#000000" fill-rule="evenodd" fill-opacity="1" /><path clip-path="url(#clip420)" d="M629.092 104.495 Q629.092 90.3125 634.38 78.8765 Q636.635 74.0808 639.791 70.0638 Q642.947 66.0469 645.037 64.2844 Q647.128 62.5218 647.702 62.5218 Q648.521 62.5218 648.562 63.3416 Q648.562 63.7515 647.456 64.7762 Q633.929 78.5486 633.97 104.495 Q633.97 130.523 647.128 143.763 Q648.562 145.197 648.562 145.648 Q648.562 146.468 647.702 146.468 Q647.128 146.468 645.119 144.787 Q643.111 143.107 639.996 139.254 Q636.88 135.401 634.626 130.687 Q629.092 119.251 629.092 104.495 Z" fill="#000000" fill-rule="evenodd" fill-opacity="1" /><path clip-path="url(#clip420)" d="M696.75 93.9196 Q696.75 96.215 695.315 97.5267 Q693.88 98.7973 692.241 98.7973 Q690.683 98.7973 689.863 97.8956 Q689.044 96.9938 689.044 95.8461 Q689.044 94.2885 690.191 92.9359 Q691.339 91.5832 693.061 91.2963 Q691.38 90.2306 688.88 90.2306 Q687.24 90.2306 685.805 91.0913 Q684.412 91.9521 683.551 93.0588 Q682.731 94.1655 681.993 95.7641 Q681.297 97.3217 681.01 98.2645 Q680.764 99.1662 680.559 100.15 L677.69 111.627 Q676.296 117.079 676.296 119.005 Q676.296 121.382 677.444 122.981 Q678.591 124.539 680.887 124.539 Q681.788 124.539 682.813 124.293 Q683.838 124.006 685.15 123.268 Q686.502 122.489 687.691 121.341 Q688.921 120.153 690.109 118.144 Q691.298 116.136 692.077 113.553 Q692.323 112.652 693.143 112.652 Q694.167 112.652 694.167 113.471 Q694.167 114.168 693.593 115.644 Q693.061 117.079 691.872 118.964 Q690.724 120.809 689.208 122.489 Q687.691 124.129 685.437 125.276 Q683.182 126.424 680.723 126.424 Q677.198 126.424 674.861 124.539 Q672.525 122.653 671.664 120.03 Q671.459 120.399 671.172 120.891 Q670.885 121.382 670.025 122.489 Q669.205 123.555 668.262 124.375 Q667.319 125.153 665.844 125.768 Q664.409 126.424 662.851 126.424 Q660.884 126.424 659.121 125.85 Q657.4 125.276 656.17 123.965 Q654.941 122.653 654.941 120.85 Q654.941 118.841 656.293 117.447 Q657.687 116.013 659.572 116.013 Q660.761 116.013 661.704 116.71 Q662.687 117.406 662.687 118.923 Q662.687 120.604 661.54 121.874 Q660.392 123.145 658.753 123.473 Q660.433 124.539 662.933 124.539 Q665.639 124.539 667.77 122.161 Q669.902 119.784 670.926 115.808 Q673.468 106.257 674.451 101.994 Q675.435 97.6906 675.435 95.8461 Q675.435 94.1245 674.984 92.9359 Q674.533 91.7472 673.755 91.2143 Q673.017 90.6405 672.32 90.4355 Q671.664 90.2306 670.926 90.2306 Q669.697 90.2306 668.303 90.7224 Q666.95 91.2143 665.311 92.362 Q663.712 93.4687 662.196 95.7641 Q660.679 98.0595 659.654 101.216 Q659.449 102.158 658.548 102.158 Q657.564 102.117 657.564 101.298 Q657.564 100.601 658.097 99.1662 Q658.671 97.6906 659.818 95.8461 Q661.007 94.0016 662.524 92.362 Q664.081 90.6814 666.336 89.5337 Q668.631 88.386 671.09 88.386 Q672.197 88.386 673.263 88.632 Q674.369 88.8369 675.681 89.4518 Q677.034 90.0666 678.222 91.4193 Q679.411 92.7719 680.149 94.7394 Q680.641 93.7966 681.297 92.8949 Q681.993 91.9931 683.059 90.8864 Q684.166 89.7387 685.682 89.0829 Q687.24 88.386 688.962 88.386 Q690.642 88.386 692.282 88.8369 Q693.921 89.2468 695.315 90.5995 Q696.75 91.9111 696.75 93.9196 Z" fill="#000000" fill-rule="evenodd" fill-opacity="1" /><path clip-path="url(#clip420)" d="M704.829 145.648 Q704.829 145.238 705.894 144.213 Q719.421 130.441 719.421 104.495 Q719.421 78.4666 706.427 65.3091 Q704.829 63.7925 704.829 63.3416 Q704.829 62.5218 705.648 62.5218 Q706.222 62.5218 708.231 64.2024 Q710.28 65.8829 713.354 69.7359 Q716.47 73.5889 718.765 78.3027 Q724.299 89.7387 724.299 104.495 Q724.299 118.677 719.011 130.113 Q716.757 134.909 713.6 138.926 Q710.444 142.943 708.354 144.705 Q706.263 146.468 705.648 146.468 Q704.829 146.468 704.829 145.648 Z" fill="#000000" fill-rule="evenodd" fill-opacity="1" /></svg>
