<?xml version="1.0" encoding="utf-8"?>
<svg xmlns="http://www.w3.org/2000/svg" xmlns:xlink="http://www.w3.org/1999/xlink" width="480" height="480" viewBox="0 0 1920 1920">
<defs>
  <clipPath id="clip410">
    <rect x="0" y="0" width="1920" height="1920"/>
  </clipPath>
</defs>
<path clip-path="url(#clip410)" d="
M0 1920 L1920 1920 L1920 0 L0 0  Z
  " fill="#ffffff" fill-rule="evenodd" fill-opacity="1"/>
<defs>
  <clipPath id="clip411">
    <rect x="384" y="192" width="1345" height="1345"/>
  </clipPath>
</defs>
<path clip-path="url(#clip410)" d="
M47.2441 1872.76 L1872.76 1872.76 L1872.76 47.2441 L47.2441 47.2441  Z
  " fill="#ffffff" fill-rule="evenodd" fill-opacity="1"/>
<defs>
  <clipPath id="clip412">
    <rect x="47" y="47" width="1827" height="1827"/>
  </clipPath>
</defs>
<polyline clip-path="url(#clip410)" style="stroke:#000000; stroke-linecap:butt; stroke-linejoin:round; stroke-width:4; stroke-opacity:1; fill:none" points="
  47.2441,1872.76 1872.76,1872.76 
  "/>
<polyline clip-path="url(#clip410)" style="stroke:#000000; stroke-linecap:butt; stroke-linejoin:round; stroke-width:4; stroke-opacity:1; fill:none" points="
  47.2441,47.2441 1872.76,47.2441 
  "/>
<polyline clip-path="url(#clip410)" style="stroke:#000000; stroke-linecap:butt; stroke-linejoin:round; stroke-width:4; stroke-opacity:1; fill:none" points="
  47.2441,1872.76 47.2441,47.2441 
  "/>
<polyline clip-path="url(#clip410)" style="stroke:#000000; stroke-linecap:butt; stroke-linejoin:round; stroke-width:4; stroke-opacity:1; fill:none" points="
  1872.76,1872.76 1872.76,47.2441 
  "/>
<polyline clip-path="url(#clip412)" style="stroke:#000000; stroke-linecap:butt; stroke-linejoin:round; stroke-width:4; stroke-opacity:1; fill:none" points="
  199.37,1796.69 199.37,123.307 
  "/>
<polyline clip-path="url(#clip412)" style="stroke:#000000; stroke-linecap:butt; stroke-linejoin:round; stroke-width:4; stroke-opacity:1; fill:none" points="
  123.307,1720.63 1796.69,1720.63 
  "/>
<polyline clip-path="url(#clip412)" style="stroke:#000000; stroke-linecap:butt; stroke-linejoin:round; stroke-width:4; stroke-opacity:1; fill:none" points="
  199.37,1720.63 1720.63,199.37 
  "/>
<polyline clip-path="url(#clip412)" style="stroke:#000000; stroke-linecap:butt; stroke-linejoin:round; stroke-width:4; stroke-opacity:1; fill:none" points="
  199.37,1340.31 1720.63,579.685 
  "/>
<circle clip-path="url(#clip412)" cx="579.685" cy="1720.63" r="14" fill="#ac8d18" fill-rule="evenodd" fill-opacity="1" stroke="#000000" stroke-opacity="1" stroke-width="3.84"/>
<polyline clip-path="url(#clip412)" style="stroke:#000000; stroke-linecap:butt; stroke-linejoin:round; stroke-width:4; stroke-opacity:1; fill:none" points="
  579.685,1720.63 579.685,1150.16 
  "/>
<polyline clip-path="url(#clip412)" style="stroke:#000000; stroke-linecap:butt; stroke-linejoin:round; stroke-width:4; stroke-opacity:1; fill:none" points="
  565.285,1178.96 579.685,1150.16 594.085,1178.96 
  "/>
<polyline clip-path="url(#clip412)" style="stroke:#000000; stroke-linecap:butt; stroke-linejoin:round; stroke-width:4; stroke-opacity:1; fill:none" points="
  579.685,1150.16 579.685,1720.63 
  "/>
<polyline clip-path="url(#clip412)" style="stroke:#000000; stroke-linecap:butt; stroke-linejoin:round; stroke-width:4; stroke-opacity:1; fill:none" points="
  579.685,1150.16 769.843,1150.16 
  "/>
<polyline clip-path="url(#clip412)" style="stroke:#000000; stroke-linecap:butt; stroke-linejoin:round; stroke-width:4; stroke-opacity:1; fill:none" points="
  741.043,1135.76 769.843,1150.16 741.043,1164.56 
  "/>
<polyline clip-path="url(#clip412)" style="stroke:#000000; stroke-linecap:butt; stroke-linejoin:round; stroke-width:4; stroke-opacity:1; fill:none" points="
  769.843,1150.16 579.685,1150.16 
  "/>
<polyline clip-path="url(#clip412)" style="stroke:#000000; stroke-linecap:butt; stroke-linejoin:round; stroke-width:4; stroke-opacity:1; fill:none" points="
  769.843,1150.16 769.843,1055.08 
  "/>
<polyline clip-path="url(#clip412)" style="stroke:#000000; stroke-linecap:butt; stroke-linejoin:round; stroke-width:4; stroke-opacity:1; fill:none" points="
  755.443,1083.88 769.843,1055.08 784.243,1083.88 
  "/>
<polyline clip-path="url(#clip412)" style="stroke:#000000; stroke-linecap:butt; stroke-linejoin:round; stroke-width:4; stroke-opacity:1; fill:none" points="
  769.843,1055.08 769.843,1150.16 
  "/>
<polyline clip-path="url(#clip412)" style="stroke:#000000; stroke-linecap:butt; stroke-linejoin:round; stroke-width:4; stroke-opacity:1; fill:none" points="
  769.843,1055.08 864.921,1055.08 
  "/>
<polyline clip-path="url(#clip412)" style="stroke:#000000; stroke-linecap:butt; stroke-linejoin:round; stroke-width:4; stroke-opacity:1; fill:none" points="
  836.121,1040.68 864.921,1055.08 836.121,1069.48 
  "/>
<polyline clip-path="url(#clip412)" style="stroke:#000000; stroke-linecap:butt; stroke-linejoin:round; stroke-width:4; stroke-opacity:1; fill:none" points="
  864.921,1055.08 769.843,1055.08 
  "/>
<circle clip-path="url(#clip412)" cx="1340.31" cy="1720.63" r="14" fill="#8e971d" fill-rule="evenodd" fill-opacity="1" stroke="#000000" stroke-opacity="1" stroke-width="3.84"/>
<polyline clip-path="url(#clip412)" style="stroke:#000000; stroke-linecap:butt; stroke-linejoin:round; stroke-width:4; stroke-opacity:1; fill:none" points="
  1340.31,1720.63 1340.31,769.843 
  "/>
<polyline clip-path="url(#clip412)" style="stroke:#000000; stroke-linecap:butt; stroke-linejoin:round; stroke-width:4; stroke-opacity:1; fill:none" points="
  1325.91,798.643 1340.31,769.843 1354.71,798.643 
  "/>
<polyline clip-path="url(#clip412)" style="stroke:#000000; stroke-linecap:butt; stroke-linejoin:round; stroke-width:4; stroke-opacity:1; fill:none" points="
  1340.31,769.843 1340.31,1720.63 
  "/>
<polyline clip-path="url(#clip412)" style="stroke:#000000; stroke-linecap:butt; stroke-linejoin:round; stroke-width:4; stroke-opacity:1; fill:none" points="
  1340.31,769.843 1150.16,769.843 
  "/>
<polyline clip-path="url(#clip412)" style="stroke:#000000; stroke-linecap:butt; stroke-linejoin:round; stroke-width:4; stroke-opacity:1; fill:none" points="
  1178.96,784.243 1150.16,769.843 1178.96,755.443 
  "/>
<polyline clip-path="url(#clip412)" style="stroke:#000000; stroke-linecap:butt; stroke-linejoin:round; stroke-width:4; stroke-opacity:1; fill:none" points="
  1150.16,769.843 1340.31,769.843 
  "/>
<polyline clip-path="url(#clip412)" style="stroke:#000000; stroke-linecap:butt; stroke-linejoin:round; stroke-width:4; stroke-opacity:1; fill:none" points="
  1150.16,769.843 1150.16,864.921 
  "/>
<polyline clip-path="url(#clip412)" style="stroke:#000000; stroke-linecap:butt; stroke-linejoin:round; stroke-width:4; stroke-opacity:1; fill:none" points="
  1164.56,836.121 1150.16,864.921 1135.76,836.121 
  "/>
<polyline clip-path="url(#clip412)" style="stroke:#000000; stroke-linecap:butt; stroke-linejoin:round; stroke-width:4; stroke-opacity:1; fill:none" points="
  1150.16,864.921 1150.16,769.843 
  "/>
<polyline clip-path="url(#clip412)" style="stroke:#000000; stroke-linecap:butt; stroke-linejoin:round; stroke-width:4; stroke-opacity:1; fill:none" points="
  1150.16,864.921 1055.08,864.921 
  "/>
<polyline clip-path="url(#clip412)" style="stroke:#000000; stroke-linecap:butt; stroke-linejoin:round; stroke-width:4; stroke-opacity:1; fill:none" points="
  1083.88,879.321 1055.08,864.921 1083.88,850.521 
  "/>
<polyline clip-path="url(#clip412)" style="stroke:#000000; stroke-linecap:butt; stroke-linejoin:round; stroke-width:4; stroke-opacity:1; fill:none" points="
  1055.08,864.921 1150.16,864.921 
  "/>
<path clip-path="url(#clip410)" d="M1659.62 142.052 Q1659.62 142.626 1659.25 143.978 L1651.21 176.032 Q1649.45 183.164 1643.71 188.165 Q1638.02 193.165 1631.54 193.165 Q1627.64 193.165 1625.14 191.075 Q1622.64 189.025 1622.64 185.869 Q1622.64 183.082 1624.12 181.729 Q1625.6 180.418 1627.36 180.418 Q1627.93 180.418 1628.55 180.582 Q1629.16 180.746 1629.82 181.442 Q1630.47 182.139 1630.47 183.328 Q1630.47 185.254 1628.79 186.771 Q1627.97 187.468 1627.19 187.632 Q1626.46 187.796 1625.19 187.796 Q1625.68 188.943 1626.58 189.722 Q1627.48 190.501 1628.51 190.788 Q1629.53 191.116 1630.19 191.198 Q1630.88 191.321 1631.54 191.321 Q1636.79 191.321 1640.8 186.033 Q1641.99 184.435 1642.85 182.836 Q1643.75 181.278 1644.41 179.352 Q1645.07 177.466 1645.35 176.442 Q1645.68 175.417 1646.25 173.081 Q1642.44 176.893 1637.77 176.893 Q1635.8 176.893 1634.04 176.36 Q1632.32 175.827 1630.8 174.72 Q1629.28 173.572 1628.38 171.564 Q1627.52 169.556 1627.52 166.891 Q1627.52 164.063 1628.63 160.21 Q1629.74 156.357 1632.4 149.266 Q1633.83 145.29 1633.83 143.363 Q1633.83 142.421 1633.63 141.847 Q1633.42 141.232 1633.01 141.027 Q1632.6 140.781 1632.36 140.74 Q1632.15 140.699 1631.74 140.699 Q1629.33 140.699 1627.07 143.158 Q1624.82 145.618 1623.26 151.11 Q1622.93 152.135 1622.73 152.381 Q1622.52 152.627 1621.91 152.627 Q1620.88 152.586 1620.88 151.766 Q1620.88 151.438 1621.25 150.168 Q1621.62 148.856 1622.48 146.929 Q1623.38 144.962 1624.61 143.199 Q1625.84 141.396 1627.77 140.125 Q1629.74 138.855 1631.99 138.855 Q1635.06 138.855 1636.95 140.863 Q1638.88 142.83 1638.88 145.741 Q1638.88 146.929 1638.55 147.995 Q1638.26 149.02 1637.2 151.766 Q1632.89 162.833 1632.89 168.244 Q1632.89 169.556 1633.1 170.662 Q1633.34 171.728 1633.88 172.794 Q1634.41 173.818 1635.47 174.433 Q1636.58 175.007 1638.1 175.007 Q1640.02 175.007 1641.83 174.105 Q1643.67 173.163 1644.82 171.892 Q1646.01 170.621 1646.7 169.556 Q1647.44 168.449 1647.61 167.875 L1651.38 152.791 L1653.06 146.069 Q1653.84 142.421 1654.21 141.519 Q1654.7 140.658 1655.56 140.207 Q1656.42 139.756 1657.16 139.756 Q1658.18 139.756 1658.88 140.371 Q1659.62 140.986 1659.62 142.052 Z" fill="#000000" fill-rule="evenodd" fill-opacity="1" /><path clip-path="url(#clip410)" d="M1684.89 163.202 Q1684.97 162.177 1686.57 162.177 L1738.01 162.177 Q1740.43 162.177 1740.47 163.12 Q1740.47 164.145 1738.17 164.104 L1687.14 164.104 Q1684.89 164.145 1684.89 163.202 M1684.89 146.806 Q1684.89 145.782 1686.65 145.823 L1737.93 145.823 Q1740.43 145.823 1740.47 146.806 Q1740.47 147.749 1738.34 147.749 L1686.57 147.749 Q1684.89 147.749 1684.89 146.806 Z" fill="#000000" fill-rule="evenodd" fill-opacity="1" /><path clip-path="url(#clip410)" d="M1814.65 144.388 Q1814.65 146.683 1813.22 147.995 Q1811.78 149.266 1810.14 149.266 Q1808.58 149.266 1807.76 148.364 Q1806.95 147.462 1806.95 146.315 Q1806.95 144.757 1808.09 143.404 Q1809.24 142.052 1810.96 141.765 Q1809.28 140.699 1806.78 140.699 Q1805.14 140.699 1803.71 141.56 Q1802.31 142.421 1801.45 143.527 Q1800.63 144.634 1799.89 146.233 Q1799.2 147.79 1798.91 148.733 Q1798.67 149.635 1798.46 150.618 L1795.59 162.095 Q1794.2 167.547 1794.2 169.474 Q1794.2 171.851 1795.35 173.449 Q1796.49 175.007 1798.79 175.007 Q1799.69 175.007 1800.71 174.761 Q1801.74 174.474 1803.05 173.736 Q1804.4 172.958 1805.59 171.81 Q1806.82 170.621 1808.01 168.613 Q1809.2 166.604 1809.98 164.022 Q1810.22 163.12 1811.04 163.12 Q1812.07 163.12 1812.07 163.94 Q1812.07 164.637 1811.49 166.112 Q1810.96 167.547 1809.77 169.433 Q1808.63 171.277 1807.11 172.958 Q1805.59 174.597 1803.34 175.745 Q1801.08 176.893 1798.62 176.893 Q1795.1 176.893 1792.76 175.007 Q1790.43 173.122 1789.57 170.498 Q1789.36 170.867 1789.07 171.359 Q1788.79 171.851 1787.93 172.958 Q1787.11 174.023 1786.16 174.843 Q1785.22 175.622 1783.75 176.237 Q1782.31 176.893 1780.75 176.893 Q1778.79 176.893 1777.02 176.319 Q1775.3 175.745 1774.07 174.433 Q1772.84 173.122 1772.84 171.318 Q1772.84 169.31 1774.19 167.916 Q1775.59 166.481 1777.47 166.481 Q1778.66 166.481 1779.61 167.178 Q1780.59 167.875 1780.59 169.392 Q1780.59 171.072 1779.44 172.343 Q1778.29 173.613 1776.65 173.941 Q1778.33 175.007 1780.83 175.007 Q1783.54 175.007 1785.67 172.63 Q1787.8 170.252 1788.83 166.276 Q1791.37 156.726 1792.35 152.463 Q1793.34 148.159 1793.34 146.315 Q1793.34 144.593 1792.89 143.404 Q1792.43 142.216 1791.66 141.683 Q1790.92 141.109 1790.22 140.904 Q1789.57 140.699 1788.83 140.699 Q1787.6 140.699 1786.2 141.191 Q1784.85 141.683 1783.21 142.83 Q1781.61 143.937 1780.1 146.233 Q1778.58 148.528 1777.56 151.684 Q1777.35 152.627 1776.45 152.627 Q1775.47 152.586 1775.47 151.766 Q1775.47 151.069 1776 149.635 Q1776.57 148.159 1777.72 146.315 Q1778.91 144.47 1780.43 142.83 Q1781.98 141.15 1784.24 140.002 Q1786.53 138.855 1788.99 138.855 Q1790.1 138.855 1791.16 139.1 Q1792.27 139.305 1793.58 139.92 Q1794.94 140.535 1796.12 141.888 Q1797.31 143.24 1798.05 145.208 Q1798.54 144.265 1799.2 143.363 Q1799.89 142.462 1800.96 141.355 Q1802.07 140.207 1803.58 139.551 Q1805.14 138.855 1806.86 138.855 Q1808.54 138.855 1810.18 139.305 Q1811.82 139.715 1813.22 141.068 Q1814.65 142.38 1814.65 144.388 Z" fill="#000000" fill-rule="evenodd" fill-opacity="1" /><path clip-path="url(#clip410)" d="M1604.38 533.304 Q1604.38 533.878 1604.01 535.231 L1595.98 567.284 Q1594.22 574.416 1588.48 579.417 Q1582.78 584.418 1576.3 584.418 Q1572.41 584.418 1569.91 582.327 Q1567.41 580.278 1567.41 577.122 Q1567.41 574.334 1568.89 572.982 Q1570.36 571.67 1572.12 571.67 Q1572.7 571.67 1573.31 571.834 Q1573.93 571.998 1574.58 572.695 Q1575.24 573.392 1575.24 574.58 Q1575.24 576.507 1573.56 578.023 Q1572.74 578.72 1571.96 578.884 Q1571.22 579.048 1569.95 579.048 Q1570.44 580.196 1571.35 580.975 Q1572.25 581.753 1573.27 582.04 Q1574.3 582.368 1574.95 582.45 Q1575.65 582.573 1576.3 582.573 Q1581.55 582.573 1585.57 577.286 Q1586.76 575.687 1587.62 574.088 Q1588.52 572.531 1589.18 570.604 Q1589.83 568.719 1590.12 567.694 Q1590.45 566.669 1591.02 564.333 Q1587.21 568.145 1582.54 568.145 Q1580.57 568.145 1578.81 567.612 Q1577.08 567.079 1575.57 565.973 Q1574.05 564.825 1573.15 562.816 Q1572.29 560.808 1572.29 558.144 Q1572.29 555.315 1573.39 551.462 Q1574.5 547.609 1577.17 540.518 Q1578.6 536.542 1578.6 534.616 Q1578.6 533.673 1578.4 533.099 Q1578.19 532.484 1577.78 532.279 Q1577.37 532.033 1577.12 531.992 Q1576.92 531.952 1576.51 531.952 Q1574.09 531.952 1571.84 534.411 Q1569.58 536.87 1568.02 542.363 Q1567.7 543.388 1567.49 543.633 Q1567.29 543.879 1566.67 543.879 Q1565.65 543.838 1565.65 543.019 Q1565.65 542.691 1566.02 541.42 Q1566.39 540.108 1567.25 538.182 Q1568.15 536.214 1569.38 534.452 Q1570.61 532.648 1572.53 531.378 Q1574.5 530.107 1576.76 530.107 Q1579.83 530.107 1581.72 532.115 Q1583.64 534.083 1583.64 536.993 Q1583.64 538.182 1583.31 539.248 Q1583.03 540.272 1581.96 543.019 Q1577.66 554.086 1577.66 559.496 Q1577.66 560.808 1577.86 561.915 Q1578.11 562.98 1578.64 564.046 Q1579.17 565.071 1580.24 565.686 Q1581.35 566.26 1582.86 566.26 Q1584.79 566.26 1586.59 565.358 Q1588.44 564.415 1589.59 563.144 Q1590.77 561.874 1591.47 560.808 Q1592.21 559.701 1592.37 559.127 L1596.14 544.043 L1597.82 537.321 Q1598.6 533.673 1598.97 532.771 Q1599.46 531.911 1600.32 531.46 Q1601.19 531.009 1601.92 531.009 Q1602.95 531.009 1603.64 531.624 Q1604.38 532.238 1604.38 533.304 Z" fill="#000000" fill-rule="evenodd" fill-opacity="1" /><path clip-path="url(#clip410)" d="M1629.65 554.455 Q1629.73 553.43 1631.33 553.43 L1682.77 553.43 Q1685.19 553.43 1685.23 554.373 Q1685.23 555.397 1682.94 555.356 L1631.91 555.356 Q1629.65 555.397 1629.65 554.455 M1629.65 538.059 Q1629.65 537.034 1631.41 537.075 L1682.69 537.075 Q1685.19 537.075 1685.23 538.059 Q1685.23 539.002 1683.1 539.002 L1631.33 539.002 Q1629.65 539.002 1629.65 538.059 Z" fill="#000000" fill-rule="evenodd" fill-opacity="1" /><path clip-path="url(#clip410)" d="M1756.14 534.042 Q1756.14 534.083 1755.89 535.559 L1746.55 572.818 Q1746.05 574.785 1744.66 576.753 Q1743.31 578.761 1741.14 580.483 Q1739 582.245 1735.73 583.311 Q1732.49 584.418 1728.76 584.418 Q1722.81 584.418 1720.19 583.147 Q1717.61 581.917 1717.61 579.294 Q1717.61 576.999 1719.04 575.687 Q1720.48 574.416 1722.12 574.416 Q1723.67 574.416 1724.49 575.318 Q1725.31 576.22 1725.31 577.368 Q1725.31 578.638 1724.45 579.909 Q1723.59 581.221 1721.87 581.712 Q1724.62 582.573 1728.59 582.573 Q1737 582.573 1740.6 573.679 Q1740.68 573.556 1740.68 573.515 L1743.47 562.407 L1743.35 562.325 Q1742.65 563.144 1741.55 564.087 Q1740.48 564.989 1738.18 566.096 Q1735.89 567.202 1733.63 567.202 Q1728.92 567.202 1725.68 563.595 Q1722.49 559.947 1722.49 553.922 Q1722.49 549.536 1724.25 545.15 Q1726.05 540.723 1728.84 537.485 Q1731.67 534.206 1735.27 532.156 Q1738.92 530.107 1742.45 530.107 Q1744.91 530.107 1747 531.583 Q1749.09 533.017 1750.24 535.395 Q1750.44 533.427 1751.55 532.607 Q1752.69 531.788 1753.68 531.788 Q1754.79 531.788 1755.44 532.402 Q1756.14 532.976 1756.14 534.042 M1749.25 539.166 Q1749.25 538.92 1749.09 538.264 Q1748.92 537.567 1748.43 536.46 Q1747.98 535.354 1747.28 534.37 Q1746.59 533.386 1745.32 532.689 Q1744.09 531.952 1742.53 531.952 Q1739.99 531.952 1737.45 534.083 Q1734.91 536.173 1733.14 539.412 Q1731.5 542.527 1729.95 548.552 Q1728.43 554.578 1728.43 557.652 Q1728.43 560.685 1729.74 563.021 Q1731.05 565.358 1733.88 565.358 Q1737.16 565.358 1740.68 562.325 Q1744.33 559.168 1744.95 556.463 L1749.01 540.436 Q1749.25 539.453 1749.25 539.166 Z" fill="#000000" fill-rule="evenodd" fill-opacity="1" /><path clip-path="url(#clip410)" d="M1767.64 546.216 Q1767.64 532.033 1772.93 520.597 Q1775.19 515.802 1778.34 511.785 Q1781.5 507.768 1783.59 506.005 Q1785.68 504.243 1786.25 504.243 Q1787.07 504.243 1787.11 505.063 Q1787.11 505.472 1786.01 506.497 Q1772.48 520.27 1772.52 546.216 Q1772.52 572.244 1785.68 585.484 Q1787.11 586.918 1787.11 587.369 Q1787.11 588.189 1786.25 588.189 Q1785.68 588.189 1783.67 586.508 Q1781.66 584.828 1778.55 580.975 Q1775.43 577.122 1773.18 572.408 Q1767.64 560.972 1767.64 546.216 Z" fill="#000000" fill-rule="evenodd" fill-opacity="1" /><path clip-path="url(#clip410)" d="M1835.3 535.641 Q1835.3 537.936 1833.87 539.248 Q1832.43 540.518 1830.79 540.518 Q1829.23 540.518 1828.41 539.617 Q1827.6 538.715 1827.6 537.567 Q1827.6 536.009 1828.74 534.657 Q1829.89 533.304 1831.61 533.017 Q1829.93 531.952 1827.43 531.952 Q1825.79 531.952 1824.36 532.812 Q1822.96 533.673 1822.1 534.78 Q1821.28 535.886 1820.55 537.485 Q1819.85 539.043 1819.56 539.985 Q1819.32 540.887 1819.11 541.871 L1816.24 553.348 Q1814.85 558.799 1814.85 560.726 Q1814.85 563.103 1816 564.702 Q1817.14 566.26 1819.44 566.26 Q1820.34 566.26 1821.36 566.014 Q1822.39 565.727 1823.7 564.989 Q1825.05 564.21 1826.24 563.062 Q1827.47 561.874 1828.66 559.865 Q1829.85 557.857 1830.63 555.274 Q1830.87 554.373 1831.69 554.373 Q1832.72 554.373 1832.72 555.192 Q1832.72 555.889 1832.14 557.365 Q1831.61 558.799 1830.42 560.685 Q1829.28 562.53 1827.76 564.21 Q1826.24 565.85 1823.99 566.997 Q1821.73 568.145 1819.27 568.145 Q1815.75 568.145 1813.41 566.26 Q1811.08 564.374 1810.22 561.751 Q1810.01 562.12 1809.72 562.611 Q1809.44 563.103 1808.58 564.21 Q1807.76 565.276 1806.81 566.096 Q1805.87 566.874 1804.4 567.489 Q1802.96 568.145 1801.4 568.145 Q1799.44 568.145 1797.67 567.571 Q1795.95 566.997 1794.72 565.686 Q1793.49 564.374 1793.49 562.571 Q1793.49 560.562 1794.84 559.168 Q1796.24 557.734 1798.12 557.734 Q1799.31 557.734 1800.26 558.431 Q1801.24 559.127 1801.24 560.644 Q1801.24 562.325 1800.09 563.595 Q1798.94 564.866 1797.3 565.194 Q1798.98 566.26 1801.49 566.26 Q1804.19 566.26 1806.32 563.882 Q1808.45 561.505 1809.48 557.529 Q1812.02 547.978 1813 543.715 Q1813.99 539.412 1813.99 537.567 Q1813.99 535.845 1813.54 534.657 Q1813.08 533.468 1812.31 532.935 Q1811.57 532.361 1810.87 532.156 Q1810.22 531.952 1809.48 531.952 Q1808.25 531.952 1806.85 532.443 Q1805.5 532.935 1803.86 534.083 Q1802.26 535.19 1800.75 537.485 Q1799.23 539.78 1798.21 542.937 Q1798 543.879 1797.1 543.879 Q1796.12 543.838 1796.12 543.019 Q1796.12 542.322 1796.65 540.887 Q1797.22 539.412 1798.37 537.567 Q1799.56 535.723 1801.08 534.083 Q1802.63 532.402 1804.89 531.255 Q1807.18 530.107 1809.64 530.107 Q1810.75 530.107 1811.81 530.353 Q1812.92 530.558 1814.23 531.173 Q1815.59 531.788 1816.77 533.14 Q1817.96 534.493 1818.7 536.46 Q1819.19 535.518 1819.85 534.616 Q1820.55 533.714 1821.61 532.607 Q1822.72 531.46 1824.23 530.804 Q1825.79 530.107 1827.51 530.107 Q1829.19 530.107 1830.83 530.558 Q1832.47 530.968 1833.87 532.32 Q1835.3 533.632 1835.3 535.641 Z" fill="#000000" fill-rule="evenodd" fill-opacity="1" /><path clip-path="url(#clip410)" d="M1843.38 587.369 Q1843.38 586.959 1844.45 585.934 Q1857.97 572.162 1857.97 546.216 Q1857.97 520.188 1844.98 507.03 Q1843.38 505.513 1843.38 505.063 Q1843.38 504.243 1844.2 504.243 Q1844.77 504.243 1846.78 505.923 Q1848.83 507.604 1851.91 511.457 Q1855.02 515.31 1857.32 520.024 Q1862.85 531.46 1862.85 546.216 Q1862.85 560.398 1857.56 571.834 Q1855.31 576.63 1852.15 580.647 Q1849 584.664 1846.91 586.426 Q1844.81 588.189 1844.2 588.189 Q1843.38 588.189 1843.38 587.369 Z" fill="#000000" fill-rule="evenodd" fill-opacity="1" /></svg>
