<?xml version="1.0" encoding="utf-8"?>
<svg xmlns="http://www.w3.org/2000/svg" xmlns:xlink="http://www.w3.org/1999/xlink" width="480" height="480" viewBox="0 0 1920 1920">
<defs>
  <clipPath id="clip700">
    <rect x="0" y="0" width="1920" height="1920"/>
  </clipPath>
</defs>
<path clip-path="url(#clip700)" d="
M0 1920 L1920 1920 L1920 0 L0 0  Z
  " fill="#ffffff" fill-rule="evenodd" fill-opacity="1"/>
<defs>
  <clipPath id="clip701">
    <rect x="384" y="192" width="1345" height="1345"/>
  </clipPath>
</defs>
<path clip-path="url(#clip700)" d="
M142.905 1785.97 L1872.76 1785.97 L1872.76 47.2441 L142.905 47.2441  Z
  " fill="#ffffff" fill-rule="evenodd" fill-opacity="1"/>
<defs>
  <clipPath id="clip702">
    <rect x="142" y="47" width="1731" height="1740"/>
  </clipPath>
</defs>
<polyline clip-path="url(#clip700)" style="stroke:#000000; stroke-linecap:butt; stroke-linejoin:round; stroke-width:4; stroke-opacity:1; fill:none" points="
  142.905,1785.97 1872.76,1785.97 
  "/>
<polyline clip-path="url(#clip700)" style="stroke:#000000; stroke-linecap:butt; stroke-linejoin:round; stroke-width:4; stroke-opacity:1; fill:none" points="
  142.905,47.2441 1872.76,47.2441 
  "/>
<polyline clip-path="url(#clip700)" style="stroke:#000000; stroke-linecap:butt; stroke-linejoin:round; stroke-width:4; stroke-opacity:1; fill:none" points="
  142.905,1785.97 142.905,1767.07 
  "/>
<polyline clip-path="url(#clip700)" style="stroke:#000000; stroke-linecap:butt; stroke-linejoin:round; stroke-width:4; stroke-opacity:1; fill:none" points="
  335.111,1785.97 335.111,1767.07 
  "/>
<polyline clip-path="url(#clip700)" style="stroke:#000000; stroke-linecap:butt; stroke-linejoin:round; stroke-width:4; stroke-opacity:1; fill:none" points="
  527.316,1785.97 527.316,1767.07 
  "/>
<polyline clip-path="url(#clip700)" style="stroke:#000000; stroke-linecap:butt; stroke-linejoin:round; stroke-width:4; stroke-opacity:1; fill:none" points="
  719.522,1785.97 719.522,1767.07 
  "/>
<polyline clip-path="url(#clip700)" style="stroke:#000000; stroke-linecap:butt; stroke-linejoin:round; stroke-width:4; stroke-opacity:1; fill:none" points="
  911.728,1785.97 911.728,1767.07 
  "/>
<polyline clip-path="url(#clip700)" style="stroke:#000000; stroke-linecap:butt; stroke-linejoin:round; stroke-width:4; stroke-opacity:1; fill:none" points="
  1103.93,1785.97 1103.93,1767.07 
  "/>
<polyline clip-path="url(#clip700)" style="stroke:#000000; stroke-linecap:butt; stroke-linejoin:round; stroke-width:4; stroke-opacity:1; fill:none" points="
  1296.14,1785.97 1296.14,1767.07 
  "/>
<polyline clip-path="url(#clip700)" style="stroke:#000000; stroke-linecap:butt; stroke-linejoin:round; stroke-width:4; stroke-opacity:1; fill:none" points="
  1488.34,1785.97 1488.34,1767.07 
  "/>
<polyline clip-path="url(#clip700)" style="stroke:#000000; stroke-linecap:butt; stroke-linejoin:round; stroke-width:4; stroke-opacity:1; fill:none" points="
  1680.55,1785.97 1680.55,1767.07 
  "/>
<polyline clip-path="url(#clip700)" style="stroke:#000000; stroke-linecap:butt; stroke-linejoin:round; stroke-width:4; stroke-opacity:1; fill:none" points="
  1872.76,1785.97 1872.76,1767.07 
  "/>
<path clip-path="url(#clip700)" d="M144.216 1829.88 Q144.497 1830.16 144.497 1830.56 Q144.497 1830.95 144.216 1831.23 Q143.935 1831.52 143.537 1831.52 L113.509 1831.52 Q113.111 1831.52 112.83 1831.23 Q112.549 1830.95 112.549 1830.56 Q112.549 1830.16 112.83 1829.88 Q113.111 1829.6 113.509 1829.6 L143.537 1829.6 Q143.935 1829.6 144.216 1829.88 Z" fill="#000000" fill-rule="evenodd" fill-opacity="1" /><path clip-path="url(#clip700)" d="M149.505 1836.08 Q149.505 1834.65 150.325 1833.98 Q151.145 1833.3 152.199 1833.3 Q153.3 1833.3 154.073 1834.02 Q154.869 1834.72 154.869 1835.97 Q154.869 1837.3 153.932 1838.05 Q153.019 1838.8 151.707 1838.61 Q152.855 1840.53 154.963 1841.4 Q157.094 1842.27 159.062 1842.27 Q161.123 1842.27 162.786 1840.49 Q164.472 1838.71 164.472 1834.35 Q164.472 1830.65 163.02 1828.52 Q161.591 1826.39 158.757 1826.39 L156.649 1826.39 Q155.923 1826.39 155.712 1826.32 Q155.502 1826.25 155.502 1825.85 Q155.502 1825.38 156.228 1825.29 Q156.954 1825.29 158.101 1825.14 Q160.889 1825.05 162.364 1822.64 Q163.699 1820.39 163.699 1817.18 Q163.699 1814.25 162.294 1813.04 Q160.912 1811.79 159.109 1811.79 Q157.422 1811.79 155.572 1812.5 Q153.721 1813.2 152.714 1814.77 Q155.689 1814.77 155.689 1817.18 Q155.689 1818.24 155.01 1818.94 Q154.354 1819.62 153.253 1819.62 Q152.199 1819.62 151.496 1818.96 Q150.794 1818.28 150.794 1817.13 Q150.794 1814.39 153.23 1812.5 Q155.689 1810.6 159.296 1810.6 Q162.856 1810.6 165.479 1812.47 Q168.126 1814.35 168.126 1817.23 Q168.126 1820.06 166.252 1822.38 Q164.379 1824.7 161.404 1825.66 Q165.058 1826.39 167.236 1828.87 Q169.414 1831.33 169.414 1834.35 Q169.414 1838.1 166.463 1840.86 Q163.512 1843.6 159.202 1843.6 Q155.22 1843.6 152.363 1841.45 Q149.505 1839.29 149.505 1836.08 Z" fill="#000000" fill-rule="evenodd" fill-opacity="1" /><path clip-path="url(#clip700)" d="M336.421 1830.4 Q336.702 1830.68 336.702 1831.08 Q336.702 1831.48 336.421 1831.76 Q336.14 1832.04 335.742 1832.04 L305.715 1832.04 Q305.316 1832.04 305.035 1831.76 Q304.754 1831.48 304.754 1831.08 Q304.754 1830.68 305.035 1830.4 Q305.316 1830.12 305.715 1830.12 L335.742 1830.12 Q336.14 1830.12 336.421 1830.4 Z" fill="#000000" fill-rule="evenodd" fill-opacity="1" /><path clip-path="url(#clip700)" d="M341.711 1843.07 Q341.711 1842.21 341.781 1841.95 Q341.875 1841.69 342.25 1841.29 L351.455 1831.03 Q356.491 1825.37 356.491 1820.42 Q356.491 1817.21 354.804 1814.92 Q353.141 1812.62 350.073 1812.62 Q347.965 1812.62 346.185 1813.91 Q344.405 1815.2 343.585 1817.5 Q343.725 1817.45 344.217 1817.45 Q345.412 1817.45 346.068 1818.2 Q346.747 1818.95 346.747 1819.95 Q346.747 1821.24 345.904 1821.88 Q345.084 1822.48 344.264 1822.48 Q343.936 1822.48 343.491 1822.41 Q343.07 1822.34 342.39 1821.69 Q341.711 1821.01 341.711 1819.81 Q341.711 1816.46 344.241 1813.79 Q346.794 1811.12 350.682 1811.12 Q355.085 1811.12 357.966 1813.75 Q360.871 1816.35 360.871 1820.42 Q360.871 1821.85 360.426 1823.16 Q360.004 1824.45 359.418 1825.46 Q358.856 1826.47 357.31 1828.08 Q355.764 1829.7 354.523 1830.85 Q353.282 1831.99 350.494 1834.43 L345.412 1839.37 L354.055 1839.37 Q358.271 1839.37 358.599 1839 Q359.067 1838.32 359.653 1834.73 L360.871 1834.73 L359.512 1843.07 L341.711 1843.07 Z" fill="#000000" fill-rule="evenodd" fill-opacity="1" /><path clip-path="url(#clip700)" d="M528.627 1830.4 Q528.908 1830.68 528.908 1831.08 Q528.908 1831.48 528.627 1831.76 Q528.346 1832.04 527.948 1832.04 L497.92 1832.04 Q497.522 1832.04 497.241 1831.76 Q496.96 1831.48 496.96 1831.08 Q496.96 1830.68 497.241 1830.4 Q497.522 1830.12 497.92 1830.12 L527.948 1830.12 Q528.346 1830.12 528.627 1830.4 Z" fill="#000000" fill-rule="evenodd" fill-opacity="1" /><path clip-path="url(#clip700)" d="M533.917 1815.69 L533.917 1814.19 Q539.679 1814.19 542.653 1811.12 Q543.473 1811.12 543.614 1811.31 Q543.754 1811.5 543.754 1812.37 L543.754 1839.28 Q543.754 1840.71 544.457 1841.15 Q545.159 1841.6 548.228 1841.6 L549.75 1841.6 L549.75 1843.07 Q548.064 1842.93 541.974 1842.93 Q535.884 1842.93 534.221 1843.07 L534.221 1841.6 L535.744 1841.6 Q538.765 1841.6 539.491 1841.18 Q540.217 1840.73 540.217 1839.28 L540.217 1814.43 Q537.711 1815.69 533.917 1815.69 Z" fill="#000000" fill-rule="evenodd" fill-opacity="1" /><path clip-path="url(#clip700)" d="M707.644 1827.21 Q707.644 1820.16 709.424 1816.31 Q711.907 1810.6 717.762 1810.6 Q719.004 1810.6 720.292 1810.95 Q721.604 1811.28 723.243 1812.57 Q724.906 1813.86 725.913 1815.96 Q727.834 1820.04 727.834 1827.21 Q727.834 1834.21 726.054 1838.03 Q723.454 1843.6 717.716 1843.6 Q715.561 1843.6 713.359 1842.5 Q711.181 1841.4 709.799 1838.75 Q707.644 1834.8 707.644 1827.21 M711.626 1826.62 Q711.626 1833.86 712.141 1836.74 Q712.727 1839.85 714.319 1841.21 Q715.935 1842.55 717.716 1842.55 Q719.636 1842.55 721.229 1841.12 Q722.845 1839.67 723.337 1836.55 Q723.876 1833.48 723.852 1826.62 Q723.852 1819.95 723.384 1817.28 Q722.751 1814.16 721.065 1812.92 Q719.402 1811.65 717.716 1811.65 Q717.083 1811.65 716.404 1811.84 Q715.748 1812.03 714.788 1812.57 Q713.827 1813.11 713.078 1814.44 Q712.352 1815.78 712 1817.79 Q711.626 1820.39 711.626 1826.62 Z" fill="#000000" fill-rule="evenodd" fill-opacity="1" /><path clip-path="url(#clip700)" d="M899.85 1815.69 L899.85 1814.19 Q905.611 1814.19 908.586 1811.12 Q909.406 1811.12 909.546 1811.31 Q909.687 1811.5 909.687 1812.37 L909.687 1839.28 Q909.687 1840.71 910.39 1841.15 Q911.092 1841.6 914.161 1841.6 L915.683 1841.6 L915.683 1843.07 Q913.997 1842.93 907.907 1842.93 Q901.817 1842.93 900.154 1843.07 L900.154 1841.6 L901.677 1841.6 Q904.698 1841.6 905.424 1841.18 Q906.15 1840.73 906.15 1839.28 L906.15 1814.43 Q903.644 1815.69 899.85 1815.69 Z" fill="#000000" fill-rule="evenodd" fill-opacity="1" /><path clip-path="url(#clip700)" d="M1092.06 1843.07 Q1092.06 1842.21 1092.13 1841.95 Q1092.22 1841.69 1092.59 1841.29 L1101.8 1831.03 Q1106.83 1825.37 1106.83 1820.42 Q1106.83 1817.21 1105.15 1814.92 Q1103.49 1812.62 1100.42 1812.62 Q1098.31 1812.62 1096.53 1813.91 Q1094.75 1815.2 1093.93 1817.5 Q1094.07 1817.45 1094.56 1817.45 Q1095.76 1817.45 1096.41 1818.2 Q1097.09 1818.95 1097.09 1819.95 Q1097.09 1821.24 1096.25 1821.88 Q1095.43 1822.48 1094.61 1822.48 Q1094.28 1822.48 1093.84 1822.41 Q1093.41 1822.34 1092.73 1821.69 Q1092.06 1821.01 1092.06 1819.81 Q1092.06 1816.46 1094.58 1813.79 Q1097.14 1811.12 1101.03 1811.12 Q1105.43 1811.12 1108.31 1813.75 Q1111.21 1816.35 1111.21 1820.42 Q1111.21 1821.85 1110.77 1823.16 Q1110.35 1824.45 1109.76 1825.46 Q1109.2 1826.47 1107.65 1828.08 Q1106.11 1829.7 1104.87 1830.85 Q1103.63 1831.99 1100.84 1834.43 L1095.76 1839.37 L1104.4 1839.37 Q1108.61 1839.37 1108.94 1839 Q1109.41 1838.32 1110 1834.73 L1111.21 1834.73 L1109.86 1843.07 L1092.06 1843.07 Z" fill="#000000" fill-rule="evenodd" fill-opacity="1" /><path clip-path="url(#clip700)" d="M1284.26 1836.08 Q1284.26 1834.65 1285.08 1833.98 Q1285.9 1833.3 1286.95 1833.3 Q1288.06 1833.3 1288.83 1834.02 Q1289.62 1834.72 1289.62 1835.97 Q1289.62 1837.3 1288.69 1838.05 Q1287.77 1838.8 1286.46 1838.61 Q1287.61 1840.53 1289.72 1841.4 Q1291.85 1842.27 1293.82 1842.27 Q1295.88 1842.27 1297.54 1840.49 Q1299.23 1838.71 1299.23 1834.35 Q1299.23 1830.65 1297.78 1828.52 Q1296.35 1826.39 1293.51 1826.39 L1291.4 1826.39 Q1290.68 1826.39 1290.47 1826.32 Q1290.26 1826.25 1290.26 1825.85 Q1290.26 1825.38 1290.98 1825.29 Q1291.71 1825.29 1292.86 1825.14 Q1295.64 1825.05 1297.12 1822.64 Q1298.45 1820.39 1298.45 1817.18 Q1298.45 1814.25 1297.05 1813.04 Q1295.67 1811.79 1293.86 1811.79 Q1292.18 1811.79 1290.33 1812.5 Q1288.48 1813.2 1287.47 1814.77 Q1290.44 1814.77 1290.44 1817.18 Q1290.44 1818.24 1289.77 1818.94 Q1289.11 1819.62 1288.01 1819.62 Q1286.95 1819.62 1286.25 1818.96 Q1285.55 1818.28 1285.55 1817.13 Q1285.55 1814.39 1287.99 1812.5 Q1290.44 1810.6 1294.05 1810.6 Q1297.61 1810.6 1300.23 1812.47 Q1302.88 1814.35 1302.88 1817.23 Q1302.88 1820.06 1301.01 1822.38 Q1299.13 1824.7 1296.16 1825.66 Q1299.81 1826.39 1301.99 1828.87 Q1304.17 1831.33 1304.17 1834.35 Q1304.17 1838.1 1301.22 1840.86 Q1298.27 1843.6 1293.96 1843.6 Q1289.98 1843.6 1287.12 1841.45 Q1284.26 1839.29 1284.26 1836.08 Z" fill="#000000" fill-rule="evenodd" fill-opacity="1" /><path clip-path="url(#clip700)" d="M1476.47 1835.42 L1476.47 1833.94 L1491.2 1811.43 Q1491.57 1810.85 1492.16 1810.87 Q1492.7 1810.87 1492.82 1811.08 Q1492.93 1811.29 1492.93 1812.11 L1492.93 1833.94 L1497.73 1833.94 L1497.73 1835.42 L1492.93 1835.42 L1492.93 1839.59 Q1492.93 1840.97 1493.49 1841.41 Q1494.08 1841.86 1496.56 1841.86 L1497.57 1841.86 L1497.57 1843.34 Q1495.6 1843.19 1491.06 1843.19 Q1486.54 1843.19 1484.57 1843.34 L1484.57 1841.86 L1485.58 1841.86 Q1488.06 1841.86 1488.65 1841.44 Q1489.23 1840.99 1489.23 1839.59 L1489.23 1835.42 L1476.47 1835.42 M1477.82 1833.94 L1489.51 1833.94 L1489.51 1816.05 L1477.82 1833.94 Z" fill="#000000" fill-rule="evenodd" fill-opacity="1" /><path clip-path="url(#clip700)" d="M1668.67 1834.82 Q1668.67 1833.39 1669.45 1832.85 Q1670.22 1832.29 1671.04 1832.29 Q1672.14 1832.29 1672.77 1832.99 Q1673.43 1833.67 1673.43 1834.63 Q1673.43 1835.59 1672.77 1836.29 Q1672.14 1836.97 1671.04 1836.97 Q1670.5 1836.97 1670.22 1836.88 Q1670.85 1839.08 1672.77 1840.67 Q1674.72 1842.27 1677.27 1842.27 Q1680.48 1842.27 1682.4 1839.15 Q1683.55 1837.14 1683.55 1832.57 Q1683.55 1828.54 1682.68 1826.53 Q1681.34 1823.46 1678.6 1823.46 Q1674.72 1823.46 1672.42 1826.81 Q1672.14 1827.23 1671.81 1827.25 Q1671.34 1827.25 1671.23 1827 Q1671.13 1826.71 1671.13 1825.99 L1671.13 1811.79 Q1671.13 1810.65 1671.6 1810.65 Q1671.79 1810.65 1672.19 1810.79 Q1675.21 1812.12 1678.56 1812.15 Q1682 1812.15 1685.09 1810.74 Q1685.33 1810.6 1685.47 1810.6 Q1685.93 1810.6 1685.96 1811.14 Q1685.96 1811.33 1685.56 1811.89 Q1685.18 1812.43 1684.37 1813.15 Q1683.55 1813.86 1682.49 1814.53 Q1681.44 1815.21 1679.89 1815.68 Q1678.37 1816.13 1676.68 1816.13 Q1674.67 1816.13 1672.61 1815.49 L1672.61 1824.84 Q1675.09 1822.4 1678.7 1822.4 Q1682.54 1822.4 1685.18 1825.5 Q1687.83 1828.59 1687.83 1832.9 Q1687.83 1837.42 1684.69 1840.51 Q1681.58 1843.6 1677.36 1843.6 Q1673.52 1843.6 1671.08 1840.86 Q1668.67 1838.12 1668.67 1834.82 Z" fill="#000000" fill-rule="evenodd" fill-opacity="1" /><path clip-path="url(#clip700)" d="M1860.88 1827.39 Q1860.88 1819.85 1864.72 1815.24 Q1868.56 1810.6 1873.5 1810.6 Q1876.38 1810.6 1877.98 1812.08 Q1879.59 1813.53 1879.59 1815.78 Q1879.59 1817.02 1878.87 1817.56 Q1878.14 1818.09 1877.39 1818.09 Q1876.52 1818.09 1875.84 1817.51 Q1875.17 1816.92 1875.17 1815.87 Q1875.17 1813.71 1877.81 1813.71 Q1876.57 1811.79 1873.6 1811.79 Q1872.68 1811.79 1871.75 1812.08 Q1870.81 1812.33 1869.59 1813.22 Q1868.37 1814.11 1867.44 1815.52 Q1866.5 1816.92 1865.84 1819.57 Q1865.19 1822.22 1865.19 1825.66 L1865.19 1826.81 Q1867.15 1822.05 1871.18 1822.08 Q1875.21 1822.08 1878 1825.14 Q1880.79 1828.21 1880.79 1832.76 Q1880.79 1837.42 1877.88 1840.51 Q1874.98 1843.6 1870.9 1843.6 Q1869.08 1843.6 1867.41 1842.83 Q1865.77 1842.08 1864.23 1840.35 Q1862.7 1838.61 1861.79 1835.29 Q1860.88 1831.96 1860.88 1827.39 M1865.28 1831.7 Q1865.28 1836.41 1866.15 1838.66 Q1866.29 1839.03 1866.59 1839.55 Q1866.92 1840.07 1867.46 1840.74 Q1868.02 1841.4 1868.94 1841.85 Q1869.85 1842.27 1870.9 1842.27 Q1874.11 1842.27 1875.66 1839.15 Q1876.48 1837.42 1876.48 1832.71 Q1876.48 1827.91 1875.61 1826.15 Q1874.13 1823.18 1871.14 1823.18 Q1869.12 1823.18 1867.72 1824.56 Q1866.34 1825.94 1865.8 1827.79 Q1865.28 1829.64 1865.28 1831.7 Z" fill="#000000" fill-rule="evenodd" fill-opacity="1" /><polyline clip-path="url(#clip700)" style="stroke:#000000; stroke-linecap:butt; stroke-linejoin:round; stroke-width:4; stroke-opacity:1; fill:none" points="
  142.905,1785.97 142.905,47.2441 
  "/>
<polyline clip-path="url(#clip700)" style="stroke:#000000; stroke-linecap:butt; stroke-linejoin:round; stroke-width:4; stroke-opacity:1; fill:none" points="
  1872.76,1785.97 1872.76,47.2441 
  "/>
<polyline clip-path="url(#clip700)" style="stroke:#000000; stroke-linecap:butt; stroke-linejoin:round; stroke-width:4; stroke-opacity:1; fill:none" points="
  142.905,1785.97 161.803,1785.97 
  "/>
<polyline clip-path="url(#clip700)" style="stroke:#000000; stroke-linecap:butt; stroke-linejoin:round; stroke-width:4; stroke-opacity:1; fill:none" points="
  142.905,1592.78 161.803,1592.78 
  "/>
<polyline clip-path="url(#clip700)" style="stroke:#000000; stroke-linecap:butt; stroke-linejoin:round; stroke-width:4; stroke-opacity:1; fill:none" points="
  142.905,1399.58 161.803,1399.58 
  "/>
<polyline clip-path="url(#clip700)" style="stroke:#000000; stroke-linecap:butt; stroke-linejoin:round; stroke-width:4; stroke-opacity:1; fill:none" points="
  142.905,1206.39 161.803,1206.39 
  "/>
<polyline clip-path="url(#clip700)" style="stroke:#000000; stroke-linecap:butt; stroke-linejoin:round; stroke-width:4; stroke-opacity:1; fill:none" points="
  142.905,1013.2 161.803,1013.2 
  "/>
<polyline clip-path="url(#clip700)" style="stroke:#000000; stroke-linecap:butt; stroke-linejoin:round; stroke-width:4; stroke-opacity:1; fill:none" points="
  142.905,820.01 161.803,820.01 
  "/>
<polyline clip-path="url(#clip700)" style="stroke:#000000; stroke-linecap:butt; stroke-linejoin:round; stroke-width:4; stroke-opacity:1; fill:none" points="
  142.905,626.819 161.803,626.819 
  "/>
<polyline clip-path="url(#clip700)" style="stroke:#000000; stroke-linecap:butt; stroke-linejoin:round; stroke-width:4; stroke-opacity:1; fill:none" points="
  142.905,433.627 161.803,433.627 
  "/>
<polyline clip-path="url(#clip700)" style="stroke:#000000; stroke-linecap:butt; stroke-linejoin:round; stroke-width:4; stroke-opacity:1; fill:none" points="
  142.905,240.436 161.803,240.436 
  "/>
<polyline clip-path="url(#clip700)" style="stroke:#000000; stroke-linecap:butt; stroke-linejoin:round; stroke-width:4; stroke-opacity:1; fill:none" points="
  142.905,47.2441 161.803,47.2441 
  "/>
<path clip-path="url(#clip700)" d="M85.0593 1788.6 Q85.3403 1788.88 85.3403 1789.28 Q85.3403 1789.67 85.0593 1789.95 Q84.7782 1790.24 84.38 1790.24 L54.3524 1790.24 Q53.9543 1790.24 53.6732 1789.95 Q53.3921 1789.67 53.3921 1789.28 Q53.3921 1788.88 53.6732 1788.6 Q53.9543 1788.32 54.3524 1788.32 L84.38 1788.32 Q84.7782 1788.32 85.0593 1788.6 Z" fill="#000000" fill-rule="evenodd" fill-opacity="1" /><path clip-path="url(#clip700)" d="M90.3489 1794.8 Q90.3489 1793.37 91.1686 1792.7 Q91.9884 1792.02 93.0424 1792.02 Q94.1433 1792.02 94.9162 1792.74 Q95.7126 1793.44 95.7126 1794.69 Q95.7126 1796.02 94.7757 1796.77 Q93.8622 1797.52 92.5506 1797.33 Q93.6983 1799.25 95.8063 1800.12 Q97.9377 1800.99 99.9052 1800.99 Q101.966 1800.99 103.629 1799.21 Q105.316 1797.43 105.316 1793.07 Q105.316 1789.37 103.864 1787.24 Q102.435 1785.11 99.6007 1785.11 L97.4927 1785.11 Q96.7666 1785.11 96.5558 1785.04 Q96.345 1784.97 96.345 1784.57 Q96.345 1784.1 97.0711 1784.01 Q97.7972 1784.01 98.9449 1783.86 Q101.732 1783.77 103.208 1781.36 Q104.543 1779.11 104.543 1775.9 Q104.543 1772.97 103.138 1771.76 Q101.756 1770.51 99.9521 1770.51 Q98.2657 1770.51 96.4153 1771.22 Q94.5649 1771.92 93.5577 1773.49 Q96.5324 1773.49 96.5324 1775.9 Q96.5324 1776.96 95.8531 1777.66 Q95.1973 1778.34 94.0965 1778.34 Q93.0424 1778.34 92.3398 1777.68 Q91.6371 1777 91.6371 1775.85 Q91.6371 1773.11 94.073 1771.22 Q96.5324 1769.32 100.139 1769.32 Q103.7 1769.32 106.323 1771.19 Q108.97 1773.07 108.97 1775.95 Q108.97 1778.78 107.096 1781.1 Q105.222 1783.42 102.247 1784.38 Q105.901 1785.11 108.08 1787.59 Q110.258 1790.05 110.258 1793.07 Q110.258 1796.82 107.307 1799.58 Q104.355 1802.32 100.046 1802.32 Q96.0639 1802.32 93.2064 1800.17 Q90.3489 1798.01 90.3489 1794.8 Z" fill="#000000" fill-rule="evenodd" fill-opacity="1" /><path clip-path="url(#clip700)" d="M85.0593 1595.93 Q85.3403 1596.21 85.3403 1596.61 Q85.3403 1597.01 85.0593 1597.29 Q84.7782 1597.57 84.38 1597.57 L54.3524 1597.57 Q53.9543 1597.57 53.6732 1597.29 Q53.3921 1597.01 53.3921 1596.61 Q53.3921 1596.21 53.6732 1595.93 Q53.9543 1595.65 54.3524 1595.65 L84.38 1595.65 Q84.7782 1595.65 85.0593 1595.93 Z" fill="#000000" fill-rule="evenodd" fill-opacity="1" /><path clip-path="url(#clip700)" d="M90.3489 1608.6 Q90.3489 1607.73 90.4191 1607.48 Q90.5128 1607.22 90.8876 1606.82 L100.093 1596.56 Q105.128 1590.89 105.128 1585.95 Q105.128 1582.74 103.442 1580.45 Q101.779 1578.15 98.7107 1578.15 Q96.6027 1578.15 94.8226 1579.44 Q93.0424 1580.73 92.2227 1583.02 Q92.3632 1582.98 92.8551 1582.98 Q94.0496 1582.98 94.7054 1583.73 Q95.3847 1584.48 95.3847 1585.48 Q95.3847 1586.77 94.5415 1587.4 Q93.7217 1588.01 92.9019 1588.01 Q92.574 1588.01 92.129 1587.94 Q91.7074 1587.87 91.0281 1587.22 Q90.3489 1586.54 90.3489 1585.34 Q90.3489 1581.99 92.8785 1579.32 Q95.4315 1576.65 99.3197 1576.65 Q103.723 1576.65 106.604 1579.28 Q109.508 1581.88 109.508 1585.95 Q109.508 1587.38 109.063 1588.69 Q108.642 1589.98 108.056 1590.99 Q107.494 1591.99 105.948 1593.61 Q104.402 1595.23 103.161 1596.37 Q101.92 1597.52 99.1323 1599.96 L94.0496 1604.9 L102.692 1604.9 Q106.909 1604.9 107.236 1604.53 Q107.705 1603.85 108.29 1600.26 L109.508 1600.26 L108.15 1608.6 L90.3489 1608.6 Z" fill="#000000" fill-rule="evenodd" fill-opacity="1" /><path clip-path="url(#clip700)" d="M85.0593 1402.74 Q85.3403 1403.02 85.3403 1403.42 Q85.3403 1403.82 85.0593 1404.1 Q84.7782 1404.38 84.38 1404.38 L54.3524 1404.38 Q53.9543 1404.38 53.6732 1404.1 Q53.3921 1403.82 53.3921 1403.42 Q53.3921 1403.02 53.6732 1402.74 Q53.9543 1402.46 54.3524 1402.46 L84.38 1402.46 Q84.7782 1402.46 85.0593 1402.74 Z" fill="#000000" fill-rule="evenodd" fill-opacity="1" /><path clip-path="url(#clip700)" d="M90.3489 1388.03 L90.3489 1386.53 Q96.1108 1386.53 99.0854 1383.46 Q99.9052 1383.46 100.046 1383.65 Q100.186 1383.84 100.186 1384.7 L100.186 1411.62 Q100.186 1413.04 100.889 1413.49 Q101.592 1413.93 104.66 1413.93 L106.182 1413.93 L106.182 1415.41 Q104.496 1415.27 98.4062 1415.27 Q92.3163 1415.27 90.6534 1415.41 L90.6534 1413.93 L92.1758 1413.93 Q95.1973 1413.93 95.9234 1413.51 Q96.6495 1413.07 96.6495 1411.62 L96.6495 1386.76 Q94.1433 1388.03 90.3489 1388.03 Z" fill="#000000" fill-rule="evenodd" fill-opacity="1" /><path clip-path="url(#clip700)" d="M90.3489 1206.35 Q90.3489 1199.3 92.129 1195.46 Q94.6117 1189.75 100.467 1189.75 Q101.709 1189.75 102.997 1190.1 Q104.309 1190.42 105.948 1191.71 Q107.611 1193 108.618 1195.11 Q110.539 1199.18 110.539 1206.35 Q110.539 1213.35 108.759 1217.17 Q106.159 1222.75 100.421 1222.75 Q98.2657 1222.75 96.0639 1221.65 Q93.8857 1220.55 92.5037 1217.9 Q90.3489 1213.94 90.3489 1206.35 M94.3307 1205.77 Q94.3307 1213 94.846 1215.88 Q95.4315 1219 97.0243 1220.36 Q98.6404 1221.69 100.421 1221.69 Q102.341 1221.69 103.934 1220.26 Q105.55 1218.81 106.042 1215.7 Q106.581 1212.63 106.557 1205.77 Q106.557 1199.09 106.089 1196.42 Q105.456 1193.31 103.77 1192.06 Q102.107 1190.8 100.421 1190.8 Q99.7881 1190.8 99.1089 1190.99 Q98.453 1191.17 97.4927 1191.71 Q96.5324 1192.25 95.7829 1193.59 Q95.0568 1194.92 94.7054 1196.94 Q94.3307 1199.54 94.3307 1205.77 Z" fill="#000000" fill-rule="evenodd" fill-opacity="1" /><path clip-path="url(#clip700)" d="M90.3489 1001.65 L90.3489 1000.15 Q96.1108 1000.15 99.0854 997.079 Q99.9052 997.079 100.046 997.266 Q100.186 997.453 100.186 998.32 L100.186 1025.23 Q100.186 1026.66 100.889 1027.11 Q101.592 1027.55 104.66 1027.55 L106.182 1027.55 L106.182 1029.03 Q104.496 1028.89 98.4062 1028.89 Q92.3163 1028.89 90.6534 1029.03 L90.6534 1027.55 L92.1758 1027.55 Q95.1973 1027.55 95.9234 1027.13 Q96.6495 1026.68 96.6495 1025.23 L96.6495 1000.38 Q94.1433 1001.65 90.3489 1001.65 Z" fill="#000000" fill-rule="evenodd" fill-opacity="1" /><path clip-path="url(#clip700)" d="M90.3489 835.835 Q90.3489 834.969 90.4191 834.711 Q90.5128 834.453 90.8876 834.055 L100.093 823.796 Q105.128 818.128 105.128 813.186 Q105.128 809.977 103.442 807.681 Q101.779 805.386 98.7107 805.386 Q96.6027 805.386 94.8226 806.674 Q93.0424 807.963 92.2227 810.258 Q92.3632 810.211 92.8551 810.211 Q94.0496 810.211 94.7054 810.961 Q95.3847 811.71 95.3847 812.717 Q95.3847 814.006 94.5415 814.638 Q93.7217 815.247 92.9019 815.247 Q92.574 815.247 92.129 815.177 Q91.7074 815.106 91.0281 814.451 Q90.3489 813.771 90.3489 812.577 Q90.3489 809.227 92.8785 806.557 Q95.4315 803.887 99.3197 803.887 Q103.723 803.887 106.604 806.51 Q109.508 809.11 109.508 813.186 Q109.508 814.614 109.063 815.926 Q108.642 817.214 108.056 818.222 Q107.494 819.229 105.948 820.845 Q104.402 822.461 103.161 823.609 Q101.92 824.756 99.1323 827.192 L94.0496 832.134 L102.692 832.134 Q106.909 832.134 107.236 831.76 Q107.705 831.08 108.29 827.497 L109.508 827.497 L108.15 835.835 L90.3489 835.835 Z" fill="#000000" fill-rule="evenodd" fill-opacity="1" /><path clip-path="url(#clip700)" d="M90.3489 635.654 Q90.3489 634.225 91.1686 633.546 Q91.9884 632.867 93.0424 632.867 Q94.1433 632.867 94.9162 633.593 Q95.7126 634.296 95.7126 635.537 Q95.7126 636.872 94.7757 637.622 Q93.8622 638.371 92.5506 638.184 Q93.6983 640.104 95.8063 640.971 Q97.9377 641.838 99.9052 641.838 Q101.966 641.838 103.629 640.058 Q105.316 638.277 105.316 633.921 Q105.316 630.22 103.864 628.089 Q102.435 625.957 99.6007 625.957 L97.4927 625.957 Q96.7666 625.957 96.5558 625.887 Q96.345 625.817 96.345 625.418 Q96.345 624.95 97.0711 624.856 Q97.7972 624.856 98.9449 624.716 Q101.732 624.622 103.208 622.21 Q104.543 619.961 104.543 616.752 Q104.543 613.824 103.138 612.606 Q101.756 611.365 99.9521 611.365 Q98.2657 611.365 96.4153 612.068 Q94.5649 612.77 93.5577 614.34 Q96.5324 614.34 96.5324 616.752 Q96.5324 617.806 95.8531 618.509 Q95.1973 619.188 94.0965 619.188 Q93.0424 619.188 92.3398 618.532 Q91.6371 617.853 91.6371 616.705 Q91.6371 613.965 94.073 612.068 Q96.5324 610.17 100.139 610.17 Q103.7 610.17 106.323 612.044 Q108.97 613.918 108.97 616.799 Q108.97 619.633 107.096 621.952 Q105.222 624.271 102.247 625.231 Q105.901 625.957 108.08 628.44 Q110.258 630.899 110.258 633.921 Q110.258 637.668 107.307 640.432 Q104.355 643.173 100.046 643.173 Q96.0639 643.173 93.2064 641.018 Q90.3489 638.863 90.3489 635.654 Z" fill="#000000" fill-rule="evenodd" fill-opacity="1" /><path clip-path="url(#clip700)" d="M90.3489 441.798 L90.3489 440.322 L105.082 417.813 Q105.456 417.228 106.042 417.251 Q106.581 417.251 106.698 417.462 Q106.815 417.673 106.815 418.493 L106.815 440.322 L111.616 440.322 L111.616 441.798 L106.815 441.798 L106.815 445.967 Q106.815 447.349 107.377 447.794 Q107.963 448.239 110.445 448.239 L111.452 448.239 L111.452 449.715 Q109.485 449.574 104.941 449.574 Q100.421 449.574 98.453 449.715 L98.453 448.239 L99.4602 448.239 Q101.943 448.239 102.529 447.817 Q103.114 447.372 103.114 445.967 L103.114 441.798 L90.3489 441.798 M91.7074 440.322 L103.395 440.322 L103.395 422.428 L91.7074 440.322 Z" fill="#000000" fill-rule="evenodd" fill-opacity="1" /><path clip-path="url(#clip700)" d="M90.3489 248.006 Q90.3489 246.577 91.1218 246.039 Q91.8947 245.477 92.7145 245.477 Q93.8154 245.477 94.4478 246.179 Q95.1036 246.859 95.1036 247.819 Q95.1036 248.779 94.4478 249.482 Q93.8154 250.161 92.7145 250.161 Q92.1758 250.161 91.8947 250.067 Q92.5272 252.269 94.4478 253.862 Q96.3919 255.455 98.9449 255.455 Q102.154 255.455 104.074 252.339 Q105.222 250.325 105.222 245.758 Q105.222 241.729 104.355 239.715 Q103.02 236.646 100.28 236.646 Q96.3919 236.646 94.0965 239.996 Q93.8154 240.417 93.4875 240.441 Q93.019 240.441 92.9019 240.183 Q92.8082 239.902 92.8082 239.176 L92.8082 224.982 Q92.8082 223.834 93.2767 223.834 Q93.464 223.834 93.8622 223.975 Q96.8837 225.31 100.233 225.333 Q103.676 225.333 106.768 223.928 Q107.002 223.787 107.143 223.787 Q107.611 223.787 107.635 224.326 Q107.635 224.514 107.236 225.076 Q106.862 225.614 106.042 226.34 Q105.222 227.043 104.168 227.722 Q103.114 228.402 101.568 228.87 Q100.046 229.315 98.3593 229.315 Q96.345 229.315 94.2838 228.683 L94.2838 238.028 Q96.7666 235.592 100.374 235.592 Q104.215 235.592 106.862 238.684 Q109.508 241.776 109.508 246.086 Q109.508 250.606 106.37 253.698 Q103.255 256.79 99.0386 256.79 Q95.1973 256.79 92.7614 254.049 Q90.3489 251.309 90.3489 248.006 Z" fill="#000000" fill-rule="evenodd" fill-opacity="1" /><path clip-path="url(#clip700)" d="M90.3489 47.3898 Q90.3489 39.8477 94.1901 35.2335 Q98.0314 30.5959 102.974 30.5959 Q105.855 30.5959 107.447 32.0715 Q109.063 33.5237 109.063 35.7722 Q109.063 37.0136 108.337 37.5523 Q107.611 38.0911 106.862 38.0911 Q105.995 38.0911 105.316 37.5055 Q104.637 36.9199 104.637 35.8659 Q104.637 33.7111 107.283 33.7111 Q106.042 31.7904 103.067 31.7904 Q102.154 31.7904 101.217 32.0715 Q100.28 32.3291 99.062 33.2192 Q97.844 34.1092 96.9071 35.5146 Q95.9703 36.9199 95.3144 39.5667 Q94.6586 42.2134 94.6586 45.6565 L94.6586 46.8042 Q96.6261 42.0495 100.655 42.0729 Q104.683 42.0729 107.471 45.1412 Q110.258 48.2096 110.258 52.7535 Q110.258 57.4146 107.354 60.5063 Q104.449 63.5981 100.374 63.5981 Q98.5467 63.5981 96.8837 62.8252 Q95.2442 62.0756 93.6983 60.3424 Q92.1758 58.6091 91.2623 55.2831 Q90.3489 51.9571 90.3489 47.3898 M94.7523 51.6995 Q94.7523 56.4074 95.6189 58.656 Q95.7594 59.0307 96.0639 59.546 Q96.3919 60.0613 96.9306 60.7406 Q97.4927 61.3964 98.4062 61.8414 Q99.3197 62.263 100.374 62.263 Q103.583 62.263 105.128 59.1478 Q105.948 57.4146 105.948 52.7067 Q105.948 47.9051 105.082 46.1484 Q103.606 43.1737 100.608 43.1737 Q98.5936 43.1737 97.1882 44.5557 Q95.8063 45.9376 95.2676 47.788 Q94.7523 49.6383 94.7523 51.6995 Z" fill="#000000" fill-rule="evenodd" fill-opacity="1" /><polyline clip-path="url(#clip702)" style="stroke:#000000; stroke-linecap:butt; stroke-linejoin:round; stroke-width:4; stroke-opacity:1; fill:none" stroke-dasharray="16, 10" points="
  719.522,1785.97 719.522,47.2441 
  "/>
<polyline clip-path="url(#clip702)" style="stroke:#000000; stroke-linecap:butt; stroke-linejoin:round; stroke-width:4; stroke-opacity:1; fill:none" stroke-dasharray="16, 10" points="
  142.905,1206.39 1872.76,1206.39 
  "/>
<polyline clip-path="url(#clip702)" style="stroke:#000000; stroke-linecap:butt; stroke-linejoin:round; stroke-width:4; stroke-opacity:1; fill:none" points="
  1488.34,1399.58 335.111,240.436 
  "/>
<polyline clip-path="url(#clip702)" style="stroke:#000000; stroke-linecap:butt; stroke-linejoin:round; stroke-width:4; stroke-opacity:1; fill:none" points="
  527.316,1206.39 1296.14,433.627 
  "/>
<polyline clip-path="url(#clip702)" style="stroke:#000000; stroke-linecap:butt; stroke-linejoin:round; stroke-width:4; stroke-opacity:1; fill:none" points="
  1078.18,987.319 1083.89,980.924 1088.91,973.893 1093.24,966.255 1096.85,958.04 1099.73,949.281 1101.87,940.011 1103.26,930.267 1103.89,920.089 1103.76,909.515 
  1102.88,898.588 1101.24,887.351 1098.86,875.849 1095.73,864.126 1091.88,852.229 1087.32,840.204 1082.06,828.1 1076.13,815.964 1069.56,803.844 1062.36,791.788 
  1054.56,779.843 1046.21,768.057 1037.32,756.476 1027.94,745.145 1018.09,734.11 1007.83,723.414 997.189,713.1 986.21,703.207 974.938,693.775 963.416,684.841 
  951.689,676.441 939.806,668.607 927.811,661.371 915.753,654.761 903.679,648.803 891.637,643.521 879.674,638.935 867.837,635.064 856.174,631.923 844.73,629.524 
  833.551,627.877 822.68,626.988 812.16,626.861 802.033,627.496 792.34,628.891 783.117,631.04 774.402,633.935 766.229,637.565 758.63,641.914 751.636,646.966 
  745.273,652.701 739.567,659.097 734.54,666.127 730.213,673.765 726.602,681.98 723.722,690.74 721.584,700.01 720.196,709.753 719.564,719.932 719.691,730.505 
  720.575,741.432 722.214,752.669 724.6,764.172 727.725,775.895 731.577,787.792 736.139,799.816 741.394,811.92 747.322,824.056 753.898,836.176 761.097,848.232 
  768.891,860.177 777.248,871.963 786.137,883.544 795.52,894.875 805.363,905.91 815.625,916.606 826.266,926.921 837.245,936.814 848.518,946.246 860.04,955.179 
  871.766,963.58 883.65,971.413 895.644,978.649 907.702,985.259 919.776,991.217 931.819,996.499 943.782,1001.09 955.618,1004.96 967.281,1008.1 978.725,1010.5 
  989.905,1012.14 1000.78,1013.03 1011.3,1013.16 1021.42,1012.52 1031.12,1011.13 1040.34,1008.98 1049.05,1006.09 1057.23,1002.46 1064.83,998.106 1071.82,993.054 
  1078.18,987.319 
  "/>
<polyline clip-path="url(#clip702)" style="stroke:#000000; stroke-linecap:butt; stroke-linejoin:round; stroke-width:4; stroke-opacity:1; fill:none" points="
  1244.64,1154.63 1256.05,1141.84 1266.1,1127.78 1274.76,1112.5 1281.98,1096.07 1287.74,1078.55 1292.02,1060.01 1294.79,1040.52 1296.05,1020.17 1295.8,999.02 
  1294.03,977.166 1290.76,954.693 1285.98,931.687 1279.73,908.241 1272.03,884.447 1262.9,860.398 1252.39,836.19 1240.54,811.918 1227.39,787.679 1212.99,763.566 
  1197.4,739.677 1180.69,716.104 1162.91,692.942 1144.14,670.281 1124.46,648.211 1103.93,626.819 1082.65,606.189 1060.69,586.403 1038.15,567.54 1015.1,549.672 
  991.651,532.872 967.884,517.204 943.894,502.732 919.778,489.512 895.63,477.596 871.546,467.032 847.62,457.86 823.947,450.118 800.621,443.836 777.733,439.038 
  755.374,435.744 733.631,433.966 712.592,433.712 692.339,434.982 672.951,437.772 654.506,442.071 637.076,447.861 620.73,455.119 605.533,463.818 591.543,473.922 
  578.818,485.393 567.406,498.184 557.353,512.245 548.699,527.52 541.477,543.95 535.717,561.469 531.44,580.009 528.665,599.496 527.401,619.853 527.654,641 
  529.422,662.854 532.7,685.328 537.473,708.333 543.723,731.779 551.426,755.574 560.551,779.622 571.061,803.83 582.916,828.102 596.069,852.342 610.467,876.454 
  626.054,900.344 642.769,923.916 660.545,947.079 679.313,969.74 698.998,991.81 719.522,1013.2 740.805,1033.83 762.762,1053.62 785.308,1072.48 808.352,1090.35 
  831.804,1107.15 855.572,1122.82 879.561,1137.29 903.677,1150.51 927.825,1162.42 951.91,1172.99 975.835,1182.16 999.508,1189.9 1022.83,1196.18 1045.72,1200.98 
  1068.08,1204.28 1089.82,1206.05 1110.86,1206.31 1131.12,1205.04 1150.5,1202.25 1168.95,1197.95 1186.38,1192.16 1202.73,1184.9 1217.92,1176.2 1231.91,1166.1 
  1244.64,1154.63 
  "/>
<polyline clip-path="url(#clip702)" style="stroke:#000000; stroke-linecap:butt; stroke-linejoin:round; stroke-width:4; stroke-opacity:1; fill:none" points="
  1411.09,1321.94 1428.21,1302.75 1443.29,1281.66 1456.27,1258.75 1467.1,1234.1 1475.74,1207.82 1482.16,1180.01 1486.32,1150.78 1488.22,1120.25 1487.84,1088.52 
  1485.19,1055.74 1480.27,1022.03 1473.11,987.526 1463.73,952.357 1452.18,916.665 1438.49,880.592 1422.73,844.28 1404.95,807.873 1385.22,771.513 1363.62,735.344 
  1340.24,699.51 1315.17,664.151 1288.5,629.407 1260.35,595.416 1230.82,562.311 1200.04,530.223 1168.11,499.279 1135.18,469.6 1101.36,441.304 1066.79,414.503 
  1031.61,389.302 995.962,365.801 959.978,344.093 923.803,324.263 887.581,306.389 851.455,290.542 815.566,276.785 780.057,265.172 745.067,255.749 710.735,248.552 
  677.196,243.611 644.583,240.944 613.025,240.563 582.645,242.468 553.563,246.653 525.896,253.101 499.751,261.786 475.232,272.674 452.435,285.722 431.451,300.878 
  412.363,318.084 395.245,337.27 380.166,358.362 367.184,381.275 356.352,405.92 347.711,432.199 341.297,460.009 337.133,489.239 335.237,519.775 335.617,551.496 
  338.27,584.276 343.186,617.987 350.346,652.495 359.721,687.664 371.275,723.355 384.962,759.428 400.728,795.74 418.51,832.148 438.239,868.508 459.837,904.676 
  483.218,940.511 508.29,975.869 534.954,1010.61 563.106,1044.6 592.633,1077.71 623.419,1109.8 655.344,1140.74 688.28,1170.42 722.098,1198.72 756.664,1225.52 
  791.842,1250.72 827.494,1274.22 863.478,1295.93 899.652,1315.76 935.874,1333.63 972.001,1349.48 1007.89,1363.24 1043.4,1374.85 1078.39,1384.27 1112.72,1391.47 
  1146.26,1396.41 1178.87,1399.08 1210.43,1399.46 1240.81,1397.55 1269.89,1393.37 1297.56,1386.92 1323.7,1378.23 1348.22,1367.35 1371.02,1354.3 1392,1339.14 
  1411.09,1321.94 
  "/>
<path clip-path="url(#clip700)" d="M1277.59 1441.62 Q1277.59 1443.91 1276.16 1445.22 Q1274.72 1446.5 1273.08 1446.5 Q1271.53 1446.5 1270.71 1445.59 Q1269.89 1444.69 1269.89 1443.54 Q1269.89 1441.99 1271.03 1440.63 Q1272.18 1439.28 1273.9 1438.99 Q1272.22 1437.93 1269.72 1437.93 Q1268.08 1437.93 1266.65 1438.79 Q1265.25 1439.65 1264.39 1440.76 Q1263.57 1441.86 1262.84 1443.46 Q1262.14 1445.02 1261.85 1445.96 Q1261.61 1446.86 1261.4 1447.85 L1258.53 1459.32 Q1257.14 1464.78 1257.14 1466.7 Q1257.14 1469.08 1258.29 1470.68 Q1259.43 1472.24 1261.73 1472.24 Q1262.63 1472.24 1263.66 1471.99 Q1264.68 1471.7 1265.99 1470.97 Q1267.35 1470.19 1268.53 1469.04 Q1269.76 1467.85 1270.95 1465.84 Q1272.14 1463.83 1272.92 1461.25 Q1273.17 1460.35 1273.99 1460.35 Q1275.01 1460.35 1275.01 1461.17 Q1275.01 1461.87 1274.44 1463.34 Q1273.9 1464.78 1272.71 1466.66 Q1271.57 1468.51 1270.05 1470.19 Q1268.53 1471.83 1266.28 1472.97 Q1264.03 1474.12 1261.57 1474.12 Q1258.04 1474.12 1255.7 1472.24 Q1253.37 1470.35 1252.51 1467.73 Q1252.3 1468.1 1252.02 1468.59 Q1251.73 1469.08 1250.87 1470.19 Q1250.05 1471.25 1249.11 1472.07 Q1248.16 1472.85 1246.69 1473.47 Q1245.25 1474.12 1243.69 1474.12 Q1241.73 1474.12 1239.96 1473.55 Q1238.24 1472.97 1237.01 1471.66 Q1235.78 1470.35 1235.78 1468.55 Q1235.78 1466.54 1237.14 1465.15 Q1238.53 1463.71 1240.42 1463.71 Q1241.6 1463.71 1242.55 1464.41 Q1243.53 1465.1 1243.53 1466.62 Q1243.53 1468.3 1242.38 1469.57 Q1241.24 1470.84 1239.6 1471.17 Q1241.28 1472.24 1243.78 1472.24 Q1246.48 1472.24 1248.61 1469.86 Q1250.74 1467.48 1251.77 1463.51 Q1254.31 1453.96 1255.29 1449.69 Q1256.28 1445.39 1256.28 1443.54 Q1256.28 1441.82 1255.83 1440.63 Q1255.38 1439.45 1254.6 1438.91 Q1253.86 1438.34 1253.16 1438.13 Q1252.51 1437.93 1251.77 1437.93 Q1250.54 1437.93 1249.15 1438.42 Q1247.79 1438.91 1246.15 1440.06 Q1244.56 1441.17 1243.04 1443.46 Q1241.52 1445.76 1240.5 1448.91 Q1240.29 1449.86 1239.39 1449.86 Q1238.41 1449.82 1238.41 1449 Q1238.41 1448.3 1238.94 1446.86 Q1239.51 1445.39 1240.66 1443.54 Q1241.85 1441.7 1243.37 1440.06 Q1244.92 1438.38 1247.18 1437.23 Q1249.47 1436.08 1251.93 1436.08 Q1253.04 1436.08 1254.11 1436.33 Q1255.21 1436.53 1256.52 1437.15 Q1257.88 1437.76 1259.07 1439.12 Q1260.25 1440.47 1260.99 1442.44 Q1261.48 1441.49 1262.14 1440.59 Q1262.84 1439.69 1263.9 1438.58 Q1265.01 1437.44 1266.53 1436.78 Q1268.08 1436.08 1269.8 1436.08 Q1271.49 1436.08 1273.12 1436.53 Q1274.76 1436.94 1276.16 1438.3 Q1277.59 1439.61 1277.59 1441.62 Z" fill="#000000" fill-rule="evenodd" fill-opacity="1" /><path clip-path="url(#clip700)" d="M1308.53 1453.22 Q1306.61 1453.22 1306.61 1452.19 Q1306.61 1451.17 1308.62 1451.17 Q1308.86 1451.17 1309.27 1451.21 Q1309.72 1451.25 1309.81 1451.25 L1333.46 1451.25 L1333.46 1427.52 Q1333.46 1427.44 1333.42 1427.07 Q1333.37 1426.66 1333.37 1426.41 Q1333.37 1424.4 1334.36 1424.4 Q1335.38 1424.4 1335.38 1426.41 L1335.38 1451.25 L1359.07 1451.25 Q1359.16 1451.25 1359.57 1451.21 Q1359.98 1451.17 1360.22 1451.17 Q1362.15 1451.17 1362.15 1452.19 Q1362.19 1453.22 1360.14 1453.22 Q1359.89 1453.22 1359.53 1453.18 Q1359.16 1453.14 1359.07 1453.14 L1335.38 1453.14 L1335.38 1478.06 Q1335.38 1479.98 1334.36 1479.98 Q1333.37 1479.98 1333.37 1477.98 Q1333.37 1477.73 1333.42 1477.32 Q1333.46 1476.95 1333.46 1476.87 L1333.46 1453.14 L1309.81 1453.14 Q1309.72 1453.14 1309.23 1453.18 Q1308.78 1453.22 1308.53 1453.22 Z" fill="#000000" fill-rule="evenodd" fill-opacity="1" /><path clip-path="url(#clip700)" d="M1433.3 1439.28 Q1433.3 1439.86 1432.93 1441.21 L1424.9 1473.26 Q1423.13 1480.39 1417.39 1485.39 Q1411.7 1490.39 1405.22 1490.39 Q1401.33 1490.39 1398.83 1488.3 Q1396.33 1486.25 1396.33 1483.1 Q1396.33 1480.31 1397.8 1478.96 Q1399.28 1477.65 1401.04 1477.65 Q1401.61 1477.65 1402.23 1477.81 Q1402.84 1477.98 1403.5 1478.67 Q1404.16 1479.37 1404.16 1480.56 Q1404.16 1482.48 1402.47 1484 Q1401.65 1484.7 1400.88 1484.86 Q1400.14 1485.03 1398.87 1485.03 Q1399.36 1486.17 1400.26 1486.95 Q1401.16 1487.73 1402.19 1488.02 Q1403.21 1488.35 1403.87 1488.43 Q1404.57 1488.55 1405.22 1488.55 Q1410.47 1488.55 1414.48 1483.26 Q1415.67 1481.66 1416.53 1480.07 Q1417.44 1478.51 1418.09 1476.58 Q1418.75 1474.7 1419.03 1473.67 Q1419.36 1472.65 1419.94 1470.31 Q1416.12 1474.12 1411.45 1474.12 Q1409.48 1474.12 1407.72 1473.59 Q1406 1473.06 1404.48 1471.95 Q1402.97 1470.8 1402.06 1468.79 Q1401.2 1466.78 1401.2 1464.12 Q1401.2 1461.29 1402.31 1457.44 Q1403.42 1453.59 1406.08 1446.5 Q1407.52 1442.52 1407.52 1440.59 Q1407.52 1439.65 1407.31 1439.08 Q1407.11 1438.46 1406.7 1438.26 Q1406.29 1438.01 1406.04 1437.97 Q1405.84 1437.93 1405.43 1437.93 Q1403.01 1437.93 1400.75 1440.39 Q1398.5 1442.85 1396.94 1448.34 Q1396.61 1449.36 1396.41 1449.61 Q1396.2 1449.86 1395.59 1449.86 Q1394.56 1449.82 1394.56 1449 Q1394.56 1448.67 1394.93 1447.4 Q1395.3 1446.09 1396.16 1444.16 Q1397.06 1442.19 1398.29 1440.43 Q1399.52 1438.63 1401.45 1437.35 Q1403.42 1436.08 1405.67 1436.08 Q1408.75 1436.08 1410.63 1438.09 Q1412.56 1440.06 1412.56 1442.97 Q1412.56 1444.16 1412.23 1445.22 Q1411.94 1446.25 1410.88 1449 Q1406.57 1460.06 1406.57 1465.47 Q1406.57 1466.78 1406.78 1467.89 Q1407.02 1468.96 1407.56 1470.02 Q1408.09 1471.05 1409.16 1471.66 Q1410.26 1472.24 1411.78 1472.24 Q1413.71 1472.24 1415.51 1471.33 Q1417.35 1470.39 1418.5 1469.12 Q1419.69 1467.85 1420.39 1466.78 Q1421.12 1465.68 1421.29 1465.1 L1425.06 1450.02 L1426.74 1443.3 Q1427.52 1439.65 1427.89 1438.75 Q1428.38 1437.89 1429.24 1437.44 Q1430.1 1436.99 1430.84 1436.99 Q1431.86 1436.99 1432.56 1437.6 Q1433.3 1438.22 1433.3 1439.28 Z" fill="#000000" fill-rule="evenodd" fill-opacity="1" /><path clip-path="url(#clip700)" d="M1513.99 1451 Q1514.48 1451.5 1514.48 1452.19 Q1514.48 1452.89 1513.99 1453.38 Q1513.49 1453.87 1512.8 1453.87 L1460.25 1453.87 Q1459.55 1453.87 1459.06 1453.38 Q1458.57 1452.89 1458.57 1452.19 Q1458.57 1451.5 1459.06 1451 Q1459.55 1450.51 1460.25 1450.51 L1512.8 1450.51 Q1513.49 1450.51 1513.99 1451 Z" fill="#000000" fill-rule="evenodd" fill-opacity="1" /><path clip-path="url(#clip700)" d="M1546.52 1461.87 Q1546.52 1459.37 1547.96 1458.18 Q1549.39 1456.99 1551.24 1456.99 Q1553.16 1456.99 1554.52 1458.26 Q1555.91 1459.49 1555.91 1461.66 Q1555.91 1464 1554.27 1465.31 Q1552.67 1466.62 1550.38 1466.29 Q1552.39 1469.65 1556.07 1471.17 Q1559.8 1472.69 1563.25 1472.69 Q1566.85 1472.69 1569.76 1469.57 Q1572.72 1466.46 1572.72 1458.83 Q1572.72 1452.36 1570.17 1448.63 Q1567.67 1444.9 1562.71 1444.9 L1559.03 1444.9 Q1557.76 1444.9 1557.39 1444.77 Q1557.02 1444.65 1557.02 1443.95 Q1557.02 1443.13 1558.29 1442.97 Q1559.56 1442.97 1561.57 1442.72 Q1566.44 1442.56 1569.03 1438.34 Q1571.36 1434.4 1571.36 1428.79 Q1571.36 1423.66 1568.9 1421.53 Q1566.49 1419.36 1563.33 1419.36 Q1560.38 1419.36 1557.14 1420.59 Q1553.9 1421.82 1552.14 1424.57 Q1557.35 1424.57 1557.35 1428.79 Q1557.35 1430.63 1556.16 1431.86 Q1555.01 1433.05 1553.08 1433.05 Q1551.24 1433.05 1550.01 1431.9 Q1548.78 1430.71 1548.78 1428.71 Q1548.78 1423.91 1553.04 1420.59 Q1557.35 1417.27 1563.66 1417.27 Q1569.89 1417.27 1574.48 1420.55 Q1579.11 1423.83 1579.11 1428.87 Q1579.11 1433.83 1575.83 1437.89 Q1572.55 1441.95 1567.35 1443.63 Q1573.74 1444.9 1577.55 1449.24 Q1581.36 1453.55 1581.36 1458.83 Q1581.36 1465.39 1576.2 1470.23 Q1571.04 1475.02 1563.49 1475.02 Q1556.53 1475.02 1551.52 1471.25 Q1546.52 1467.48 1546.52 1461.87 Z" fill="#000000" fill-rule="evenodd" fill-opacity="1" /><path clip-path="url(#clip700)" d="M1611.38 1460.43 Q1611.46 1459.41 1613.06 1459.41 L1664.5 1459.41 Q1666.92 1459.41 1666.96 1460.35 Q1666.96 1461.37 1664.67 1461.33 L1613.64 1461.33 Q1611.38 1461.37 1611.38 1460.43 M1611.38 1444.04 Q1611.38 1443.01 1613.14 1443.05 L1664.42 1443.05 Q1666.92 1443.05 1666.96 1444.04 Q1666.96 1444.98 1664.83 1444.98 L1613.06 1444.98 Q1611.38 1444.98 1611.38 1444.04 Z" fill="#000000" fill-rule="evenodd" fill-opacity="1" /><path clip-path="url(#clip700)" d="M1699.34 1446.33 Q1699.34 1433.99 1702.45 1427.27 Q1706.8 1417.27 1717.04 1417.27 Q1719.22 1417.27 1721.47 1417.88 Q1723.77 1418.46 1726.64 1420.71 Q1729.55 1422.97 1731.31 1426.66 Q1734.67 1433.79 1734.67 1446.33 Q1734.67 1458.59 1731.55 1465.27 Q1727 1475.02 1716.96 1475.02 Q1713.19 1475.02 1709.34 1473.1 Q1705.53 1471.17 1703.11 1466.54 Q1699.34 1459.61 1699.34 1446.33 M1706.31 1445.31 Q1706.31 1457.97 1707.21 1463.01 Q1708.23 1468.47 1711.02 1470.84 Q1713.85 1473.18 1716.96 1473.18 Q1720.32 1473.18 1723.11 1470.68 Q1725.94 1468.14 1726.8 1462.69 Q1727.74 1457.32 1727.7 1445.31 Q1727.7 1433.62 1726.88 1428.95 Q1725.77 1423.5 1722.82 1421.33 Q1719.91 1419.11 1716.96 1419.11 Q1715.86 1419.11 1714.67 1419.44 Q1713.52 1419.77 1711.84 1420.71 Q1710.16 1421.66 1708.85 1423.99 Q1707.58 1426.33 1706.96 1429.85 Q1706.31 1434.4 1706.31 1445.31 Z" fill="#000000" fill-rule="evenodd" fill-opacity="1" /><path clip-path="url(#clip700)" d="M1337.95 475.66 Q1337.95 477.955 1336.51 479.267 Q1335.08 480.538 1333.44 480.538 Q1331.88 480.538 1331.06 479.636 Q1330.24 478.734 1330.24 477.586 Q1330.24 476.029 1331.39 474.676 Q1332.54 473.324 1334.26 473.037 Q1332.58 471.971 1330.08 471.971 Q1328.44 471.971 1327 472.832 Q1325.61 473.692 1324.75 474.799 Q1323.93 475.906 1323.19 477.504 Q1322.5 479.062 1322.21 480.005 Q1321.96 480.907 1321.76 481.89 L1318.89 493.367 Q1317.49 498.819 1317.49 500.745 Q1317.49 503.123 1318.64 504.721 Q1319.79 506.279 1322.09 506.279 Q1322.99 506.279 1324.01 506.033 Q1325.04 505.746 1326.35 505.008 Q1327.7 504.229 1328.89 503.082 Q1330.12 501.893 1331.31 499.885 Q1332.5 497.876 1333.28 495.294 Q1333.52 494.392 1334.34 494.392 Q1335.37 494.392 1335.37 495.212 Q1335.37 495.909 1334.79 497.384 Q1334.26 498.819 1333.07 500.704 Q1331.92 502.549 1330.41 504.229 Q1328.89 505.869 1326.63 507.017 Q1324.38 508.164 1321.92 508.164 Q1318.4 508.164 1316.06 506.279 Q1313.72 504.393 1312.86 501.77 Q1312.66 502.139 1312.37 502.631 Q1312.08 503.123 1311.22 504.229 Q1310.4 505.295 1309.46 506.115 Q1308.52 506.894 1307.04 507.509 Q1305.61 508.164 1304.05 508.164 Q1302.08 508.164 1300.32 507.591 Q1298.6 507.017 1297.37 505.705 Q1296.14 504.393 1296.14 502.59 Q1296.14 500.581 1297.49 499.188 Q1298.89 497.753 1300.77 497.753 Q1301.96 497.753 1302.9 498.45 Q1303.89 499.147 1303.89 500.663 Q1303.89 502.344 1302.74 503.615 Q1301.59 504.885 1299.95 505.213 Q1301.63 506.279 1304.13 506.279 Q1306.84 506.279 1308.97 503.902 Q1311.1 501.524 1312.12 497.548 Q1314.67 487.998 1315.65 483.735 Q1316.63 479.431 1316.63 477.586 Q1316.63 475.865 1316.18 474.676 Q1315.73 473.487 1314.95 472.955 Q1314.22 472.381 1313.52 472.176 Q1312.86 471.971 1312.12 471.971 Q1310.9 471.971 1309.5 472.463 Q1308.15 472.955 1306.51 474.102 Q1304.91 475.209 1303.39 477.504 Q1301.88 479.8 1300.85 482.956 Q1300.65 483.899 1299.75 483.899 Q1298.76 483.858 1298.76 483.038 Q1298.76 482.341 1299.3 480.907 Q1299.87 479.431 1301.02 477.586 Q1302.21 475.742 1303.72 474.102 Q1305.28 472.422 1307.53 471.274 Q1309.83 470.126 1312.29 470.126 Q1313.4 470.126 1314.46 470.372 Q1315.57 470.577 1316.88 471.192 Q1318.23 471.807 1319.42 473.16 Q1320.61 474.512 1321.35 476.48 Q1321.84 475.537 1322.5 474.635 Q1323.19 473.733 1324.26 472.627 Q1325.36 471.479 1326.88 470.823 Q1328.44 470.126 1330.16 470.126 Q1331.84 470.126 1333.48 470.577 Q1335.12 470.987 1336.51 472.34 Q1337.95 473.651 1337.95 475.66 Z" fill="#000000" fill-rule="evenodd" fill-opacity="1" /><path clip-path="url(#clip700)" d="M1422.38 485.046 Q1422.87 485.538 1422.87 486.235 Q1422.87 486.932 1422.38 487.424 Q1421.89 487.916 1421.19 487.916 L1368.64 487.916 Q1367.95 487.916 1367.46 487.424 Q1366.96 486.932 1366.96 486.235 Q1366.96 485.538 1367.46 485.046 Q1367.95 484.555 1368.64 484.555 L1421.19 484.555 Q1421.89 484.555 1422.38 485.046 Z" fill="#000000" fill-rule="evenodd" fill-opacity="1" /><path clip-path="url(#clip700)" d="M1493.65 473.324 Q1493.65 473.897 1493.29 475.25 L1485.25 507.304 Q1483.49 514.436 1477.75 519.436 Q1472.05 524.437 1465.58 524.437 Q1461.68 524.437 1459.18 522.347 Q1456.68 520.297 1456.68 517.141 Q1456.68 514.354 1458.16 513.001 Q1459.63 511.689 1461.4 511.689 Q1461.97 511.689 1462.58 511.853 Q1463.2 512.017 1463.85 512.714 Q1464.51 513.411 1464.51 514.6 Q1464.51 516.526 1462.83 518.043 Q1462.01 518.74 1461.23 518.904 Q1460.49 519.068 1459.22 519.068 Q1459.71 520.215 1460.62 520.994 Q1461.52 521.773 1462.54 522.06 Q1463.57 522.388 1464.22 522.47 Q1464.92 522.593 1465.58 522.593 Q1470.82 522.593 1474.84 517.305 Q1476.03 515.706 1476.89 514.108 Q1477.79 512.55 1478.45 510.624 Q1479.1 508.738 1479.39 507.714 Q1479.72 506.689 1480.29 504.352 Q1476.48 508.164 1471.81 508.164 Q1469.84 508.164 1468.08 507.632 Q1466.36 507.099 1464.84 505.992 Q1463.32 504.844 1462.42 502.836 Q1461.56 500.827 1461.56 498.163 Q1461.56 495.335 1462.67 491.482 Q1463.77 487.629 1466.44 480.538 Q1467.87 476.562 1467.87 474.635 Q1467.87 473.692 1467.67 473.119 Q1467.46 472.504 1467.05 472.299 Q1466.64 472.053 1466.4 472.012 Q1466.19 471.971 1465.78 471.971 Q1463.36 471.971 1461.11 474.43 Q1458.85 476.89 1457.3 482.382 Q1456.97 483.407 1456.76 483.653 Q1456.56 483.899 1455.94 483.899 Q1454.92 483.858 1454.92 483.038 Q1454.92 482.71 1455.29 481.439 Q1455.66 480.128 1456.52 478.201 Q1457.42 476.234 1458.65 474.471 Q1459.88 472.668 1461.81 471.397 Q1463.77 470.126 1466.03 470.126 Q1469.1 470.126 1470.99 472.135 Q1472.91 474.102 1472.91 477.013 Q1472.91 478.201 1472.59 479.267 Q1472.3 480.292 1471.23 483.038 Q1466.93 494.105 1466.93 499.516 Q1466.93 500.827 1467.13 501.934 Q1467.38 503 1467.91 504.065 Q1468.45 505.09 1469.51 505.705 Q1470.62 506.279 1472.13 506.279 Q1474.06 506.279 1475.86 505.377 Q1477.71 504.434 1478.86 503.164 Q1480.05 501.893 1480.74 500.827 Q1481.48 499.721 1481.64 499.147 L1485.42 484.063 L1487.1 477.34 Q1487.87 473.692 1488.24 472.791 Q1488.74 471.93 1489.6 471.479 Q1490.46 471.028 1491.19 471.028 Q1492.22 471.028 1492.92 471.643 Q1493.65 472.258 1493.65 473.324 Z" fill="#000000" fill-rule="evenodd" fill-opacity="1" /><path clip-path="url(#clip700)" d="M1520.85 487.26 Q1518.92 487.26 1518.92 486.235 Q1518.92 485.21 1520.93 485.21 Q1521.18 485.21 1521.59 485.251 Q1522.04 485.292 1522.12 485.292 L1545.77 485.292 L1545.77 461.56 Q1545.77 461.478 1545.73 461.109 Q1545.69 460.699 1545.69 460.453 Q1545.69 458.444 1546.67 458.444 Q1547.7 458.444 1547.7 460.453 L1547.7 485.292 L1571.39 485.292 Q1571.47 485.292 1571.88 485.251 Q1572.29 485.21 1572.54 485.21 Q1574.46 485.21 1574.46 486.235 Q1574.51 487.26 1572.46 487.26 Q1572.21 487.26 1571.84 487.219 Q1571.47 487.178 1571.39 487.178 L1547.7 487.178 L1547.7 512.099 Q1547.7 514.026 1546.67 514.026 Q1545.69 514.026 1545.69 512.017 Q1545.69 511.771 1545.73 511.362 Q1545.77 510.993 1545.77 510.911 L1545.77 487.178 L1522.12 487.178 Q1522.04 487.178 1521.55 487.219 Q1521.1 487.26 1520.85 487.26 Z" fill="#000000" fill-rule="evenodd" fill-opacity="1" /><path clip-path="url(#clip700)" d="M1606.88 459.305 L1606.88 456.682 Q1616.96 456.682 1622.17 451.312 Q1623.6 451.312 1623.85 451.64 Q1624.09 451.968 1624.09 453.485 L1624.09 500.581 Q1624.09 503.082 1625.32 503.861 Q1626.55 504.639 1631.92 504.639 L1634.59 504.639 L1634.59 507.222 Q1631.64 506.976 1620.98 506.976 Q1610.32 506.976 1607.41 507.222 L1607.41 504.639 L1610.08 504.639 Q1615.36 504.639 1616.63 503.902 Q1617.91 503.123 1617.91 500.581 L1617.91 457.092 Q1613.52 459.305 1606.88 459.305 Z" fill="#000000" fill-rule="evenodd" fill-opacity="1" /><path clip-path="url(#clip700)" d="M1671.74 494.474 Q1671.82 493.449 1673.42 493.449 L1724.86 493.449 Q1727.28 493.449 1727.32 494.392 Q1727.32 495.417 1725.02 495.376 L1673.99 495.376 Q1671.74 495.417 1671.74 494.474 M1671.74 478.078 Q1671.74 477.054 1673.5 477.095 L1724.78 477.095 Q1727.28 477.095 1727.32 478.078 Q1727.32 479.021 1725.19 479.021 L1673.42 479.021 Q1671.74 479.021 1671.74 478.078 Z" fill="#000000" fill-rule="evenodd" fill-opacity="1" /><path clip-path="url(#clip700)" d="M1759.69 480.374 Q1759.69 468.036 1762.81 461.314 Q1767.15 451.312 1777.4 451.312 Q1779.57 451.312 1781.83 451.927 Q1784.12 452.501 1786.99 454.755 Q1789.9 457.01 1791.66 460.699 Q1795.02 467.831 1795.02 480.374 Q1795.02 492.629 1791.91 499.311 Q1787.36 509.066 1777.32 509.066 Q1773.55 509.066 1769.69 507.14 Q1765.88 505.213 1763.46 500.581 Q1759.69 493.654 1759.69 480.374 M1766.66 479.349 Q1766.66 492.015 1767.56 497.056 Q1768.59 502.508 1771.37 504.885 Q1774.2 507.222 1777.32 507.222 Q1780.68 507.222 1783.47 504.721 Q1786.29 502.18 1787.15 496.728 Q1788.1 491.359 1788.06 479.349 Q1788.06 467.667 1787.24 462.994 Q1786.13 457.543 1783.18 455.37 Q1780.27 453.157 1777.32 453.157 Q1776.21 453.157 1775.02 453.485 Q1773.87 453.813 1772.19 454.755 Q1770.51 455.698 1769.2 458.035 Q1767.93 460.371 1767.32 463.896 Q1766.66 468.446 1766.66 479.349 Z" fill="#000000" fill-rule="evenodd" fill-opacity="1" /><path clip-path="url(#clip700)" d="M1722.36 1138.3 Q1722.36 1140.59 1720.92 1141.91 Q1719.49 1143.18 1717.85 1143.18 Q1716.29 1143.18 1715.47 1142.28 Q1714.65 1141.37 1714.65 1140.23 Q1714.65 1138.67 1715.8 1137.32 Q1716.95 1135.96 1718.67 1135.68 Q1716.99 1134.61 1714.49 1134.61 Q1712.85 1134.61 1711.42 1135.47 Q1710.02 1136.33 1709.16 1137.44 Q1708.34 1138.55 1707.6 1140.14 Q1706.91 1141.7 1706.62 1142.64 Q1706.37 1143.55 1706.17 1144.53 L1703.3 1156.01 Q1701.91 1161.46 1701.91 1163.38 Q1701.91 1165.76 1703.05 1167.36 Q1704.2 1168.92 1706.5 1168.92 Q1707.4 1168.92 1708.42 1168.67 Q1709.45 1168.39 1710.76 1167.65 Q1712.11 1166.87 1713.3 1165.72 Q1714.53 1164.53 1715.72 1162.52 Q1716.91 1160.52 1717.69 1157.93 Q1717.93 1157.03 1718.75 1157.03 Q1719.78 1157.03 1719.78 1157.85 Q1719.78 1158.55 1719.2 1160.02 Q1718.67 1161.46 1717.48 1163.34 Q1716.33 1165.19 1714.82 1166.87 Q1713.3 1168.51 1711.05 1169.66 Q1708.79 1170.8 1706.33 1170.8 Q1702.81 1170.8 1700.47 1168.92 Q1698.13 1167.03 1697.27 1164.41 Q1697.07 1164.78 1696.78 1165.27 Q1696.5 1165.76 1695.63 1166.87 Q1694.81 1167.93 1693.87 1168.75 Q1692.93 1169.53 1691.45 1170.15 Q1690.02 1170.8 1688.46 1170.8 Q1686.49 1170.8 1684.73 1170.23 Q1683.01 1169.66 1681.78 1168.34 Q1680.55 1167.03 1680.55 1165.23 Q1680.55 1163.22 1681.9 1161.83 Q1683.3 1160.39 1685.18 1160.39 Q1686.37 1160.39 1687.31 1161.09 Q1688.3 1161.79 1688.3 1163.3 Q1688.3 1164.98 1687.15 1166.25 Q1686 1167.52 1684.36 1167.85 Q1686.04 1168.92 1688.54 1168.92 Q1691.25 1168.92 1693.38 1166.54 Q1695.51 1164.16 1696.54 1160.19 Q1699.08 1150.64 1700.06 1146.37 Q1701.04 1142.07 1701.04 1140.23 Q1701.04 1138.5 1700.59 1137.32 Q1700.14 1136.13 1699.36 1135.59 Q1698.63 1135.02 1697.93 1134.82 Q1697.27 1134.61 1696.54 1134.61 Q1695.31 1134.61 1693.91 1135.1 Q1692.56 1135.59 1690.92 1136.74 Q1689.32 1137.85 1687.81 1140.14 Q1686.29 1142.44 1685.26 1145.6 Q1685.06 1146.54 1684.16 1146.54 Q1683.17 1146.5 1683.17 1145.68 Q1683.17 1144.98 1683.71 1143.55 Q1684.28 1142.07 1685.43 1140.23 Q1686.62 1138.38 1688.13 1136.74 Q1689.69 1135.06 1691.95 1133.91 Q1694.24 1132.77 1696.7 1132.77 Q1697.81 1132.77 1698.87 1133.01 Q1699.98 1133.22 1701.29 1133.83 Q1702.64 1134.45 1703.83 1135.8 Q1705.02 1137.15 1705.76 1139.12 Q1706.25 1138.18 1706.91 1137.27 Q1707.6 1136.37 1708.67 1135.27 Q1709.78 1134.12 1711.29 1133.46 Q1712.85 1132.77 1714.57 1132.77 Q1716.25 1132.77 1717.89 1133.22 Q1719.53 1133.63 1720.92 1134.98 Q1722.36 1136.29 1722.36 1138.3 Z" fill="#000000" fill-rule="evenodd" fill-opacity="1" /><path clip-path="url(#clip700)" d="M691.169 65.3535 Q691.169 65.9273 690.8 67.28 L682.766 99.3336 Q681.004 106.466 675.265 111.466 Q669.568 116.467 663.092 116.467 Q659.198 116.467 656.697 114.377 Q654.197 112.327 654.197 109.171 Q654.197 106.384 655.673 105.031 Q657.148 103.719 658.911 103.719 Q659.485 103.719 660.099 103.883 Q660.714 104.047 661.37 104.744 Q662.026 105.441 662.026 106.63 Q662.026 108.556 660.345 110.073 Q659.526 110.77 658.747 110.934 Q658.009 111.098 656.738 111.098 Q657.23 112.245 658.132 113.024 Q659.034 113.803 660.058 114.09 Q661.083 114.418 661.739 114.5 Q662.436 114.623 663.092 114.623 Q668.338 114.623 672.355 109.335 Q673.544 107.736 674.405 106.138 Q675.306 104.58 675.962 102.654 Q676.618 100.768 676.905 99.7435 Q677.233 98.7187 677.807 96.3824 Q673.995 100.194 669.322 100.194 Q667.354 100.194 665.592 99.6615 Q663.87 99.1286 662.354 98.0219 Q660.837 96.8742 659.935 94.8658 Q659.075 92.8573 659.075 90.193 Q659.075 87.3647 660.181 83.5117 Q661.288 79.6587 663.952 72.5676 Q665.387 68.5916 665.387 66.6651 Q665.387 65.7224 665.182 65.1485 Q664.977 64.5337 664.567 64.3287 Q664.157 64.0828 663.911 64.0418 Q663.706 64.0008 663.297 64.0008 Q660.878 64.0008 658.624 66.4602 Q656.369 68.9195 654.812 74.4121 Q654.484 75.4368 654.279 75.6828 Q654.074 75.9287 653.459 75.9287 Q652.434 75.8877 652.434 75.0679 Q652.434 74.74 652.803 73.4694 Q653.172 72.1577 654.033 70.2312 Q654.935 68.2637 656.164 66.5012 Q657.394 64.6976 659.321 63.427 Q661.288 62.1563 663.542 62.1563 Q666.617 62.1563 668.502 64.1648 Q670.429 66.1323 670.429 69.0425 Q670.429 70.2312 670.101 71.2969 Q669.814 72.3217 668.748 75.0679 Q664.444 86.135 664.444 91.5456 Q664.444 92.8573 664.649 93.964 Q664.895 95.0297 665.428 96.0954 Q665.961 97.1202 667.027 97.735 Q668.133 98.3089 669.65 98.3089 Q671.576 98.3089 673.38 97.4071 Q675.224 96.4643 676.372 95.1937 Q677.561 93.923 678.258 92.8573 Q678.995 91.7506 679.159 91.1767 L682.93 76.0927 L684.611 69.3704 Q685.39 65.7224 685.759 64.8206 Q686.251 63.9598 687.111 63.509 Q687.972 63.0581 688.71 63.0581 Q689.735 63.0581 690.431 63.6729 Q691.169 64.2878 691.169 65.3535 Z" fill="#000000" fill-rule="evenodd" fill-opacity="1" /><path clip-path="url(#clip700)" d="
M142.905 1785.97 L1872.76 1785.97 L1872.76 47.2441 L142.905 47.2441  Z
  " fill="#000000" fill-rule="evenodd" fill-opacity="0"/>
<polyline clip-path="url(#clip700)" style="stroke:#000000; stroke-linecap:butt; stroke-linejoin:round; stroke-width:4; stroke-opacity:1; fill:none" points="
  1872.76,1785.97 1872.76,47.2441 
  "/>
<polyline clip-path="url(#clip700)" style="stroke:#000000; stroke-linecap:butt; stroke-linejoin:round; stroke-width:4; stroke-opacity:1; fill:none" points="
  1872.76,1785.97 1853.86,1785.97 
  "/>
<polyline clip-path="url(#clip700)" style="stroke:#000000; stroke-linecap:butt; stroke-linejoin:round; stroke-width:4; stroke-opacity:1; fill:none" points="
  1872.76,1592.78 1853.86,1592.78 
  "/>
<polyline clip-path="url(#clip700)" style="stroke:#000000; stroke-linecap:butt; stroke-linejoin:round; stroke-width:4; stroke-opacity:1; fill:none" points="
  1872.76,1399.58 1853.86,1399.58 
  "/>
<polyline clip-path="url(#clip700)" style="stroke:#000000; stroke-linecap:butt; stroke-linejoin:round; stroke-width:4; stroke-opacity:1; fill:none" points="
  1872.76,1206.39 1853.86,1206.39 
  "/>
<polyline clip-path="url(#clip700)" style="stroke:#000000; stroke-linecap:butt; stroke-linejoin:round; stroke-width:4; stroke-opacity:1; fill:none" points="
  1872.76,1013.2 1853.86,1013.2 
  "/>
<polyline clip-path="url(#clip700)" style="stroke:#000000; stroke-linecap:butt; stroke-linejoin:round; stroke-width:4; stroke-opacity:1; fill:none" points="
  1872.76,820.01 1853.86,820.01 
  "/>
<polyline clip-path="url(#clip700)" style="stroke:#000000; stroke-linecap:butt; stroke-linejoin:round; stroke-width:4; stroke-opacity:1; fill:none" points="
  1872.76,626.819 1853.86,626.819 
  "/>
<polyline clip-path="url(#clip700)" style="stroke:#000000; stroke-linecap:butt; stroke-linejoin:round; stroke-width:4; stroke-opacity:1; fill:none" points="
  1872.76,433.627 1853.86,433.627 
  "/>
<polyline clip-path="url(#clip700)" style="stroke:#000000; stroke-linecap:butt; stroke-linejoin:round; stroke-width:4; stroke-opacity:1; fill:none" points="
  1872.76,240.436 1853.86,240.436 
  "/>
<polyline clip-path="url(#clip700)" style="stroke:#000000; stroke-linecap:butt; stroke-linejoin:round; stroke-width:4; stroke-opacity:1; fill:none" points="
  1872.76,47.2441 1853.86,47.2441 
  "/>
<path clip-path="url(#clip700)" d="M1277.59 1441.62 Q1277.59 1443.91 1276.16 1445.22 Q1274.72 1446.5 1273.08 1446.5 Q1271.53 1446.5 1270.71 1445.59 Q1269.89 1444.69 1269.89 1443.54 Q1269.89 1441.99 1271.03 1440.63 Q1272.18 1439.28 1273.9 1438.99 Q1272.22 1437.93 1269.72 1437.93 Q1268.08 1437.93 1266.65 1438.79 Q1265.25 1439.65 1264.39 1440.76 Q1263.57 1441.86 1262.84 1443.46 Q1262.14 1445.02 1261.85 1445.96 Q1261.61 1446.86 1261.4 1447.85 L1258.53 1459.32 Q1257.14 1464.78 1257.14 1466.7 Q1257.14 1469.08 1258.29 1470.68 Q1259.43 1472.24 1261.73 1472.24 Q1262.63 1472.24 1263.66 1471.99 Q1264.68 1471.7 1265.99 1470.97 Q1267.35 1470.19 1268.53 1469.04 Q1269.76 1467.85 1270.95 1465.84 Q1272.14 1463.83 1272.92 1461.25 Q1273.17 1460.35 1273.99 1460.35 Q1275.01 1460.35 1275.01 1461.17 Q1275.01 1461.87 1274.44 1463.34 Q1273.9 1464.78 1272.71 1466.66 Q1271.57 1468.51 1270.05 1470.19 Q1268.53 1471.83 1266.28 1472.97 Q1264.03 1474.12 1261.57 1474.12 Q1258.04 1474.12 1255.7 1472.24 Q1253.37 1470.35 1252.51 1467.73 Q1252.3 1468.1 1252.02 1468.59 Q1251.73 1469.08 1250.87 1470.19 Q1250.05 1471.25 1249.11 1472.07 Q1248.16 1472.85 1246.69 1473.47 Q1245.25 1474.12 1243.69 1474.12 Q1241.73 1474.12 1239.96 1473.55 Q1238.24 1472.97 1237.01 1471.66 Q1235.78 1470.35 1235.78 1468.55 Q1235.78 1466.54 1237.14 1465.15 Q1238.53 1463.71 1240.42 1463.71 Q1241.6 1463.71 1242.55 1464.41 Q1243.53 1465.1 1243.53 1466.62 Q1243.53 1468.3 1242.38 1469.57 Q1241.24 1470.84 1239.6 1471.17 Q1241.28 1472.24 1243.78 1472.24 Q1246.48 1472.24 1248.61 1469.86 Q1250.74 1467.48 1251.77 1463.51 Q1254.31 1453.96 1255.29 1449.69 Q1256.28 1445.39 1256.28 1443.54 Q1256.28 1441.82 1255.83 1440.63 Q1255.38 1439.45 1254.6 1438.91 Q1253.86 1438.34 1253.16 1438.13 Q1252.51 1437.93 1251.77 1437.93 Q1250.54 1437.93 1249.15 1438.42 Q1247.79 1438.91 1246.15 1440.06 Q1244.56 1441.17 1243.04 1443.46 Q1241.52 1445.76 1240.5 1448.91 Q1240.29 1449.86 1239.39 1449.86 Q1238.41 1449.82 1238.41 1449 Q1238.41 1448.3 1238.94 1446.86 Q1239.51 1445.39 1240.66 1443.54 Q1241.85 1441.7 1243.37 1440.06 Q1244.92 1438.38 1247.18 1437.23 Q1249.47 1436.08 1251.93 1436.08 Q1253.04 1436.08 1254.11 1436.33 Q1255.21 1436.53 1256.52 1437.15 Q1257.88 1437.76 1259.07 1439.12 Q1260.25 1440.47 1260.99 1442.44 Q1261.48 1441.49 1262.14 1440.59 Q1262.84 1439.69 1263.9 1438.58 Q1265.01 1437.44 1266.53 1436.78 Q1268.08 1436.08 1269.8 1436.08 Q1271.49 1436.08 1273.12 1436.53 Q1274.76 1436.94 1276.16 1438.3 Q1277.59 1439.61 1277.59 1441.62 Z" fill="#000000" fill-rule="evenodd" fill-opacity="1" /><path clip-path="url(#clip700)" d="M1308.53 1453.22 Q1306.61 1453.22 1306.61 1452.19 Q1306.61 1451.17 1308.62 1451.17 Q1308.86 1451.17 1309.27 1451.21 Q1309.72 1451.25 1309.81 1451.25 L1333.46 1451.25 L1333.46 1427.52 Q1333.46 1427.44 1333.42 1427.07 Q1333.37 1426.66 1333.37 1426.41 Q1333.37 1424.4 1334.36 1424.4 Q1335.38 1424.4 1335.38 1426.41 L1335.38 1451.25 L1359.07 1451.25 Q1359.16 1451.25 1359.57 1451.21 Q1359.98 1451.17 1360.22 1451.17 Q1362.15 1451.17 1362.15 1452.19 Q1362.19 1453.22 1360.14 1453.22 Q1359.89 1453.22 1359.53 1453.18 Q1359.16 1453.14 1359.07 1453.14 L1335.38 1453.14 L1335.38 1478.06 Q1335.38 1479.98 1334.36 1479.98 Q1333.37 1479.98 1333.37 1477.98 Q1333.37 1477.73 1333.42 1477.32 Q1333.46 1476.95 1333.46 1476.87 L1333.46 1453.14 L1309.81 1453.14 Q1309.72 1453.14 1309.23 1453.18 Q1308.78 1453.22 1308.53 1453.22 Z" fill="#000000" fill-rule="evenodd" fill-opacity="1" /><path clip-path="url(#clip700)" d="M1433.3 1439.28 Q1433.3 1439.86 1432.93 1441.21 L1424.9 1473.26 Q1423.13 1480.39 1417.39 1485.39 Q1411.7 1490.39 1405.22 1490.39 Q1401.33 1490.39 1398.83 1488.3 Q1396.33 1486.25 1396.33 1483.1 Q1396.33 1480.31 1397.8 1478.96 Q1399.28 1477.65 1401.04 1477.65 Q1401.61 1477.65 1402.23 1477.81 Q1402.84 1477.98 1403.5 1478.67 Q1404.16 1479.37 1404.16 1480.56 Q1404.16 1482.48 1402.47 1484 Q1401.65 1484.7 1400.88 1484.86 Q1400.14 1485.03 1398.87 1485.03 Q1399.36 1486.17 1400.26 1486.95 Q1401.16 1487.73 1402.19 1488.02 Q1403.21 1488.35 1403.87 1488.43 Q1404.57 1488.55 1405.22 1488.55 Q1410.47 1488.55 1414.48 1483.26 Q1415.67 1481.66 1416.53 1480.07 Q1417.44 1478.51 1418.09 1476.58 Q1418.75 1474.7 1419.03 1473.67 Q1419.36 1472.65 1419.94 1470.31 Q1416.12 1474.12 1411.45 1474.12 Q1409.48 1474.12 1407.72 1473.59 Q1406 1473.06 1404.48 1471.95 Q1402.97 1470.8 1402.06 1468.79 Q1401.2 1466.78 1401.2 1464.12 Q1401.2 1461.29 1402.31 1457.44 Q1403.42 1453.59 1406.08 1446.5 Q1407.52 1442.52 1407.52 1440.59 Q1407.52 1439.65 1407.31 1439.08 Q1407.11 1438.46 1406.7 1438.26 Q1406.29 1438.01 1406.04 1437.97 Q1405.84 1437.93 1405.43 1437.93 Q1403.01 1437.93 1400.75 1440.39 Q1398.5 1442.85 1396.94 1448.34 Q1396.61 1449.36 1396.41 1449.61 Q1396.2 1449.86 1395.59 1449.86 Q1394.56 1449.82 1394.56 1449 Q1394.56 1448.67 1394.93 1447.4 Q1395.3 1446.09 1396.16 1444.16 Q1397.06 1442.19 1398.29 1440.43 Q1399.52 1438.63 1401.45 1437.35 Q1403.42 1436.08 1405.67 1436.08 Q1408.75 1436.08 1410.63 1438.09 Q1412.56 1440.06 1412.56 1442.97 Q1412.56 1444.16 1412.23 1445.22 Q1411.94 1446.25 1410.88 1449 Q1406.57 1460.06 1406.57 1465.47 Q1406.57 1466.78 1406.78 1467.89 Q1407.02 1468.96 1407.56 1470.02 Q1408.09 1471.05 1409.16 1471.66 Q1410.26 1472.24 1411.78 1472.24 Q1413.71 1472.24 1415.51 1471.33 Q1417.35 1470.39 1418.5 1469.12 Q1419.69 1467.85 1420.39 1466.78 Q1421.12 1465.68 1421.29 1465.1 L1425.06 1450.02 L1426.74 1443.3 Q1427.52 1439.65 1427.89 1438.75 Q1428.38 1437.89 1429.24 1437.44 Q1430.1 1436.99 1430.84 1436.99 Q1431.86 1436.99 1432.56 1437.6 Q1433.3 1438.22 1433.3 1439.28 Z" fill="#000000" fill-rule="evenodd" fill-opacity="1" /><path clip-path="url(#clip700)" d="M1513.99 1451 Q1514.48 1451.5 1514.48 1452.19 Q1514.48 1452.89 1513.99 1453.38 Q1513.49 1453.87 1512.8 1453.87 L1460.25 1453.87 Q1459.55 1453.87 1459.06 1453.38 Q1458.57 1452.89 1458.57 1452.19 Q1458.57 1451.5 1459.06 1451 Q1459.55 1450.51 1460.25 1450.51 L1512.8 1450.51 Q1513.49 1450.51 1513.99 1451 Z" fill="#000000" fill-rule="evenodd" fill-opacity="1" /><path clip-path="url(#clip700)" d="M1546.52 1461.87 Q1546.52 1459.37 1547.96 1458.18 Q1549.39 1456.99 1551.24 1456.99 Q1553.16 1456.99 1554.52 1458.26 Q1555.91 1459.49 1555.91 1461.66 Q1555.91 1464 1554.27 1465.31 Q1552.67 1466.62 1550.38 1466.29 Q1552.39 1469.65 1556.07 1471.17 Q1559.8 1472.69 1563.25 1472.69 Q1566.85 1472.69 1569.76 1469.57 Q1572.72 1466.46 1572.72 1458.83 Q1572.72 1452.36 1570.17 1448.63 Q1567.67 1444.9 1562.71 1444.9 L1559.03 1444.9 Q1557.76 1444.9 1557.39 1444.77 Q1557.02 1444.65 1557.02 1443.95 Q1557.02 1443.13 1558.29 1442.97 Q1559.56 1442.97 1561.57 1442.72 Q1566.44 1442.56 1569.03 1438.34 Q1571.36 1434.4 1571.36 1428.79 Q1571.36 1423.66 1568.9 1421.53 Q1566.49 1419.36 1563.33 1419.36 Q1560.38 1419.36 1557.14 1420.59 Q1553.9 1421.82 1552.14 1424.57 Q1557.35 1424.57 1557.35 1428.79 Q1557.35 1430.63 1556.16 1431.86 Q1555.01 1433.05 1553.08 1433.05 Q1551.24 1433.05 1550.01 1431.9 Q1548.78 1430.71 1548.78 1428.71 Q1548.78 1423.91 1553.04 1420.59 Q1557.35 1417.27 1563.66 1417.27 Q1569.89 1417.27 1574.48 1420.55 Q1579.11 1423.83 1579.11 1428.87 Q1579.11 1433.83 1575.83 1437.89 Q1572.55 1441.95 1567.35 1443.63 Q1573.74 1444.9 1577.55 1449.24 Q1581.36 1453.55 1581.36 1458.83 Q1581.36 1465.39 1576.2 1470.23 Q1571.04 1475.02 1563.49 1475.02 Q1556.53 1475.02 1551.52 1471.25 Q1546.52 1467.48 1546.52 1461.87 Z" fill="#000000" fill-rule="evenodd" fill-opacity="1" /><path clip-path="url(#clip700)" d="M1611.38 1460.43 Q1611.46 1459.41 1613.06 1459.41 L1664.5 1459.41 Q1666.92 1459.41 1666.96 1460.35 Q1666.96 1461.37 1664.67 1461.33 L1613.64 1461.33 Q1611.38 1461.37 1611.38 1460.43 M1611.38 1444.04 Q1611.38 1443.01 1613.14 1443.05 L1664.42 1443.05 Q1666.92 1443.05 1666.96 1444.04 Q1666.96 1444.98 1664.83 1444.98 L1613.06 1444.98 Q1611.38 1444.98 1611.38 1444.04 Z" fill="#000000" fill-rule="evenodd" fill-opacity="1" /><path clip-path="url(#clip700)" d="M1699.34 1446.33 Q1699.34 1433.99 1702.45 1427.27 Q1706.8 1417.27 1717.04 1417.27 Q1719.22 1417.27 1721.47 1417.88 Q1723.77 1418.46 1726.64 1420.71 Q1729.55 1422.97 1731.31 1426.66 Q1734.67 1433.79 1734.67 1446.33 Q1734.67 1458.59 1731.55 1465.27 Q1727 1475.02 1716.96 1475.02 Q1713.19 1475.02 1709.34 1473.1 Q1705.53 1471.17 1703.11 1466.54 Q1699.34 1459.61 1699.34 1446.33 M1706.31 1445.31 Q1706.31 1457.97 1707.21 1463.01 Q1708.23 1468.47 1711.02 1470.84 Q1713.85 1473.18 1716.96 1473.18 Q1720.32 1473.18 1723.11 1470.68 Q1725.94 1468.14 1726.8 1462.69 Q1727.74 1457.32 1727.7 1445.31 Q1727.7 1433.62 1726.88 1428.95 Q1725.77 1423.5 1722.82 1421.33 Q1719.91 1419.11 1716.96 1419.11 Q1715.86 1419.11 1714.67 1419.44 Q1713.52 1419.77 1711.84 1420.71 Q1710.16 1421.66 1708.85 1423.99 Q1707.58 1426.33 1706.96 1429.85 Q1706.31 1434.4 1706.31 1445.31 Z" fill="#000000" fill-rule="evenodd" fill-opacity="1" /><path clip-path="url(#clip700)" d="M1337.95 475.66 Q1337.95 477.955 1336.51 479.267 Q1335.08 480.538 1333.44 480.538 Q1331.88 480.538 1331.06 479.636 Q1330.24 478.734 1330.24 477.586 Q1330.24 476.029 1331.39 474.676 Q1332.54 473.324 1334.26 473.037 Q1332.58 471.971 1330.08 471.971 Q1328.44 471.971 1327 472.832 Q1325.61 473.692 1324.75 474.799 Q1323.93 475.906 1323.19 477.504 Q1322.5 479.062 1322.21 480.005 Q1321.96 480.907 1321.76 481.89 L1318.89 493.367 Q1317.49 498.819 1317.49 500.745 Q1317.49 503.123 1318.64 504.721 Q1319.79 506.279 1322.09 506.279 Q1322.99 506.279 1324.01 506.033 Q1325.04 505.746 1326.35 505.008 Q1327.7 504.229 1328.89 503.082 Q1330.12 501.893 1331.31 499.885 Q1332.5 497.876 1333.28 495.294 Q1333.52 494.392 1334.34 494.392 Q1335.37 494.392 1335.37 495.212 Q1335.37 495.909 1334.79 497.384 Q1334.26 498.819 1333.07 500.704 Q1331.92 502.549 1330.41 504.229 Q1328.89 505.869 1326.63 507.017 Q1324.38 508.164 1321.92 508.164 Q1318.4 508.164 1316.06 506.279 Q1313.72 504.393 1312.86 501.77 Q1312.66 502.139 1312.37 502.631 Q1312.08 503.123 1311.22 504.229 Q1310.4 505.295 1309.46 506.115 Q1308.52 506.894 1307.04 507.509 Q1305.61 508.164 1304.05 508.164 Q1302.08 508.164 1300.32 507.591 Q1298.6 507.017 1297.37 505.705 Q1296.14 504.393 1296.14 502.59 Q1296.14 500.581 1297.49 499.188 Q1298.89 497.753 1300.77 497.753 Q1301.96 497.753 1302.9 498.45 Q1303.89 499.147 1303.89 500.663 Q1303.89 502.344 1302.74 503.615 Q1301.59 504.885 1299.95 505.213 Q1301.63 506.279 1304.13 506.279 Q1306.84 506.279 1308.97 503.902 Q1311.1 501.524 1312.12 497.548 Q1314.67 487.998 1315.65 483.735 Q1316.63 479.431 1316.63 477.586 Q1316.63 475.865 1316.18 474.676 Q1315.73 473.487 1314.95 472.955 Q1314.22 472.381 1313.52 472.176 Q1312.86 471.971 1312.12 471.971 Q1310.9 471.971 1309.5 472.463 Q1308.15 472.955 1306.51 474.102 Q1304.91 475.209 1303.39 477.504 Q1301.88 479.8 1300.85 482.956 Q1300.65 483.899 1299.75 483.899 Q1298.76 483.858 1298.76 483.038 Q1298.76 482.341 1299.3 480.907 Q1299.87 479.431 1301.02 477.586 Q1302.21 475.742 1303.72 474.102 Q1305.28 472.422 1307.53 471.274 Q1309.83 470.126 1312.29 470.126 Q1313.4 470.126 1314.46 470.372 Q1315.57 470.577 1316.88 471.192 Q1318.23 471.807 1319.42 473.16 Q1320.61 474.512 1321.35 476.48 Q1321.84 475.537 1322.5 474.635 Q1323.19 473.733 1324.26 472.627 Q1325.36 471.479 1326.88 470.823 Q1328.44 470.126 1330.16 470.126 Q1331.84 470.126 1333.48 470.577 Q1335.12 470.987 1336.51 472.34 Q1337.95 473.651 1337.95 475.66 Z" fill="#000000" fill-rule="evenodd" fill-opacity="1" /><path clip-path="url(#clip700)" d="M1422.38 485.046 Q1422.87 485.538 1422.87 486.235 Q1422.87 486.932 1422.38 487.424 Q1421.89 487.916 1421.19 487.916 L1368.64 487.916 Q1367.95 487.916 1367.46 487.424 Q1366.96 486.932 1366.96 486.235 Q1366.96 485.538 1367.46 485.046 Q1367.95 484.555 1368.64 484.555 L1421.19 484.555 Q1421.89 484.555 1422.38 485.046 Z" fill="#000000" fill-rule="evenodd" fill-opacity="1" /><path clip-path="url(#clip700)" d="M1493.65 473.324 Q1493.65 473.897 1493.29 475.25 L1485.25 507.304 Q1483.49 514.436 1477.75 519.436 Q1472.05 524.437 1465.58 524.437 Q1461.68 524.437 1459.18 522.347 Q1456.68 520.297 1456.68 517.141 Q1456.68 514.354 1458.16 513.001 Q1459.63 511.689 1461.4 511.689 Q1461.97 511.689 1462.58 511.853 Q1463.2 512.017 1463.85 512.714 Q1464.51 513.411 1464.51 514.6 Q1464.51 516.526 1462.83 518.043 Q1462.01 518.74 1461.23 518.904 Q1460.49 519.068 1459.22 519.068 Q1459.71 520.215 1460.62 520.994 Q1461.52 521.773 1462.54 522.06 Q1463.57 522.388 1464.22 522.47 Q1464.92 522.593 1465.58 522.593 Q1470.82 522.593 1474.84 517.305 Q1476.03 515.706 1476.89 514.108 Q1477.79 512.55 1478.45 510.624 Q1479.1 508.738 1479.39 507.714 Q1479.72 506.689 1480.29 504.352 Q1476.48 508.164 1471.81 508.164 Q1469.84 508.164 1468.08 507.632 Q1466.36 507.099 1464.84 505.992 Q1463.32 504.844 1462.42 502.836 Q1461.56 500.827 1461.56 498.163 Q1461.56 495.335 1462.67 491.482 Q1463.77 487.629 1466.44 480.538 Q1467.87 476.562 1467.87 474.635 Q1467.87 473.692 1467.67 473.119 Q1467.46 472.504 1467.05 472.299 Q1466.64 472.053 1466.4 472.012 Q1466.19 471.971 1465.78 471.971 Q1463.36 471.971 1461.11 474.43 Q1458.85 476.89 1457.3 482.382 Q1456.97 483.407 1456.76 483.653 Q1456.56 483.899 1455.94 483.899 Q1454.92 483.858 1454.92 483.038 Q1454.92 482.71 1455.29 481.439 Q1455.66 480.128 1456.52 478.201 Q1457.42 476.234 1458.65 474.471 Q1459.88 472.668 1461.81 471.397 Q1463.77 470.126 1466.03 470.126 Q1469.1 470.126 1470.99 472.135 Q1472.91 474.102 1472.91 477.013 Q1472.91 478.201 1472.59 479.267 Q1472.3 480.292 1471.23 483.038 Q1466.93 494.105 1466.93 499.516 Q1466.93 500.827 1467.13 501.934 Q1467.38 503 1467.91 504.065 Q1468.45 505.09 1469.51 505.705 Q1470.62 506.279 1472.13 506.279 Q1474.06 506.279 1475.86 505.377 Q1477.71 504.434 1478.86 503.164 Q1480.05 501.893 1480.74 500.827 Q1481.48 499.721 1481.64 499.147 L1485.42 484.063 L1487.1 477.34 Q1487.87 473.692 1488.24 472.791 Q1488.74 471.93 1489.6 471.479 Q1490.46 471.028 1491.19 471.028 Q1492.22 471.028 1492.92 471.643 Q1493.65 472.258 1493.65 473.324 Z" fill="#000000" fill-rule="evenodd" fill-opacity="1" /><path clip-path="url(#clip700)" d="M1520.85 487.26 Q1518.92 487.26 1518.92 486.235 Q1518.92 485.21 1520.93 485.21 Q1521.18 485.21 1521.59 485.251 Q1522.04 485.292 1522.12 485.292 L1545.77 485.292 L1545.77 461.56 Q1545.77 461.478 1545.73 461.109 Q1545.69 460.699 1545.69 460.453 Q1545.69 458.444 1546.67 458.444 Q1547.7 458.444 1547.7 460.453 L1547.7 485.292 L1571.39 485.292 Q1571.47 485.292 1571.88 485.251 Q1572.29 485.21 1572.54 485.21 Q1574.46 485.21 1574.46 486.235 Q1574.51 487.26 1572.46 487.26 Q1572.21 487.26 1571.84 487.219 Q1571.47 487.178 1571.39 487.178 L1547.7 487.178 L1547.7 512.099 Q1547.7 514.026 1546.67 514.026 Q1545.69 514.026 1545.69 512.017 Q1545.69 511.771 1545.73 511.362 Q1545.77 510.993 1545.77 510.911 L1545.77 487.178 L1522.12 487.178 Q1522.04 487.178 1521.55 487.219 Q1521.1 487.26 1520.85 487.26 Z" fill="#000000" fill-rule="evenodd" fill-opacity="1" /><path clip-path="url(#clip700)" d="M1606.88 459.305 L1606.88 456.682 Q1616.96 456.682 1622.17 451.312 Q1623.6 451.312 1623.85 451.64 Q1624.09 451.968 1624.09 453.485 L1624.09 500.581 Q1624.09 503.082 1625.32 503.861 Q1626.55 504.639 1631.92 504.639 L1634.59 504.639 L1634.59 507.222 Q1631.64 506.976 1620.98 506.976 Q1610.32 506.976 1607.41 507.222 L1607.41 504.639 L1610.08 504.639 Q1615.36 504.639 1616.63 503.902 Q1617.91 503.123 1617.91 500.581 L1617.91 457.092 Q1613.52 459.305 1606.88 459.305 Z" fill="#000000" fill-rule="evenodd" fill-opacity="1" /><path clip-path="url(#clip700)" d="M1671.74 494.474 Q1671.82 493.449 1673.42 493.449 L1724.86 493.449 Q1727.28 493.449 1727.32 494.392 Q1727.32 495.417 1725.02 495.376 L1673.99 495.376 Q1671.74 495.417 1671.74 494.474 M1671.74 478.078 Q1671.74 477.054 1673.5 477.095 L1724.78 477.095 Q1727.28 477.095 1727.32 478.078 Q1727.32 479.021 1725.19 479.021 L1673.42 479.021 Q1671.74 479.021 1671.74 478.078 Z" fill="#000000" fill-rule="evenodd" fill-opacity="1" /><path clip-path="url(#clip700)" d="M1759.69 480.374 Q1759.69 468.036 1762.81 461.314 Q1767.15 451.312 1777.4 451.312 Q1779.57 451.312 1781.83 451.927 Q1784.12 452.501 1786.99 454.755 Q1789.9 457.01 1791.66 460.699 Q1795.02 467.831 1795.02 480.374 Q1795.02 492.629 1791.91 499.311 Q1787.36 509.066 1777.32 509.066 Q1773.55 509.066 1769.69 507.14 Q1765.88 505.213 1763.46 500.581 Q1759.69 493.654 1759.69 480.374 M1766.66 479.349 Q1766.66 492.015 1767.56 497.056 Q1768.59 502.508 1771.37 504.885 Q1774.2 507.222 1777.32 507.222 Q1780.68 507.222 1783.47 504.721 Q1786.29 502.18 1787.15 496.728 Q1788.1 491.359 1788.06 479.349 Q1788.06 467.667 1787.24 462.994 Q1786.13 457.543 1783.18 455.37 Q1780.27 453.157 1777.32 453.157 Q1776.21 453.157 1775.02 453.485 Q1773.87 453.813 1772.19 454.755 Q1770.51 455.698 1769.2 458.035 Q1767.93 460.371 1767.32 463.896 Q1766.66 468.446 1766.66 479.349 Z" fill="#000000" fill-rule="evenodd" fill-opacity="1" /><path clip-path="url(#clip700)" d="M1722.36 1138.3 Q1722.36 1140.59 1720.92 1141.91 Q1719.49 1143.18 1717.85 1143.18 Q1716.29 1143.18 1715.47 1142.28 Q1714.65 1141.37 1714.65 1140.23 Q1714.65 1138.67 1715.8 1137.32 Q1716.95 1135.96 1718.67 1135.68 Q1716.99 1134.61 1714.49 1134.61 Q1712.85 1134.61 1711.42 1135.47 Q1710.02 1136.33 1709.16 1137.44 Q1708.34 1138.55 1707.6 1140.14 Q1706.91 1141.7 1706.62 1142.64 Q1706.37 1143.55 1706.17 1144.53 L1703.3 1156.01 Q1701.91 1161.46 1701.91 1163.38 Q1701.91 1165.76 1703.05 1167.36 Q1704.2 1168.92 1706.5 1168.92 Q1707.4 1168.92 1708.42 1168.67 Q1709.45 1168.39 1710.76 1167.65 Q1712.11 1166.87 1713.3 1165.72 Q1714.53 1164.53 1715.72 1162.52 Q1716.91 1160.52 1717.69 1157.93 Q1717.93 1157.03 1718.75 1157.03 Q1719.78 1157.03 1719.78 1157.85 Q1719.78 1158.55 1719.2 1160.02 Q1718.67 1161.46 1717.48 1163.34 Q1716.33 1165.19 1714.82 1166.87 Q1713.3 1168.51 1711.05 1169.66 Q1708.79 1170.8 1706.33 1170.8 Q1702.81 1170.8 1700.47 1168.92 Q1698.13 1167.03 1697.27 1164.41 Q1697.07 1164.78 1696.78 1165.27 Q1696.5 1165.76 1695.63 1166.87 Q1694.81 1167.93 1693.87 1168.75 Q1692.93 1169.53 1691.45 1170.15 Q1690.02 1170.8 1688.46 1170.8 Q1686.49 1170.8 1684.73 1170.23 Q1683.01 1169.66 1681.78 1168.34 Q1680.55 1167.03 1680.55 1165.23 Q1680.55 1163.22 1681.9 1161.83 Q1683.3 1160.39 1685.18 1160.39 Q1686.37 1160.39 1687.31 1161.09 Q1688.3 1161.79 1688.3 1163.3 Q1688.3 1164.98 1687.15 1166.25 Q1686 1167.52 1684.36 1167.85 Q1686.04 1168.92 1688.54 1168.92 Q1691.25 1168.92 1693.38 1166.54 Q1695.51 1164.16 1696.54 1160.19 Q1699.08 1150.64 1700.06 1146.37 Q1701.04 1142.07 1701.04 1140.23 Q1701.04 1138.5 1700.59 1137.32 Q1700.14 1136.13 1699.36 1135.59 Q1698.63 1135.02 1697.93 1134.82 Q1697.27 1134.61 1696.54 1134.61 Q1695.31 1134.61 1693.91 1135.1 Q1692.56 1135.59 1690.92 1136.74 Q1689.32 1137.85 1687.81 1140.14 Q1686.29 1142.44 1685.26 1145.6 Q1685.06 1146.54 1684.16 1146.54 Q1683.17 1146.5 1683.17 1145.68 Q1683.17 1144.98 1683.71 1143.55 Q1684.28 1142.07 1685.43 1140.23 Q1686.62 1138.38 1688.13 1136.74 Q1689.69 1135.06 1691.95 1133.91 Q1694.24 1132.77 1696.7 1132.77 Q1697.81 1132.77 1698.87 1133.01 Q1699.98 1133.22 1701.29 1133.83 Q1702.64 1134.45 1703.83 1135.8 Q1705.02 1137.15 1705.76 1139.12 Q1706.25 1138.18 1706.91 1137.27 Q1707.6 1136.37 1708.67 1135.27 Q1709.78 1134.12 1711.29 1133.46 Q1712.85 1132.77 1714.57 1132.77 Q1716.25 1132.77 1717.89 1133.22 Q1719.53 1133.63 1720.92 1134.98 Q1722.36 1136.29 1722.36 1138.3 Z" fill="#000000" fill-rule="evenodd" fill-opacity="1" /><path clip-path="url(#clip700)" d="M691.169 65.3535 Q691.169 65.9273 690.8 67.28 L682.766 99.3336 Q681.004 106.466 675.265 111.466 Q669.568 116.467 663.092 116.467 Q659.198 116.467 656.697 114.377 Q654.197 112.327 654.197 109.171 Q654.197 106.384 655.673 105.031 Q657.148 103.719 658.911 103.719 Q659.485 103.719 660.099 103.883 Q660.714 104.047 661.37 104.744 Q662.026 105.441 662.026 106.63 Q662.026 108.556 660.345 110.073 Q659.526 110.77 658.747 110.934 Q658.009 111.098 656.738 111.098 Q657.23 112.245 658.132 113.024 Q659.034 113.803 660.058 114.09 Q661.083 114.418 661.739 114.5 Q662.436 114.623 663.092 114.623 Q668.338 114.623 672.355 109.335 Q673.544 107.736 674.405 106.138 Q675.306 104.58 675.962 102.654 Q676.618 100.768 676.905 99.7435 Q677.233 98.7187 677.807 96.3824 Q673.995 100.194 669.322 100.194 Q667.354 100.194 665.592 99.6615 Q663.87 99.1286 662.354 98.0219 Q660.837 96.8742 659.935 94.8658 Q659.075 92.8573 659.075 90.193 Q659.075 87.3647 660.181 83.5117 Q661.288 79.6587 663.952 72.5676 Q665.387 68.5916 665.387 66.6651 Q665.387 65.7224 665.182 65.1485 Q664.977 64.5337 664.567 64.3287 Q664.157 64.0828 663.911 64.0418 Q663.706 64.0008 663.297 64.0008 Q660.878 64.0008 658.624 66.4602 Q656.369 68.9195 654.812 74.4121 Q654.484 75.4368 654.279 75.6828 Q654.074 75.9287 653.459 75.9287 Q652.434 75.8877 652.434 75.0679 Q652.434 74.74 652.803 73.4694 Q653.172 72.1577 654.033 70.2312 Q654.935 68.2637 656.164 66.5012 Q657.394 64.6976 659.321 63.427 Q661.288 62.1563 663.542 62.1563 Q666.617 62.1563 668.502 64.1648 Q670.429 66.1323 670.429 69.0425 Q670.429 70.2312 670.101 71.2969 Q669.814 72.3217 668.748 75.0679 Q664.444 86.135 664.444 91.5456 Q664.444 92.8573 664.649 93.964 Q664.895 95.0297 665.428 96.0954 Q665.961 97.1202 667.027 97.735 Q668.133 98.3089 669.65 98.3089 Q671.576 98.3089 673.38 97.4071 Q675.224 96.4643 676.372 95.1937 Q677.561 93.923 678.258 92.8573 Q678.995 91.7506 679.159 91.1767 L682.93 76.0927 L684.611 69.3704 Q685.39 65.7224 685.759 64.8206 Q686.251 63.9598 687.111 63.509 Q687.972 63.0581 688.71 63.0581 Q689.735 63.0581 690.431 63.6729 Q691.169 64.2878 691.169 65.3535 Z" fill="#000000" fill-rule="evenodd" fill-opacity="1" /></svg>
