<?xml version="1.0" encoding="utf-8"?>
<svg xmlns="http://www.w3.org/2000/svg" xmlns:xlink="http://www.w3.org/1999/xlink" width="480" height="320" viewBox="0 0 1920 1280">
<defs>
  <clipPath id="clip010">
    <rect x="0" y="0" width="1920" height="1280"/>
  </clipPath>
</defs>
<path clip-path="url(#clip010)" d="
M0 1280 L1920 1280 L1920 0 L0 0  Z
  " fill="#ffffff" fill-rule="evenodd" fill-opacity="1"/>
<defs>
  <clipPath id="clip011">
    <rect x="384" y="0" width="1345" height="1280"/>
  </clipPath>
</defs>
<path clip-path="url(#clip010)" d="
M47.2441 1232.76 L1872.76 1232.76 L1872.76 47.2441 L47.2441 47.2441  Z
  " fill="#ffffff" fill-rule="evenodd" fill-opacity="1"/>
<defs>
  <clipPath id="clip012">
    <rect x="47" y="47" width="1827" height="1187"/>
  </clipPath>
</defs>
<polyline clip-path="url(#clip010)" style="stroke:#000000; stroke-linecap:butt; stroke-linejoin:round; stroke-width:4; stroke-opacity:1; fill:none" points="
  47.2441,1232.76 1872.76,1232.76 
  "/>
<polyline clip-path="url(#clip010)" style="stroke:#000000; stroke-linecap:butt; stroke-linejoin:round; stroke-width:4; stroke-opacity:1; fill:none" points="
  47.2441,47.2441 1872.76,47.2441 
  "/>
<polyline clip-path="url(#clip010)" style="stroke:#000000; stroke-linecap:butt; stroke-linejoin:round; stroke-width:4; stroke-opacity:1; fill:none" points="
  47.2441,1232.76 47.2441,47.2441 
  "/>
<polyline clip-path="url(#clip010)" style="stroke:#000000; stroke-linecap:butt; stroke-linejoin:round; stroke-width:4; stroke-opacity:1; fill:none" points="
  1872.76,1232.76 1872.76,47.2441 
  "/>
<polyline clip-path="url(#clip012)" style="stroke:#009af9; stroke-linecap:butt; stroke-linejoin:round; stroke-width:4; stroke-opacity:1; fill:none" points="
  47.2441,-435.742 50.2154,-425.468 53.1866,-415.227 56.1579,-405.02 59.1292,-394.846 86.6029,-302.361 114.077,-212.74 141.55,-125.983 169.024,-42.0908 202.045,54.951 
  235.066,147.855 262.985,223.176 290.904,295.54 321.232,370.795 351.559,442.561 379.519,505.63 407.478,565.733 437.454,626.875 467.429,684.607 484.794,716.492 
  502.159,747.232 519.524,776.828 536.889,805.28 567.752,853.025 598.616,897.156 625.68,932.88 652.745,965.825 682.253,998.576 711.76,1028.02 741.443,1054.31 
  771.126,1077.26 803.945,1098.73 836.763,1116.13 867.989,1128.88 899.215,1137.93 931.682,1143.42 964.15,1144.91 991.481,1143.06 1018.81,1138.38 1035.5,1134.13 
  1052.18,1128.82 1068.86,1122.45 1085.55,1115.03 1116.11,1098.7 1146.68,1078.82 1174.91,1057.31 1203.14,1032.77 1231.74,1004.84 1260.34,973.799 1292.39,935.324 
  1324.44,892.952 1353.48,851.19 1382.52,806.228 1399.15,779.048 1415.77,750.819 1432.4,721.541 1449.02,691.215 1479.81,632.286 1510.6,569.76 1540.95,504.596 
  1571.3,435.936 1600.77,365.928 1630.24,292.624 1660.45,214.058 1690.66,132.028 1707.21,85.6234 1723.76,38.1793 1740.31,-10.3041 1756.86,-59.8267 1780.9,-133.618 
  1804.95,-209.602 1828.99,-287.78 1853.03,-368.151 1857.96,-384.91 1862.89,-401.762 1867.82,-418.706 1872.76,-435.742 
  "/>
<polyline clip-path="url(#clip012)" style="stroke:#000000; stroke-linecap:butt; stroke-linejoin:round; stroke-width:4; stroke-opacity:1; fill:none" points="
  1690.2,1101.03 1690.2,133.303 
  "/>
<polyline clip-path="url(#clip012)" style="stroke:#000000; stroke-linecap:butt; stroke-linejoin:round; stroke-width:4; stroke-opacity:1; fill:none" points="
  1675.8,162.103 1690.2,133.303 1704.6,162.103 
  "/>
<polyline clip-path="url(#clip012)" style="stroke:#000000; stroke-linecap:butt; stroke-linejoin:round; stroke-width:4; stroke-opacity:1; fill:none" points="
  1690.2,133.303 1690.2,1101.03 
  "/>
<polyline clip-path="url(#clip012)" style="stroke:#000000; stroke-linecap:butt; stroke-linejoin:round; stroke-width:4; stroke-opacity:1; fill:none" points="
  1690.2,133.303 1340.95,1101.03 
  "/>
<polyline clip-path="url(#clip012)" style="stroke:#000000; stroke-linecap:butt; stroke-linejoin:round; stroke-width:4; stroke-opacity:1; fill:none" points="
  1364.27,1078.83 1340.95,1101.03 1337.18,1069.05 
  "/>
<polyline clip-path="url(#clip012)" style="stroke:#000000; stroke-linecap:butt; stroke-linejoin:round; stroke-width:4; stroke-opacity:1; fill:none" points="
  1340.95,1101.03 1690.2,133.303 
  "/>
<polyline clip-path="url(#clip012)" style="stroke:#000000; stroke-linecap:butt; stroke-linejoin:round; stroke-width:4; stroke-opacity:1; fill:none" points="
  1340.95,1101.03 1340.95,869.601 
  "/>
<polyline clip-path="url(#clip012)" style="stroke:#000000; stroke-linecap:butt; stroke-linejoin:round; stroke-width:4; stroke-opacity:1; fill:none" points="
  1326.55,898.401 1340.95,869.601 1355.35,898.401 
  "/>
<polyline clip-path="url(#clip012)" style="stroke:#000000; stroke-linecap:butt; stroke-linejoin:round; stroke-width:4; stroke-opacity:1; fill:none" points="
  1340.95,869.601 1340.95,1101.03 
  "/>
<polyline clip-path="url(#clip012)" style="stroke:#000000; stroke-linecap:butt; stroke-linejoin:round; stroke-width:4; stroke-opacity:1; fill:none" points="
  1340.95,869.601 1180.85,1101.03 
  "/>
<polyline clip-path="url(#clip012)" style="stroke:#000000; stroke-linecap:butt; stroke-linejoin:round; stroke-width:4; stroke-opacity:1; fill:none" points="
  1209.08,1085.54 1180.85,1101.03 1185.39,1069.15 
  "/>
<polyline clip-path="url(#clip012)" style="stroke:#000000; stroke-linecap:butt; stroke-linejoin:round; stroke-width:4; stroke-opacity:1; fill:none" points="
  1180.85,1101.03 1340.95,869.601 
  "/>
<polyline clip-path="url(#clip012)" style="stroke:#000000; stroke-linecap:butt; stroke-linejoin:round; stroke-width:4; stroke-opacity:1; fill:none" points="
  1180.85,1101.03 1180.85,1052.4 
  "/>
<polyline clip-path="url(#clip012)" style="stroke:#000000; stroke-linecap:butt; stroke-linejoin:round; stroke-width:4; stroke-opacity:1; fill:none" points="
  1166.45,1081.2 1180.85,1052.4 1195.25,1081.2 
  "/>
<polyline clip-path="url(#clip012)" style="stroke:#000000; stroke-linecap:butt; stroke-linejoin:round; stroke-width:4; stroke-opacity:1; fill:none" points="
  1180.85,1052.4 1180.85,1101.03 
  "/>
<polyline clip-path="url(#clip012)" style="stroke:#000000; stroke-linecap:butt; stroke-linejoin:round; stroke-width:4; stroke-opacity:1; fill:none" points="
  1180.85,1052.4 1122.82,1101.03 
  "/>
<polyline clip-path="url(#clip012)" style="stroke:#000000; stroke-linecap:butt; stroke-linejoin:round; stroke-width:4; stroke-opacity:1; fill:none" points="
  1154.14,1093.57 1122.82,1101.03 1135.64,1071.5 
  "/>
<polyline clip-path="url(#clip012)" style="stroke:#000000; stroke-linecap:butt; stroke-linejoin:round; stroke-width:4; stroke-opacity:1; fill:none" points="
  1122.82,1101.03 1180.85,1052.4 
  "/>
<polyline clip-path="url(#clip012)" style="stroke:#000000; stroke-linecap:butt; stroke-linejoin:round; stroke-width:4; stroke-opacity:1; fill:none" points="
  47.2441,1101.03 59.1292,1101.03 169.024,1101.03 235.066,1101.03 290.904,1101.03 351.559,1101.03 407.478,1101.03 467.429,1101.03 536.889,1101.03 598.616,1101.03 
  652.745,1101.03 711.76,1101.03 771.126,1101.03 836.763,1101.03 899.215,1101.03 964.15,1101.03 1018.81,1101.03 1085.55,1101.03 1146.68,1101.03 1203.14,1101.03 
  1260.34,1101.03 1324.44,1101.03 1382.52,1101.03 1449.02,1101.03 1510.6,1101.03 1571.3,1101.03 1630.24,1101.03 1690.66,1101.03 1756.86,1101.03 1853.03,1101.03 
  1872.76,1101.03 
  "/>
<polyline clip-path="url(#clip012)" style="stroke:#000000; stroke-linecap:butt; stroke-linejoin:round; stroke-width:4; stroke-opacity:1; fill:none" points="
  960,1232.76 960,47.2441 
  "/>
<path clip-path="url(#clip010)" d="M1690.11 1132.56 Q1690.11 1134.85 1688.67 1136.17 Q1687.24 1137.44 1685.6 1137.44 Q1684.04 1137.44 1683.22 1136.54 Q1682.4 1135.63 1682.4 1134.49 Q1682.4 1132.93 1683.55 1131.58 Q1684.7 1130.22 1686.42 1129.94 Q1684.74 1128.87 1682.24 1128.87 Q1680.6 1128.87 1679.16 1129.73 Q1677.77 1130.59 1676.91 1131.7 Q1676.09 1132.81 1675.35 1134.4 Q1674.66 1135.96 1674.37 1136.9 Q1674.12 1137.81 1673.92 1138.79 L1671.05 1150.27 Q1669.65 1155.72 1669.65 1157.64 Q1669.65 1160.02 1670.8 1161.62 Q1671.95 1163.18 1674.25 1163.18 Q1675.15 1163.18 1676.17 1162.93 Q1677.2 1162.65 1678.51 1161.91 Q1679.86 1161.13 1681.05 1159.98 Q1682.28 1158.79 1683.47 1156.78 Q1684.66 1154.78 1685.44 1152.19 Q1685.68 1151.29 1686.5 1151.29 Q1687.53 1151.29 1687.53 1152.11 Q1687.53 1152.81 1686.95 1154.28 Q1686.42 1155.72 1685.23 1157.6 Q1684.08 1159.45 1682.57 1161.13 Q1681.05 1162.77 1678.8 1163.92 Q1676.54 1165.06 1674.08 1165.06 Q1670.56 1165.06 1668.22 1163.18 Q1665.88 1161.29 1665.02 1158.67 Q1664.82 1159.04 1664.53 1159.53 Q1664.24 1160.02 1663.38 1161.13 Q1662.56 1162.19 1661.62 1163.01 Q1660.68 1163.79 1659.2 1164.41 Q1657.77 1165.06 1656.21 1165.06 Q1654.24 1165.06 1652.48 1164.49 Q1650.76 1163.92 1649.53 1162.6 Q1648.3 1161.29 1648.3 1159.49 Q1648.3 1157.48 1649.65 1156.09 Q1651.05 1154.65 1652.93 1154.65 Q1654.12 1154.65 1655.06 1155.35 Q1656.05 1156.05 1656.05 1157.56 Q1656.05 1159.24 1654.9 1160.51 Q1653.75 1161.78 1652.11 1162.11 Q1653.79 1163.18 1656.29 1163.18 Q1659 1163.18 1661.13 1160.8 Q1663.26 1158.42 1664.28 1154.45 Q1666.83 1144.9 1667.81 1140.63 Q1668.79 1136.33 1668.79 1134.49 Q1668.79 1132.76 1668.34 1131.58 Q1667.89 1130.39 1667.11 1129.85 Q1666.38 1129.28 1665.68 1129.08 Q1665.02 1128.87 1664.28 1128.87 Q1663.06 1128.87 1661.66 1129.36 Q1660.31 1129.85 1658.67 1131 Q1657.07 1132.11 1655.55 1134.4 Q1654.04 1136.7 1653.01 1139.86 Q1652.81 1140.8 1651.91 1140.8 Q1650.92 1140.76 1650.92 1139.94 Q1650.92 1139.24 1651.46 1137.81 Q1652.03 1136.33 1653.18 1134.49 Q1654.37 1132.64 1655.88 1131 Q1657.44 1129.32 1659.69 1128.17 Q1661.99 1127.03 1664.45 1127.03 Q1665.56 1127.03 1666.62 1127.27 Q1667.73 1127.48 1669.04 1128.09 Q1670.39 1128.71 1671.58 1130.06 Q1672.77 1131.41 1673.51 1133.38 Q1674 1132.44 1674.66 1131.53 Q1675.35 1130.63 1676.42 1129.53 Q1677.52 1128.38 1679.04 1127.72 Q1680.6 1127.03 1682.32 1127.03 Q1684 1127.03 1685.64 1127.48 Q1687.28 1127.89 1688.67 1129.24 Q1690.11 1130.55 1690.11 1132.56 Z" fill="#000000" fill-rule="evenodd" fill-opacity="1" /><path clip-path="url(#clip010)" d="M1698.66 1169.52 Q1698.66 1160.89 1700.84 1156.18 Q1703.88 1149.18 1711.05 1149.18 Q1712.57 1149.18 1714.15 1149.61 Q1715.76 1150.01 1717.77 1151.59 Q1719.81 1153.17 1721.04 1155.75 Q1723.39 1160.74 1723.39 1169.52 Q1723.39 1178.1 1721.21 1182.78 Q1718.03 1189.61 1711 1189.61 Q1708.36 1189.61 1705.66 1188.26 Q1702.99 1186.91 1701.3 1183.67 Q1698.66 1178.82 1698.66 1169.52 M1703.54 1168.8 Q1703.54 1177.67 1704.17 1181.2 Q1704.89 1185.02 1706.84 1186.68 Q1708.82 1188.32 1711 1188.32 Q1713.35 1188.32 1715.3 1186.57 Q1717.28 1184.79 1717.88 1180.97 Q1718.54 1177.21 1718.51 1168.8 Q1718.51 1160.63 1717.94 1157.36 Q1717.17 1153.54 1715.1 1152.02 Q1713.06 1150.47 1711 1150.47 Q1710.22 1150.47 1709.39 1150.7 Q1708.59 1150.93 1707.41 1151.59 Q1706.23 1152.25 1705.32 1153.88 Q1704.43 1155.52 1704 1157.99 Q1703.54 1161.17 1703.54 1168.8 Z" fill="#000000" fill-rule="evenodd" fill-opacity="1" /><path clip-path="url(#clip010)" d="M1343.49 1133.2 Q1343.49 1135.49 1342.06 1136.8 Q1340.63 1138.08 1338.99 1138.08 Q1337.43 1138.08 1336.61 1137.17 Q1335.79 1136.27 1335.79 1135.12 Q1335.79 1133.57 1336.94 1132.21 Q1338.08 1130.86 1339.81 1130.57 Q1338.13 1129.51 1335.62 1129.51 Q1333.99 1129.51 1332.55 1130.37 Q1331.16 1131.23 1330.3 1132.34 Q1329.48 1133.44 1328.74 1135.04 Q1328.04 1136.6 1327.75 1137.54 Q1327.51 1138.44 1327.3 1139.43 L1324.43 1150.91 Q1323.04 1156.36 1323.04 1158.28 Q1323.04 1160.66 1324.19 1162.26 Q1325.34 1163.82 1327.63 1163.82 Q1328.53 1163.82 1329.56 1163.57 Q1330.58 1163.28 1331.89 1162.55 Q1333.25 1161.77 1334.44 1160.62 Q1335.67 1159.43 1336.85 1157.42 Q1338.04 1155.41 1338.82 1152.83 Q1339.07 1151.93 1339.89 1151.93 Q1340.91 1151.93 1340.91 1152.75 Q1340.91 1153.45 1340.34 1154.92 Q1339.81 1156.36 1338.62 1158.24 Q1337.47 1160.09 1335.95 1161.77 Q1334.44 1163.41 1332.18 1164.55 Q1329.93 1165.7 1327.47 1165.7 Q1323.94 1165.7 1321.61 1163.82 Q1319.27 1161.93 1318.41 1159.31 Q1318.2 1159.68 1317.92 1160.17 Q1317.63 1160.66 1316.77 1161.77 Q1315.95 1162.83 1315.01 1163.65 Q1314.06 1164.43 1312.59 1165.05 Q1311.15 1165.7 1309.6 1165.7 Q1307.63 1165.7 1305.87 1165.13 Q1304.15 1164.55 1302.92 1163.24 Q1301.69 1161.93 1301.69 1160.13 Q1301.69 1158.12 1303.04 1156.73 Q1304.43 1155.29 1306.32 1155.29 Q1307.51 1155.29 1308.45 1155.99 Q1309.43 1156.68 1309.43 1158.2 Q1309.43 1159.88 1308.28 1161.15 Q1307.14 1162.42 1305.5 1162.75 Q1307.18 1163.82 1309.68 1163.82 Q1312.38 1163.82 1314.52 1161.44 Q1316.65 1159.06 1317.67 1155.09 Q1320.21 1145.54 1321.2 1141.27 Q1322.18 1136.97 1322.18 1135.12 Q1322.18 1133.4 1321.73 1132.21 Q1321.28 1131.03 1320.5 1130.49 Q1319.76 1129.92 1319.07 1129.71 Q1318.41 1129.51 1317.67 1129.51 Q1316.44 1129.51 1315.05 1130 Q1313.7 1130.49 1312.06 1131.64 Q1310.46 1132.75 1308.94 1135.04 Q1307.42 1137.34 1306.4 1140.49 Q1306.19 1141.44 1305.29 1141.44 Q1304.31 1141.4 1304.31 1140.58 Q1304.31 1139.88 1304.84 1138.44 Q1305.42 1136.97 1306.56 1135.12 Q1307.75 1133.28 1309.27 1131.64 Q1310.83 1129.96 1313.08 1128.81 Q1315.38 1127.66 1317.84 1127.66 Q1318.94 1127.66 1320.01 1127.91 Q1321.11 1128.12 1322.43 1128.73 Q1323.78 1129.34 1324.97 1130.7 Q1326.16 1132.05 1326.89 1134.02 Q1327.39 1133.07 1328.04 1132.17 Q1328.74 1131.27 1329.8 1130.16 Q1330.91 1129.02 1332.43 1128.36 Q1333.99 1127.66 1335.71 1127.66 Q1337.39 1127.66 1339.03 1128.12 Q1340.67 1128.53 1342.06 1129.88 Q1343.49 1131.19 1343.49 1133.2 Z" fill="#000000" fill-rule="evenodd" fill-opacity="1" /><path clip-path="url(#clip010)" d="M1352.05 1155.41 L1352.05 1153.58 Q1359.1 1153.58 1362.75 1149.82 Q1363.75 1149.82 1363.92 1150.05 Q1364.1 1150.28 1364.1 1151.34 L1364.1 1184.31 Q1364.1 1186.06 1364.96 1186.6 Q1365.82 1187.15 1369.58 1187.15 L1371.44 1187.15 L1371.44 1188.95 Q1369.38 1188.78 1361.92 1188.78 Q1354.46 1188.78 1352.42 1188.95 L1352.42 1187.15 L1354.28 1187.15 Q1357.99 1187.15 1358.87 1186.63 Q1359.76 1186.09 1359.76 1184.31 L1359.76 1153.86 Q1356.69 1155.41 1352.05 1155.41 Z" fill="#000000" fill-rule="evenodd" fill-opacity="1" /><path clip-path="url(#clip010)" d="M1181.38 1133.2 Q1181.38 1135.49 1179.94 1136.8 Q1178.51 1138.08 1176.87 1138.08 Q1175.31 1138.08 1174.49 1137.17 Q1173.67 1136.27 1173.67 1135.12 Q1173.67 1133.57 1174.82 1132.21 Q1175.97 1130.86 1177.69 1130.57 Q1176.01 1129.51 1173.51 1129.51 Q1171.87 1129.51 1170.43 1130.37 Q1169.04 1131.23 1168.18 1132.34 Q1167.36 1133.44 1166.62 1135.04 Q1165.93 1136.6 1165.64 1137.54 Q1165.39 1138.44 1165.19 1139.43 L1162.32 1150.91 Q1160.92 1156.36 1160.92 1158.28 Q1160.92 1160.66 1162.07 1162.26 Q1163.22 1163.82 1165.52 1163.82 Q1166.42 1163.82 1167.44 1163.57 Q1168.47 1163.28 1169.78 1162.55 Q1171.13 1161.77 1172.32 1160.62 Q1173.55 1159.43 1174.74 1157.42 Q1175.93 1155.41 1176.71 1152.83 Q1176.95 1151.93 1177.77 1151.93 Q1178.8 1151.93 1178.8 1152.75 Q1178.8 1153.45 1178.22 1154.92 Q1177.69 1156.36 1176.5 1158.24 Q1175.35 1160.09 1173.84 1161.77 Q1172.32 1163.41 1170.07 1164.55 Q1167.81 1165.7 1165.35 1165.7 Q1161.83 1165.7 1159.49 1163.82 Q1157.15 1161.93 1156.29 1159.31 Q1156.09 1159.68 1155.8 1160.17 Q1155.51 1160.66 1154.65 1161.77 Q1153.83 1162.83 1152.89 1163.65 Q1151.95 1164.43 1150.47 1165.05 Q1149.04 1165.7 1147.48 1165.7 Q1145.51 1165.7 1143.75 1165.13 Q1142.03 1164.55 1140.8 1163.24 Q1139.57 1161.93 1139.57 1160.13 Q1139.57 1158.12 1140.92 1156.73 Q1142.32 1155.29 1144.2 1155.29 Q1145.39 1155.29 1146.33 1155.99 Q1147.32 1156.68 1147.32 1158.2 Q1147.32 1159.88 1146.17 1161.15 Q1145.02 1162.42 1143.38 1162.75 Q1145.06 1163.82 1147.56 1163.82 Q1150.27 1163.82 1152.4 1161.44 Q1154.53 1159.06 1155.55 1155.09 Q1158.1 1145.54 1159.08 1141.27 Q1160.06 1136.97 1160.06 1135.12 Q1160.06 1133.4 1159.61 1132.21 Q1159.16 1131.03 1158.38 1130.49 Q1157.65 1129.92 1156.95 1129.71 Q1156.29 1129.51 1155.55 1129.51 Q1154.33 1129.51 1152.93 1130 Q1151.58 1130.49 1149.94 1131.64 Q1148.34 1132.75 1146.82 1135.04 Q1145.31 1137.34 1144.28 1140.49 Q1144.08 1141.44 1143.18 1141.44 Q1142.19 1141.4 1142.19 1140.58 Q1142.19 1139.88 1142.73 1138.44 Q1143.3 1136.97 1144.45 1135.12 Q1145.64 1133.28 1147.15 1131.64 Q1148.71 1129.96 1150.96 1128.81 Q1153.26 1127.66 1155.72 1127.66 Q1156.83 1127.66 1157.89 1127.91 Q1159 1128.12 1160.31 1128.73 Q1161.66 1129.34 1162.85 1130.7 Q1164.04 1132.05 1164.78 1134.02 Q1165.27 1133.07 1165.93 1132.17 Q1166.62 1131.27 1167.69 1130.16 Q1168.79 1129.02 1170.31 1128.36 Q1171.87 1127.66 1173.59 1127.66 Q1175.27 1127.66 1176.91 1128.12 Q1178.55 1128.53 1179.94 1129.88 Q1181.38 1131.19 1181.38 1133.2 Z" fill="#000000" fill-rule="evenodd" fill-opacity="1" /><path clip-path="url(#clip010)" d="M1189.93 1188.95 Q1189.93 1187.89 1190.02 1187.58 Q1190.13 1187.26 1190.59 1186.77 L1201.87 1174.21 Q1208.03 1167.26 1208.03 1161.21 Q1208.03 1157.28 1205.97 1154.47 Q1203.93 1151.65 1200.17 1151.65 Q1197.59 1151.65 1195.41 1153.23 Q1193.23 1154.81 1192.22 1157.62 Q1192.4 1157.57 1193 1157.57 Q1194.46 1157.57 1195.27 1158.48 Q1196.1 1159.4 1196.1 1160.64 Q1196.1 1162.21 1195.06 1162.99 Q1194.06 1163.73 1193.06 1163.73 Q1192.65 1163.73 1192.11 1163.65 Q1191.59 1163.56 1190.76 1162.76 Q1189.93 1161.93 1189.93 1160.46 Q1189.93 1156.36 1193.03 1153.09 Q1196.16 1149.82 1200.92 1149.82 Q1206.31 1149.82 1209.84 1153.03 Q1213.4 1156.22 1213.4 1161.21 Q1213.4 1162.96 1212.85 1164.57 Q1212.34 1166.14 1211.62 1167.38 Q1210.93 1168.61 1209.04 1170.59 Q1207.14 1172.57 1205.62 1173.98 Q1204.1 1175.38 1200.69 1178.37 L1194.46 1184.42 L1205.05 1184.42 Q1210.21 1184.42 1210.62 1183.96 Q1211.19 1183.13 1211.91 1178.74 L1213.4 1178.74 L1211.74 1188.95 L1189.93 1188.95 Z" fill="#000000" fill-rule="evenodd" fill-opacity="1" /><path clip-path="url(#clip010)" d="M1116.74 1053.53 Q1116.65 1053.94 1116.49 1054.68 Q1116.33 1055.38 1115.59 1057.59 Q1114.85 1059.8 1113.87 1062.06 Q1112.92 1064.27 1111.08 1067.39 Q1109.28 1070.46 1107.06 1073.25 Q1106.45 1073.99 1106.33 1074.44 Q1106.24 1074.85 1106.24 1076.2 Q1106.24 1084.73 1108.83 1084.73 Q1108.95 1084.73 1109.15 1084.73 Q1109.4 1084.68 1110.01 1084.48 Q1110.67 1084.23 1111.24 1083.86 Q1111.82 1083.45 1112.47 1082.64 Q1113.13 1081.77 1113.54 1080.63 Q1113.91 1079.81 1114.65 1079.81 Q1115.63 1079.81 1115.63 1080.63 Q1115.63 1082.1 1113.58 1084.36 Q1111.53 1086.61 1108.58 1086.61 Q1105.75 1086.61 1103.74 1084.77 Q1101.78 1082.88 1100.96 1079.52 Q1092.1 1086.61 1083.25 1086.61 Q1077.02 1086.61 1073.33 1082.55 Q1069.64 1078.45 1069.64 1072.39 Q1069.64 1066.57 1072.84 1061.03 Q1076.08 1055.5 1081.32 1052.06 Q1086.61 1048.57 1092.22 1048.57 Q1094.19 1048.57 1096.08 1049.11 Q1097.96 1049.6 1099.85 1050.87 Q1101.73 1052.14 1103.13 1054.07 Q1104.52 1055.99 1105.38 1059.03 Q1106.24 1062.06 1106.24 1065.87 L1106.24 1071.08 Q1111.65 1064.23 1114.48 1054.43 Q1114.89 1052.96 1115.14 1052.79 Q1115.3 1052.67 1115.71 1052.67 Q1116.12 1052.67 1116.37 1052.92 Q1116.65 1053.12 1116.7 1053.33 L1116.74 1053.53 M1100.63 1077.35 Q1100.46 1075.91 1100.46 1067.96 Q1100.46 1066.44 1100.46 1065.62 Q1100.46 1064.76 1100.38 1063.12 Q1100.3 1061.48 1100.14 1060.46 Q1100.01 1059.44 1099.73 1057.96 Q1099.44 1056.48 1099.03 1055.54 Q1098.62 1054.6 1097.96 1053.53 Q1097.35 1052.47 1096.53 1051.85 Q1095.75 1051.24 1094.6 1050.83 Q1093.5 1050.42 1092.14 1050.42 Q1090.46 1050.42 1088.7 1051.03 Q1086.98 1051.61 1084.76 1053.45 Q1082.55 1055.25 1080.71 1058.12 Q1078.78 1061.16 1077.3 1066.73 Q1075.87 1072.26 1075.87 1075.59 Q1075.87 1079.77 1077.8 1082.27 Q1079.72 1084.73 1083.41 1084.73 Q1092.22 1084.73 1100.63 1077.35 Z" fill="#000000" fill-rule="evenodd" fill-opacity="1" /><path clip-path="url(#clip010)" d="M1001.85 72.0723 Q1001.85 74.3267 1000.42 75.7204 Q999.022 77.114 997.259 77.114 Q995.989 77.114 995.046 76.3352 Q994.144 75.5564 994.144 74.2038 Q994.144 72.8101 995.21 71.3345 Q996.276 69.8589 998.694 69.6539 Q997.095 68.1373 994.554 68.1373 Q993.283 68.1373 992.218 68.9571 Q991.193 69.7359 990.619 71.0066 Q990.004 72.3183 988.611 79.7373 Q988.16 82.1557 987.75 84.4921 Q987.34 86.8285 986.848 89.2878 L993.816 89.2878 Q994.718 89.2878 995.087 89.3288 Q995.456 89.3698 995.743 89.5747 Q996.071 89.7797 996.071 90.2306 Q996.071 91.3783 995.538 91.6652 Q995.046 91.9111 993.57 91.9111 L986.356 91.9111 L981.314 118.513 Q981.191 119.292 980.659 121.751 Q980.167 124.17 978.978 128.146 Q977.789 132.163 976.601 134.54 Q975.945 135.893 975.084 137.163 Q974.264 138.475 973.076 139.787 Q971.887 141.098 970.329 141.877 Q968.772 142.697 967.132 142.697 Q964.345 142.697 962.172 141.139 Q960 139.582 960 136.917 Q960 134.663 961.394 133.269 Q962.828 131.876 964.591 131.876 Q965.861 131.876 966.763 132.654 Q967.706 133.433 967.706 134.786 Q967.706 135.36 967.501 136.016 Q967.296 136.671 966.845 137.409 Q966.394 138.188 965.411 138.721 Q964.427 139.254 963.074 139.336 Q964.673 140.852 967.132 140.852 Q967.911 140.852 968.608 140.524 Q969.305 140.237 969.878 139.5 Q970.493 138.762 970.944 138.024 Q971.395 137.327 971.846 135.975 Q972.297 134.663 972.584 133.679 Q972.871 132.695 973.24 130.933 Q973.649 129.17 973.854 128.105 Q974.059 127.08 974.428 125.071 L980.7 91.9111 L975.166 91.9111 Q974.182 91.9111 973.772 91.8701 Q973.403 91.8291 973.117 91.6242 Q972.83 91.3783 972.83 90.8864 Q972.83 90.1076 973.158 89.7797 Q973.526 89.4108 973.936 89.3698 Q974.346 89.2878 975.33 89.2878 L981.15 89.2878 Q983.118 78.9175 983.897 76.1303 Q984.799 73.179 986.192 71.1296 Q987.586 69.0391 989.143 68.0554 Q990.701 67.0716 991.972 66.7027 Q993.283 66.2928 994.554 66.2928 Q997.423 66.2928 999.637 67.8504 Q1001.85 69.367 1001.85 72.0723 Z" fill="#000000" fill-rule="evenodd" fill-opacity="1" /><path clip-path="url(#clip010)" d="M1013.15 104.495 Q1013.15 90.3125 1018.44 78.8765 Q1020.69 74.0808 1023.85 70.0638 Q1027 66.0469 1029.09 64.2844 Q1031.18 62.5218 1031.76 62.5218 Q1032.58 62.5218 1032.62 63.3416 Q1032.62 63.7515 1031.51 64.7762 Q1017.98 78.5486 1018.03 104.495 Q1018.03 130.523 1031.18 143.763 Q1032.62 145.197 1032.62 145.648 Q1032.62 146.468 1031.76 146.468 Q1031.18 146.468 1029.18 144.787 Q1027.17 143.107 1024.05 139.254 Q1020.94 135.401 1018.68 130.687 Q1013.15 119.251 1013.15 104.495 Z" fill="#000000" fill-rule="evenodd" fill-opacity="1" /><path clip-path="url(#clip010)" d="M1080.81 93.9196 Q1080.81 96.215 1079.37 97.5267 Q1077.94 98.7973 1076.3 98.7973 Q1074.74 98.7973 1073.92 97.8956 Q1073.1 96.9938 1073.1 95.8461 Q1073.1 94.2885 1074.25 92.9359 Q1075.39 91.5832 1077.12 91.2963 Q1075.44 90.2306 1072.94 90.2306 Q1071.3 90.2306 1069.86 91.0913 Q1068.47 91.9521 1067.61 93.0588 Q1066.79 94.1655 1066.05 95.7641 Q1065.35 97.3217 1065.07 98.2645 Q1064.82 99.1662 1064.61 100.15 L1061.75 111.627 Q1060.35 117.079 1060.35 119.005 Q1060.35 121.382 1061.5 122.981 Q1062.65 124.539 1064.94 124.539 Q1065.84 124.539 1066.87 124.293 Q1067.89 124.006 1069.21 123.268 Q1070.56 122.489 1071.75 121.341 Q1072.98 120.153 1074.17 118.144 Q1075.35 116.136 1076.13 113.553 Q1076.38 112.652 1077.2 112.652 Q1078.22 112.652 1078.22 113.471 Q1078.22 114.168 1077.65 115.644 Q1077.12 117.079 1075.93 118.964 Q1074.78 120.809 1073.26 122.489 Q1071.75 124.129 1069.49 125.276 Q1067.24 126.424 1064.78 126.424 Q1061.25 126.424 1058.92 124.539 Q1056.58 122.653 1055.72 120.03 Q1055.51 120.399 1055.23 120.891 Q1054.94 121.382 1054.08 122.489 Q1053.26 123.555 1052.32 124.375 Q1051.38 125.153 1049.9 125.768 Q1048.46 126.424 1046.91 126.424 Q1044.94 126.424 1043.18 125.85 Q1041.46 125.276 1040.23 123.965 Q1039 122.653 1039 120.85 Q1039 118.841 1040.35 117.447 Q1041.74 116.013 1043.63 116.013 Q1044.82 116.013 1045.76 116.71 Q1046.74 117.406 1046.74 118.923 Q1046.74 120.604 1045.6 121.874 Q1044.45 123.145 1042.81 123.473 Q1044.49 124.539 1046.99 124.539 Q1049.69 124.539 1051.83 122.161 Q1053.96 119.784 1054.98 115.808 Q1057.52 106.257 1058.51 101.994 Q1059.49 97.6906 1059.49 95.8461 Q1059.49 94.1245 1059.04 92.9359 Q1058.59 91.7472 1057.81 91.2143 Q1057.07 90.6405 1056.38 90.4355 Q1055.72 90.2306 1054.98 90.2306 Q1053.75 90.2306 1052.36 90.7224 Q1051.01 91.2143 1049.37 92.362 Q1047.77 93.4687 1046.25 95.7641 Q1044.73 98.0595 1043.71 101.216 Q1043.51 102.158 1042.6 102.158 Q1041.62 102.117 1041.62 101.298 Q1041.62 100.601 1042.15 99.1662 Q1042.73 97.6906 1043.87 95.8461 Q1045.06 94.0016 1046.58 92.362 Q1048.14 90.6814 1050.39 89.5337 Q1052.69 88.386 1055.15 88.386 Q1056.25 88.386 1057.32 88.632 Q1058.43 88.8369 1059.74 89.4518 Q1061.09 90.0666 1062.28 91.4193 Q1063.47 92.7719 1064.2 94.7394 Q1064.7 93.7966 1065.35 92.8949 Q1066.05 91.9931 1067.11 90.8864 Q1068.22 89.7387 1069.74 89.0829 Q1071.3 88.386 1073.02 88.386 Q1074.7 88.386 1076.34 88.8369 Q1077.98 89.2468 1079.37 90.5995 Q1080.81 91.9111 1080.81 93.9196 Z" fill="#000000" fill-rule="evenodd" fill-opacity="1" /><path clip-path="url(#clip010)" d="M1088.88 145.648 Q1088.88 145.238 1089.95 144.213 Q1103.48 130.441 1103.48 104.495 Q1103.48 78.4666 1090.48 65.3091 Q1088.88 63.7925 1088.88 63.3416 Q1088.88 62.5218 1089.7 62.5218 Q1090.28 62.5218 1092.29 64.2024 Q1094.34 65.8829 1097.41 69.7359 Q1100.53 73.5889 1102.82 78.3027 Q1108.35 89.7387 1108.35 104.495 Q1108.35 118.677 1103.07 130.113 Q1100.81 134.909 1097.66 138.926 Q1094.5 142.943 1092.41 144.705 Q1090.32 146.468 1089.7 146.468 Q1088.88 146.468 1088.88 145.648 Z" fill="#000000" fill-rule="evenodd" fill-opacity="1" /></svg>
